  0
SECTION
  2
HEADER
  9
$ACADVER
  1
AC1015
  9
$ACADMAINTVER
 70
     6
  9
$DWGCODEPAGE
  3
ANSI_932
  9
$INSBASE
 10
0.0
 20
0.0
 30
0.0
  9
$EXTMIN
 10
1.000000000000000E+20
 20
1.000000000000000E+20
 30
1.000000000000000E+20
  9
$EXTMAX
 10
-1.000000000000000E+20
 20
-1.000000000000000E+20
 30
-1.000000000000000E+20
  9
$LIMMIN
 10
0.0
 20
0.0
  9
$LIMMAX
 10
420.0
 20
297.0
  9
$ORTHOMODE
 70
     0
  9
$REGENMODE
 70
     1
  9
$FILLMODE
 70
     1
  9
$QTEXTMODE
 70
     0
  9
$MIRRTEXT
 70
     1
  9
$LTSCALE
 40
1.0
  9
$ATTMODE
 70
     1
  9
$TEXTSIZE
 40
2.5
  9
$TRACEWID
 40
1.0
  9
$TEXTSTYLE
  7
Standard
  9
$CLAYER
  8
0
  9
$CELTYPE
  6
ByLayer
  9
$CECOLOR
 62
   256
  9
$CELTSCALE
 40
1.0
  9
$DISPSILH
 70
     0
  9
$DIMSCALE
 40
1.0
  9
$DIMASZ
 40
3.0
  9
$DIMEXO
 40
0.625
  9
$DIMDLI
 40
3.75
  9
$DIMRND
 40
0.0
  9
$DIMDLE
 40
0.0
  9
$DIMEXE
 40
1.25
  9
$DIMTP
 40
0.0
  9
$DIMTM
 40
0.0
  9
$DIMTXT
 40
1.336918010447422
  9
$DIMCEN
 40
2.5
  9
$DIMTSZ
 40
0.0
  9
$DIMTOL
 70
     0
  9
$DIMLIM
 70
     0
  9
$DIMTIH
 70
     0
  9
$DIMTOH
 70
     0
  9
$DIMSE1
 70
     0
  9
$DIMSE2
 70
     0
  9
$DIMTAD
 70
     1
  9
$DIMZIN
 70
     8
  9
$DIMBLK
  1

  9
$DIMASO
 70
     1
  9
$DIMSHO
 70
     1
  9
$DIMPOST
  1

  9
$DIMAPOST
  1

  9
$DIMALT
 70
     0
  9
$DIMALTD
 70
     3
  9
$DIMALTF
 40
0.03937007874016
  9
$DIMLFAC
 40
1.0
  9
$DIMTOFL
 70
     1
  9
$DIMTVP
 40
0.0
  9
$DIMTIX
 70
     0
  9
$DIMSOXD
 70
     0
  9
$DIMSAH
 70
     0
  9
$DIMBLK1
  1

  9
$DIMBLK2
  1

  9
$DIMSTYLE
  2
ISO-25
  9
$DIMCLRD
 70
     0
  9
$DIMCLRE
 70
     0
  9
$DIMCLRT
 70
     0
  9
$DIMTFAC
 40
1.0
  9
$DIMGAP
 40
0.625
  9
$DIMJUST
 70
     0
  9
$DIMSD1
 70
     0
  9
$DIMSD2
 70
     0
  9
$DIMTOLJ
 70
     0
  9
$DIMTZIN
 70
     8
  9
$DIMALTZ
 70
     0
  9
$DIMALTTZ
 70
     0
  9
$DIMUPT
 70
     0
  9
$DIMDEC
 70
     2
  9
$DIMTDEC
 70
     2
  9
$DIMALTU
 70
     2
  9
$DIMALTTD
 70
     3
  9
$DIMTXSTY
  7
Standard
  9
$DIMAUNIT
 70
     0
  9
$DIMADEC
 70
     0
  9
$DIMALTRND
 40
0.0
  9
$DIMAZIN
 70
     0
  9
$DIMDSEP
 70
    44
  9
$DIMATFIT
 70
     3
  9
$DIMFRAC
 70
     0
  9
$DIMLDRBLK
  1

  9
$DIMLUNIT
 70
     2
  9
$DIMLWD
 70
    -2
  9
$DIMLWE
 70
    -2
  9
$DIMTMOVE
 70
     0
  9
$LUNITS
 70
     2
  9
$LUPREC
 70
     4
  9
$SKETCHINC
 40
1.0
  9
$FILLETRAD
 40
10.0
  9
$AUNITS
 70
     0
  9
$AUPREC
 70
     0
  9
$MENU
  1
.
  9
$ELEVATION
 40
0.0
  9
$PELEVATION
 40
0.0
  9
$THICKNESS
 40
0.0
  9
$LIMCHECK
 70
     0
  9
$CHAMFERA
 40
10.0
  9
$CHAMFERB
 40
10.0
  9
$CHAMFERC
 40
20.0
  9
$CHAMFERD
 40
0.0
  9
$SKPOLY
 70
     0
  9
$TDCREATE
 40
2457841.959209792
  9
$TDUCREATE
 40
2457841.584209792
  9
$TDUPDATE
 40
2457841.959211412
  9
$TDUUPDATE
 40
2457841.584211412
  9
$TDINDWG
 40
0.0000000116
  9
$TDUSRTIMER
 40
0.0000000116
  9
$USRTIMER
 70
     1
  9
$ANGBASE
 50
0.0
  9
$ANGDIR
 70
     0
  9
$PDMODE
 70
     0
  9
$PDSIZE
 40
0.0
  9
$PLINEWID
 40
0.0
  9
$SPLFRAME
 70
     0
  9
$SPLINETYPE
 70
     6
  9
$SPLINESEGS
 70
     8
  9
$HANDSEED
  5
25E
  9
$SURFTAB1
 70
     6
  9
$SURFTAB2
 70
     6
  9
$SURFTYPE
 70
     6
  9
$SURFU
 70
     6
  9
$SURFV
 70
     6
  9
$UCSBASE
  2

  9
$UCSNAME
  2

  9
$UCSORG
 10
0.0
 20
0.0
 30
0.0
  9
$UCSXDIR
 10
1.0
 20
0.0
 30
0.0
  9
$UCSYDIR
 10
0.0
 20
1.0
 30
0.0
  9
$UCSORTHOREF
  2

  9
$UCSORTHOVIEW
 70
     0
  9
$UCSORGTOP
 10
0.0
 20
0.0
 30
0.0
  9
$UCSORGBOTTOM
 10
0.0
 20
0.0
 30
0.0
  9
$UCSORGLEFT
 10
0.0
 20
0.0
 30
0.0
  9
$UCSORGRIGHT
 10
0.0
 20
0.0
 30
0.0
  9
$UCSORGFRONT
 10
0.0
 20
0.0
 30
0.0
  9
$UCSORGBACK
 10
0.0
 20
0.0
 30
0.0
  9
$PUCSBASE
  2

  9
$PUCSNAME
  2

  9
$PUCSORG
 10
0.0
 20
0.0
 30
0.0
  9
$PUCSXDIR
 10
1.0
 20
0.0
 30
0.0
  9
$PUCSYDIR
 10
0.0
 20
1.0
 30
0.0
  9
$PUCSORTHOREF
  2

  9
$PUCSORTHOVIEW
 70
     0
  9
$PUCSORGTOP
 10
0.0
 20
0.0
 30
0.0
  9
$PUCSORGBOTTOM
 10
0.0
 20
0.0
 30
0.0
  9
$PUCSORGLEFT
 10
0.0
 20
0.0
 30
0.0
  9
$PUCSORGRIGHT
 10
0.0
 20
0.0
 30
0.0
  9
$PUCSORGFRONT
 10
0.0
 20
0.0
 30
0.0
  9
$PUCSORGBACK
 10
0.0
 20
0.0
 30
0.0
  9
$USERI1
 70
     0
  9
$USERI2
 70
     0
  9
$USERI3
 70
     0
  9
$USERI4
 70
     0
  9
$USERI5
 70
     0
  9
$USERR1
 40
0.0
  9
$USERR2
 40
0.0
  9
$USERR3
 40
0.0
  9
$USERR4
 40
0.0
  9
$USERR5
 40
0.0
  9
$WORLDVIEW
 70
     1
  9
$SHADEDGE
 70
     3
  9
$SHADEDIF
 70
    70
  9
$TILEMODE
 70
     1
  9
$MAXACTVP
 70
    64
  9
$PINSBASE
 10
0.0
 20
0.0
 30
0.0
  9
$PLIMCHECK
 70
     0
  9
$PEXTMIN
 10
1.000000000000000E+20
 20
1.000000000000000E+20
 30
1.000000000000000E+20
  9
$PEXTMAX
 10
-1.000000000000000E+20
 20
-1.000000000000000E+20
 30
-1.000000000000000E+20
  9
$PLIMMIN
 10
0.0
 20
0.0
  9
$PLIMMAX
 10
420.0
 20
297.0
  9
$UNITMODE
 70
     0
  9
$VISRETAIN
 70
     1
  9
$PLINEGEN
 70
     0
  9
$PSLTSCALE
 70
     1
  9
$TREEDEPTH
 70
  3020
  9
$CMLSTYLE
  2
Standard
  9
$CMLJUST
 70
     0
  9
$CMLSCALE
 40
20.0
  9
$PROXYGRAPHICS
 70
     1
  9
$MEASUREMENT
 70
     1
  9
$CELWEIGHT
370
    -1
  9
$ENDCAPS
280
     0
  9
$JOINSTYLE
280
     0
  9
$LWDISPLAY
290
     0
  9
$INSUNITS
 70
     4
  9
$HYPERLINKBASE
  1

  9
$STYLESHEET
  1

  9
$XEDIT
290
     1
  9
$CEPSNTYPE
380
     0
  9
$PSTYLEMODE
290
     1
  9
$FINGERPRINTGUID
  2
{DB562F20-F7A2-4343-A6A3-A0515E7A2351}
  9
$VERSIONGUID
  2
{FAEB1C32-E019-11D5-929B-00C0DF256EC4}
  9
$EXTNAMES
290
     1
  9
$PSVPSCALE
 40
0.0
  9
$OLESTARTUP
290
     0
  0
ENDSEC
  0
SECTION
  2
CLASSES
  0
CLASS
  1
ACDBDICTIONARYWDFLT
  2
AcDbDictionaryWithDefault
  3
ObjectDBX Classes
 90
        0
280
     0
281
     0
  0
CLASS
  1
VISUALSTYLE
  2
AcDbVisualStyle
  3
ObjectDBX Classes
 90
     4095
280
     0
281
     0
  0
CLASS
  1
MATERIAL
  2
AcDbMaterial
  3
ObjectDBX Classes
 90
     1153
280
     0
281
     0
  0
CLASS
  1
DICTIONARYVAR
  2
AcDbDictionaryVar
  3
ObjectDBX Classes
 90
        0
280
     0
281
     0
  0
CLASS
  1
ACDBPLACEHOLDER
  2
AcDbPlaceHolder
  3
ObjectDBX Classes
 90
        0
280
     0
281
     0
  0
CLASS
  1
LAYOUT
  2
AcDbLayout
  3
ObjectDBX Classes
 90
        0
280
     0
281
     0
  0
ENDSEC
  0
SECTION
  2
TABLES
  0
TABLE
  2
VPORT
  5
8
330
0
100
AcDbSymbolTable
 70
     1
  0
VPORT
  5
29
330
8
100
AcDbSymbolTableRecord
100
AcDbViewportTableRecord
  2
*Active
 70
     0
 10
0.0
 20
0.0
 11
1.0
 21
1.0
 12
344.1869158878504
 22
148.5
 13
0.0
 23
0.0
 14
10.0
 24
10.0
 15
10.0
 25
10.0
 16
0.0
 26
0.0
 36
1.0
 17
0.0
 27
0.0
 37
0.0
 40
297.0
 41
1.972972972850329
 42
50.0
 43
0.0
 44
0.0
 50
0.0
 51
0.0
 71
     0
 72
   100
 73
     1
 74
     3
 75
     0
 76
     0
 77
     0
 78
     0
281
     0
 65
     1
110
0.0
120
0.0
130
0.0
111
1.0
121
0.0
131
0.0
112
0.0
122
1.0
132
0.0
 79
     0
146
0.0
  0
ENDTAB
  0
TABLE
  2
LTYPE
  5
5
330
0
100
AcDbSymbolTable
 70
     1
  0
LTYPE
  5
14
330
5
100
AcDbSymbolTableRecord
100
AcDbLinetypeTableRecord
  2
ByBlock
 70
     0
  3

 72
    65
 73
     0
 40
0.0
  0
LTYPE
  5
15
330
5
100
AcDbSymbolTableRecord
100
AcDbLinetypeTableRecord
  2
ByLayer
 70
     0
  3

 72
    65
 73
     0
 40
0.0
  0
LTYPE
  5
16
330
5
100
AcDbSymbolTableRecord
100
AcDbLinetypeTableRecord
  2
Continuous
 70
     0
  3
Solid line
 72
    65
 73
     0
 40
0.0
  0
ENDTAB
  0
TABLE
  2
LAYER
  5
2
330
0
100
AcDbSymbolTable
 70
     6
  0
LAYER
  5
10
330
2
100
AcDbSymbolTableRecord
100
AcDbLayerTableRecord
  2
0
 70
     0
 62
     7
  6
Continuous
370
    -3
390
F
  0
LAYER
  5
3F
330
2
100
AcDbSymbolTableRecord
100
AcDbLayerTableRecord
  2
VISIBLE
 70
     0
 62
     7
  6
Continuous
370
     0
390
F
  0
LAYER
  5
57
330
2
100
AcDbSymbolTableRecord
100
AcDbLayerTableRecord
  2
TANGENT EDGES
 70
     0
 62
     7
  6
Continuous
370
     0
390
F
  0
LAYER
  5
5B
330
2
100
AcDbSymbolTableRecord
100
AcDbLayerTableRecord
  2
CENTER
 70
     0
 62
   204
  6
Continuous
370
     0
390
F
  0
LAYER
  5
8C
330
2
100
AcDbSymbolTableRecord
100
AcDbLayerTableRecord
  2
DIMENSIONS
 70
     0
 62
     7
  6
Continuous
370
     0
390
F
  0
LAYER
  5
1D8
330
2
100
AcDbSymbolTableRecord
100
AcDbLayerTableRecord
  2
CONTINUOUS
 70
     0
 62
     7
  6
Continuous
370
     0
390
F
  0
ENDTAB
  0
TABLE
  2
STYLE
  5
3
330
0
100
AcDbSymbolTable
 70
     1
  0
STYLE
  5
11
330
3
100
AcDbSymbolTableRecord
100
AcDbTextStyleTableRecord
  2
Standard
 70
     0
 40
0.0
 41
1.0
 50
0.0
 71
     0
 42
2.5
  3
txt
  4

  0
ENDTAB
  0
TABLE
  2
VIEW
  5
6
330
0
100
AcDbSymbolTable
 70
     0
  0
ENDTAB
  0
TABLE
  2
UCS
  5
7
330
0
100
AcDbSymbolTable
 70
     0
  0
ENDTAB
  0
TABLE
  2
APPID
  5
9
330
0
100
AcDbSymbolTable
 70
     1
  0
APPID
  5
12
330
9
100
AcDbSymbolTableRecord
100
AcDbRegAppTableRecord
  2
ACAD
 70
     0
  0
ENDTAB
  0
TABLE
  2
DIMSTYLE
  5
A
330
0
100
AcDbSymbolTable
 70
     1
100
AcDbDimStyleTable
  0
DIMSTYLE
105
27
102
{ACAD_REACTORS
330
8D
330
9E
330
AF
330
C0
330
D1
330
E2
330
F3
330
104
330
115
330
126
330
137
330
155
330
178
330
189
102
}
330
A
100
AcDbSymbolTableRecord
100
AcDbDimStyleTableRecord
  2
ISO-25
 70
     0
 41
2.5
 42
0.625
 43
3.75
 44
1.25
 73
     0
 74
     0
 77
     1
 78
     8
140
2.5
141
2.5
143
0.03937007874016
147
0.625
171
     3
172
     1
178
     0
271
     2
272
     2
274
     3
278
    44
283
     0
284
     8
340
11
  0
ENDTAB
  0
TABLE
  2
BLOCK_RECORD
  5
1
330
0
100
AcDbSymbolTable
 70
    15
  0
BLOCK_RECORD
  5
1F
330
1
100
AcDbSymbolTableRecord
100
AcDbBlockTableRecord
  2
*Model_Space
340
22
  0
BLOCK_RECORD
  5
1B
330
1
100
AcDbSymbolTableRecord
100
AcDbBlockTableRecord
  2
*Paper_Space
340
1E
  0
BLOCK_RECORD
  5
23
330
1
100
AcDbSymbolTableRecord
100
AcDbBlockTableRecord
  2
*Paper_Space0
340
26
  0
BLOCK_RECORD
  5
8E
330
1
100
AcDbSymbolTableRecord
100
AcDbBlockTableRecord
  2
D1
340
0
  0
BLOCK_RECORD
  5
9F
330
1
100
AcDbSymbolTableRecord
100
AcDbBlockTableRecord
  2
D2
340
0
  0
BLOCK_RECORD
  5
B0
330
1
100
AcDbSymbolTableRecord
100
AcDbBlockTableRecord
  2
D3
340
0
  0
BLOCK_RECORD
  5
C1
330
1
100
AcDbSymbolTableRecord
100
AcDbBlockTableRecord
  2
D4
340
0
  0
BLOCK_RECORD
  5
D2
330
1
100
AcDbSymbolTableRecord
100
AcDbBlockTableRecord
  2
D5
340
0
  0
BLOCK_RECORD
  5
E3
330
1
100
AcDbSymbolTableRecord
100
AcDbBlockTableRecord
  2
D6
340
0
  0
BLOCK_RECORD
  5
F4
330
1
100
AcDbSymbolTableRecord
100
AcDbBlockTableRecord
  2
D7
340
0
  0
BLOCK_RECORD
  5
105
330
1
100
AcDbSymbolTableRecord
100
AcDbBlockTableRecord
  2
D8
340
0
  0
BLOCK_RECORD
  5
116
330
1
100
AcDbSymbolTableRecord
100
AcDbBlockTableRecord
  2
D9
340
0
  0
BLOCK_RECORD
  5
127
330
1
100
AcDbSymbolTableRecord
100
AcDbBlockTableRecord
  2
D10
340
0
  0
BLOCK_RECORD
  5
138
330
1
100
AcDbSymbolTableRecord
100
AcDbBlockTableRecord
  2
D11
340
0
  0
BLOCK_RECORD
  5
156
330
1
100
AcDbSymbolTableRecord
100
AcDbBlockTableRecord
  2
D12
340
0
  0
BLOCK_RECORD
  5
179
330
1
100
AcDbSymbolTableRecord
100
AcDbBlockTableRecord
  2
D13
340
0
  0
BLOCK_RECORD
  5
18A
330
1
100
AcDbSymbolTableRecord
100
AcDbBlockTableRecord
  2
D14
340
0
  0
ENDTAB
  0
ENDSEC
  0
SECTION
  2
BLOCKS
  0
BLOCK
  5
20
330
1F
100
AcDbEntity
  8
0
100
AcDbBlockBegin
  2
*Model_Space
 70
     0
 10
0.0
 20
0.0
 30
0.0
  3
*Model_Space
  1

  0
ENDBLK
  5
21
330
1F
100
AcDbEntity
  8
0
100
AcDbBlockEnd
  0
BLOCK
  5
1C
330
1B
100
AcDbEntity
 67
     1
  8
0
100
AcDbBlockBegin
  2
*Paper_Space
 70
     0
 10
0.0
 20
0.0
 30
0.0
  3
*Paper_Space
  1

  0
ENDBLK
  5
1D
330
1B
100
AcDbEntity
 67
     1
  8
0
100
AcDbBlockEnd
  0
BLOCK
  5
24
330
23
100
AcDbEntity
  8
0
100
AcDbBlockBegin
  2
*Paper_Space0
 70
     0
 10
0.0
 20
0.0
 30
0.0
  3
*Paper_Space0
  1

  0
ENDBLK
  5
25
330
23
100
AcDbEntity
  8
0
100
AcDbBlockEnd
  0
BLOCK
  5
8F
330
8E
100
AcDbEntity
  8
0
100
AcDbBlockBegin
  2
D1
 70
     0
 10
0.0
 20
0.0
 30
0.0
  3
D1
  1

  0
MTEXT
  5
91
330
8E
100
AcDbEntity
  8
DIMENSIONS
100
AcDbMText
 10
35.19072469075526
 20
185.325083414713
 30
0.0
 40
2.134018756842158
 41
0.0
 71
     5
 72
     1
  1
{\fArial|b0|i0|c0|p0;195}{\fArial|b0|i0|c0|p0;}
 11
6.123031769111886E-17
 21
1.0
 31
0.0
 73
     1
 44
1.0
  0
MTEXT
  5
92
330
8E
100
AcDbEntity
  8
DIMENSIONS
100
AcDbMText
 10
35.19072469075526
 20
185.325083414713
 30
0.0
 40
2.134018756842158
 41
0.0
 71
     5
 72
     1
  1
{\fArial|b0|i0|c0|p0;}
 11
6.123031769111886E-17
 21
1.0
 31
0.0
 73
     1
 44
1.0
  0
MTEXT
  5
93
330
8E
100
AcDbEntity
  8
DIMENSIONS
100
AcDbMText
 10
35.19072469075526
 20
185.325083414713
 30
0.0
 40
2.134018756842158
 41
0.0
 71
     5
 72
     1
  1
{\fArial|b0|i0|c0|p0;}
 11
6.123031769111886E-17
 21
1.0
 31
0.0
 73
     1
 44
1.0
  0
MTEXT
  5
94
330
8E
100
AcDbEntity
  8
DIMENSIONS
100
AcDbMText
 10
35.19072469075526
 20
181.9736945258241
 30
0.0
 40
2.134018756842158
 41
0.0
 71
     5
 72
     1
  1
{\fArial|b0|i0|c0|p0;}
 11
6.123031769111886E-17
 21
1.0
 31
0.0
 73
     1
 44
1.0
  0
MTEXT
  5
95
330
8E
100
AcDbEntity
  8
DIMENSIONS
100
AcDbMText
 10
35.19072469075526
 20
188.6764723036019
 30
0.0
 40
2.134018756842158
 41
0.0
 71
     5
 72
     1
  1
{\fArial|b0|i0|c0|p0;}
 11
6.123031769111886E-17
 21
1.0
 31
0.0
 73
     1
 44
1.0
  0
LINE
  5
96
330
8E
100
AcDbEntity
  8
DIMENSIONS
100
AcDbLine
 10
55.93122990926111
 20
250.3628804524735
 30
0.0
 11
34.95461357964415
 21
250.3628804524735
 31
0.0
  0
LINE
  5
97
330
8E
100
AcDbEntity
  8
DIMENSIONS
100
AcDbLine
 10
55.93122990926111
 20
120.3628804524737
 30
0.0
 11
34.95461357964415
 21
120.3628804524737
 31
0.0
  0
LWPOLYLINE
  5
98
330
8E
100
AcDbEntity
  8
DIMENSIONS
100
AcDbPolyline
 90
        4
 70
     0
 43
0.0
 10
36.95461357964413
 20
250.3628804524735
 10
37.45461357964413
 20
247.3628804524735
 10
36.45461357964414
 20
247.3628804524735
 10
36.95461357964413
 20
250.3628804524735
  0
LINE
  5
99
330
8E
100
AcDbEntity
  8
DIMENSIONS
100
AcDbLine
 10
36.95461357964415
 20
247.3628804524735
 30
0.0
 11
36.95461357964415
 21
185.325083414713
 31
0.0
  0
LWPOLYLINE
  5
9A
330
8E
100
AcDbEntity
  8
DIMENSIONS
100
AcDbPolyline
 90
        4
 70
     0
 43
0.0
 10
36.95461357964414
 20
120.3628804524737
 10
36.45461357964414
 20
123.3628804524737
 10
37.45461357964414
 20
123.3628804524737
 10
36.95461357964414
 20
120.3628804524737
  0
LINE
  5
9B
330
8E
100
AcDbEntity
  8
DIMENSIONS
100
AcDbLine
 10
36.95461357964415
 20
123.3628804524737
 30
0.0
 11
36.95461357964415
 21
185.325083414713
 31
0.0
  0
LINE
  5
9C
330
8E
100
AcDbEntity
  8
DIMENSIONS
100
AcDbLine
 10
36.95461357964415
 20
179.6209167480465
 30
0.0
 11
36.95461357964415
 21
191.0292495727535
 31
0.0
  0
HATCH
  5
9D
330
8E
100
AcDbEntity
  8
0
 62
     7
100
AcDbHatch
 10
0.0
 20
0.0
 30
0.0
210
0.0
220
0.0
230
1.0
  2
SOLID
 70
     1
 71
     0
 91
        2
 92
        0
 93
        3
 72
     1
 10
36.45461357964414
 20
247.3628804524735
 11
36.95461357964413
 21
250.3628804524735
 72
     1
 10
36.95461357964413
 20
250.3628804524735
 11
37.45461357964413
 21
247.3628804524735
 72
     1
 10
37.45461357964413
 20
247.3628804524735
 11
36.45461357964414
 21
247.3628804524735
 97
        0
 92
        0
 93
        3
 72
     1
 10
37.45461357964414
 20
123.3628804524737
 11
36.95461357964414
 21
120.3628804524737
 72
     1
 10
36.95461357964414
 20
120.3628804524737
 11
36.45461357964414
 21
123.3628804524737
 72
     1
 10
36.45461357964414
 20
123.3628804524737
 11
37.45461357964414
 21
123.3628804524737
 97
        0
 75
     0
 76
     1
 98
        0
  0
ENDBLK
  5
90
330
8E
100
AcDbEntity
  8
0
100
AcDbBlockEnd
  0
BLOCK
  5
A0
330
9F
100
AcDbEntity
  8
0
100
AcDbBlockBegin
  2
D2
 70
     0
 10
0.0
 20
0.0
 30
0.0
  3
D2
  1

  0
MTEXT
  5
A2
330
9F
100
AcDbEntity
  8
DIMENSIONS
100
AcDbMText
 10
90.1913986206055
 20
273.1356811523436
 30
0.0
 40
2.134018756842158
 41
0.0
 71
     5
 72
     1
  1
{\fArial|b0|i0|c0|p0;105}{\fArial|b0|i0|c0|p0;}
 73
     1
 44
1.0
  0
MTEXT
  5
A3
330
9F
100
AcDbEntity
  8
DIMENSIONS
100
AcDbMText
 10
90.1913986206055
 20
273.1356811523436
 30
0.0
 40
2.134018756842158
 41
0.0
 71
     5
 72
     1
  1
{\fArial|b0|i0|c0|p0;}
 73
     1
 44
1.0
  0
MTEXT
  5
A4
330
9F
100
AcDbEntity
  8
DIMENSIONS
100
AcDbMText
 10
90.1913986206055
 20
273.1356811523436
 30
0.0
 40
2.134018756842158
 41
0.0
 71
     5
 72
     1
  1
{\fArial|b0|i0|c0|p0;}
 73
     1
 44
1.0
  0
MTEXT
  5
A5
330
9F
100
AcDbEntity
  8
DIMENSIONS
100
AcDbMText
 10
86.8400097317166
 20
273.1356811523436
 30
0.0
 40
2.134018756842158
 41
0.0
 71
     5
 72
     1
  1
{\fArial|b0|i0|c0|p0;}
 73
     1
 44
1.0
  0
MTEXT
  5
A6
330
9F
100
AcDbEntity
  8
DIMENSIONS
100
AcDbMText
 10
93.54278750949439
 20
273.1356811523436
 30
0.0
 40
2.134018756842158
 41
0.0
 71
     5
 72
     1
  1
{\fArial|b0|i0|c0|p0;}
 73
     1
 44
1.0
  0
LINE
  5
A7
330
9F
100
AcDbEntity
  8
DIMENSIONS
100
AcDbLine
 10
54.59789657592777
 20
249.0295471191402
 30
0.0
 11
54.59789657592777
 21
273.3717922634548
 31
0.0
  0
LINE
  5
A8
330
9F
100
AcDbEntity
  8
DIMENSIONS
100
AcDbLine
 10
124.5978965759278
 20
249.0295471191402
 30
0.0
 11
124.5978965759278
 21
273.3717922634548
 31
0.0
  0
LWPOLYLINE
  5
A9
330
9F
100
AcDbEntity
  8
DIMENSIONS
100
AcDbPolyline
 90
        4
 70
     0
 43
0.0
 10
54.59789657592777
 20
271.3717922634548
 10
57.59789657592777
 20
271.8717922634548
 10
57.59789657592777
 20
270.8717922634548
 10
54.59789657592777
 20
271.3717922634548
  0
LINE
  5
AA
330
9F
100
AcDbEntity
  8
DIMENSIONS
100
AcDbLine
 10
57.59789657592777
 20
271.3717922634548
 30
0.0
 11
90.1913986206055
 21
271.3717922634548
 31
0.0
  0
LWPOLYLINE
  5
AB
330
9F
100
AcDbEntity
  8
DIMENSIONS
100
AcDbPolyline
 90
        4
 70
     0
 43
0.0
 10
124.5978965759278
 20
271.3717922634548
 10
121.5978965759278
 20
270.8717922634548
 10
121.5978965759278
 20
271.8717922634548
 10
124.5978965759278
 20
271.3717922634548
  0
LINE
  5
AC
330
9F
100
AcDbEntity
  8
DIMENSIONS
100
AcDbLine
 10
121.5978965759278
 20
271.3717922634548
 30
0.0
 11
90.1913986206055
 21
271.3717922634548
 31
0.0
  0
LINE
  5
AD
330
9F
100
AcDbEntity
  8
DIMENSIONS
100
AcDbLine
 10
95.54278786977133
 20
271.3717922634548
 30
0.0
 11
84.13445425033571
 21
271.3717922634548
 31
0.0
  0
HATCH
  5
AE
330
9F
100
AcDbEntity
  8
0
 62
     7
100
AcDbHatch
 10
0.0
 20
0.0
 30
0.0
210
0.0
220
0.0
230
1.0
  2
SOLID
 70
     1
 71
     0
 91
        2
 92
        0
 93
        3
 72
     1
 10
57.59789657592777
 20
270.8717922634548
 11
54.59789657592777
 21
271.3717922634548
 72
     1
 10
54.59789657592777
 20
271.3717922634548
 11
57.59789657592777
 21
271.8717922634548
 72
     1
 10
57.59789657592777
 20
271.8717922634548
 11
57.59789657592777
 21
270.8717922634548
 97
        0
 92
        0
 93
        3
 72
     1
 10
121.5978965759278
 20
271.8717922634548
 11
124.5978965759278
 21
271.3717922634548
 72
     1
 10
124.5978965759278
 20
271.3717922634548
 11
121.5978965759278
 21
270.8717922634548
 72
     1
 10
121.5978965759278
 20
270.8717922634548
 11
121.5978965759278
 21
271.8717922634548
 97
        0
 75
     0
 76
     1
 98
        0
  0
ENDBLK
  5
A1
330
9F
100
AcDbEntity
  8
0
100
AcDbBlockEnd
  0
BLOCK
  5
B1
330
B0
100
AcDbEntity
  8
0
100
AcDbBlockBegin
  2
D3
 70
     0
 10
0.0
 20
0.0
 30
0.0
  3
D3
  1

  0
MTEXT
  5
B3
330
B0
100
AcDbEntity
  8
DIMENSIONS
100
AcDbMText
 10
135.032211303711
 20
254.0079650878903
 30
0.0
 40
2.134018756842158
 41
0.0
 71
     5
 72
     1
  1
{\fArial|b0|i0|c0|p0;5}{\fArial|b0|i0|c0|p0;}
 11
6.123031769111886E-17
 21
1.0
 31
0.0
 73
     1
 44
1.0
  0
MTEXT
  5
B4
330
B0
100
AcDbEntity
  8
DIMENSIONS
100
AcDbMText
 10
135.032211303711
 20
254.0079650878903
 30
0.0
 40
2.134018756842158
 41
0.0
 71
     5
 72
     1
  1
{\fArial|b0|i0|c0|p0;}
 11
6.123031769111886E-17
 21
1.0
 31
0.0
 73
     1
 44
1.0
  0
MTEXT
  5
B5
330
B0
100
AcDbEntity
  8
DIMENSIONS
100
AcDbMText
 10
135.032211303711
 20
254.0079650878903
 30
0.0
 40
2.134018756842158
 41
0.0
 71
     5
 72
     1
  1
{\fArial|b0|i0|c0|p0;}
 11
6.123031769111886E-17
 21
1.0
 31
0.0
 73
     1
 44
1.0
  0
MTEXT
  5
B6
330
B0
100
AcDbEntity
  8
DIMENSIONS
100
AcDbMText
 10
135.032211303711
 20
252.4204650878902
 30
0.0
 40
2.134018756842158
 41
0.0
 71
     5
 72
     1
  1
{\fArial|b0|i0|c0|p0;}
 11
6.123031769111886E-17
 21
1.0
 31
0.0
 73
     1
 44
1.0
  0
MTEXT
  5
B7
330
B0
100
AcDbEntity
  8
DIMENSIONS
100
AcDbMText
 10
135.032211303711
 20
255.5954650878903
 30
0.0
 40
2.134018756842158
 41
0.0
 71
     5
 72
     1
  1
{\fArial|b0|i0|c0|p0;}
 11
6.123031769111886E-17
 21
1.0
 31
0.0
 73
     1
 44
1.0
  0
LINE
  5
B8
330
B0
100
AcDbEntity
  8
DIMENSIONS
100
AcDbLine
 10
123.2645632425944
 20
250.3628804524735
 30
0.0
 11
138.7961001925999
 21
250.3628804524735
 31
0.0
  0
LINE
  5
B9
330
B0
100
AcDbEntity
  8
DIMENSIONS
100
AcDbLine
 10
63.26456324259443
 20
247.0295471191402
 30
0.0
 11
138.7961001925999
 21
247.0295471191402
 31
0.0
  0
LWPOLYLINE
  5
BA
330
B0
100
AcDbEntity
  8
DIMENSIONS
100
AcDbPolyline
 90
        4
 70
     0
 43
0.0
 10
136.7961001925999
 20
250.3628804524735
 10
136.2961001925999
 20
253.3628804524735
 10
137.2961001925999
 20
253.3628804524735
 10
136.7961001925999
 20
250.3628804524735
  0
LINE
  5
BB
330
B0
100
AcDbEntity
  8
DIMENSIONS
100
AcDbLine
 10
136.7961001925999
 20
253.3628804524735
 30
0.0
 11
136.7961001925999
 21
254.0079650878903
 31
0.0
  0
LWPOLYLINE
  5
BC
330
B0
100
AcDbEntity
  8
DIMENSIONS
100
AcDbPolyline
 90
        4
 70
     0
 43
0.0
 10
136.7961001925999
 20
247.0295471191402
 10
137.2961001925999
 20
244.0295471191402
 10
136.2961001925999
 20
244.0295471191402
 10
136.7961001925999
 20
247.0295471191402
  0
LINE
  5
BD
330
B0
100
AcDbEntity
  8
DIMENSIONS
100
AcDbLine
 10
136.7961001925999
 20
244.0295471191402
 30
0.0
 11
136.7961001925999
 21
243.4295471191402
 31
0.0
  0
LINE
  5
BE
330
B0
100
AcDbEntity
  8
DIMENSIONS
100
AcDbLine
 10
136.7961001925999
 20
250.0676877339677
 30
0.0
 11
136.7961001925999
 21
257.9482425689693
 31
0.0
  0
HATCH
  5
BF
330
B0
100
AcDbEntity
  8
0
 62
     7
100
AcDbHatch
 10
0.0
 20
0.0
 30
0.0
210
0.0
220
0.0
230
1.0
  2
SOLID
 70
     1
 71
     0
 91
        2
 92
        0
 93
        3
 72
     1
 10
137.2961001925999
 20
253.3628804524735
 11
136.7961001925999
 21
250.3628804524735
 72
     1
 10
136.7961001925999
 20
250.3628804524735
 11
136.2961001925999
 21
253.3628804524735
 72
     1
 10
136.2961001925999
 20
253.3628804524735
 11
137.2961001925999
 21
253.3628804524735
 97
        0
 92
        0
 93
        3
 72
     1
 10
136.2961001925999
 20
244.0295471191402
 11
136.7961001925999
 21
247.0295471191402
 72
     1
 10
136.7961001925999
 20
247.0295471191402
 11
137.2961001925999
 21
244.0295471191402
 72
     1
 10
137.2961001925999
 20
244.0295471191402
 11
136.2961001925999
 21
244.0295471191402
 97
        0
 75
     0
 76
     1
 98
        0
  0
ENDBLK
  5
B2
330
B0
100
AcDbEntity
  8
0
100
AcDbBlockEnd
  0
BLOCK
  5
C2
330
C1
100
AcDbEntity
  8
0
100
AcDbBlockBegin
  2
D4
 70
     0
 10
0.0
 20
0.0
 30
0.0
  3
D4
  1

  0
MTEXT
  5
C4
330
C1
100
AcDbEntity
  8
DIMENSIONS
100
AcDbMText
 10
135.1943961779276
 20
185.3840179443356
 30
0.0
 40
2.134018756842158
 41
0.0
 71
     5
 72
     1
  1
{\fArial|b0|i0|c0|p0;180}{\fArial|b0|i0|c0|p0;}
 11
6.123031769111886E-17
 21
1.0
 31
0.0
 73
     1
 44
1.0
  0
MTEXT
  5
C5
330
C1
100
AcDbEntity
  8
DIMENSIONS
100
AcDbMText
 10
135.1943961779276
 20
185.3840179443356
 30
0.0
 40
2.134018756842158
 41
0.0
 71
     5
 72
     1
  1
{\fArial|b0|i0|c0|p0;}
 11
6.123031769111886E-17
 21
1.0
 31
0.0
 73
     1
 44
1.0
  0
MTEXT
  5
C6
330
C1
100
AcDbEntity
  8
DIMENSIONS
100
AcDbMText
 10
135.1943961779276
 20
185.3840179443356
 30
0.0
 40
2.134018756842158
 41
0.0
 71
     5
 72
     1
  1
{\fArial|b0|i0|c0|p0;}
 11
6.123031769111886E-17
 21
1.0
 31
0.0
 73
     1
 44
1.0
  0
MTEXT
  5
C7
330
C1
100
AcDbEntity
  8
DIMENSIONS
100
AcDbMText
 10
135.1943961779276
 20
182.0326290554467
 30
0.0
 40
2.134018756842158
 41
0.0
 71
     5
 72
     1
  1
{\fArial|b0|i0|c0|p0;}
 11
6.123031769111886E-17
 21
1.0
 31
0.0
 73
     1
 44
1.0
  0
MTEXT
  5
C8
330
C1
100
AcDbEntity
  8
DIMENSIONS
100
AcDbMText
 10
135.1943961779276
 20
188.7354068332245
 30
0.0
 40
2.134018756842158
 41
0.0
 71
     5
 72
     1
  1
{\fArial|b0|i0|c0|p0;}
 11
6.123031769111886E-17
 21
1.0
 31
0.0
 73
     1
 44
1.0
  0
LINE
  5
C9
330
C1
100
AcDbEntity
  8
DIMENSIONS
100
AcDbLine
 10
63.26456324259443
 20
247.0295471191402
 30
0.0
 11
138.9582850668165
 21
247.0295471191402
 31
0.0
  0
LINE
  5
CA
330
C1
100
AcDbEntity
  8
DIMENSIONS
100
AcDbLine
 10
63.26456244786583
 20
127.0295471191403
 30
0.0
 11
138.9582850668165
 21
127.0295471191403
 31
0.0
  0
LWPOLYLINE
  5
CB
330
C1
100
AcDbEntity
  8
DIMENSIONS
100
AcDbPolyline
 90
        4
 70
     0
 43
0.0
 10
136.9582850668165
 20
247.0295471191402
 10
137.4582850668165
 20
244.0295471191402
 10
136.4582850668165
 20
244.0295471191402
 10
136.9582850668165
 20
247.0295471191402
  0
LINE
  5
CC
330
C1
100
AcDbEntity
  8
DIMENSIONS
100
AcDbLine
 10
136.9582850668165
 20
244.0295471191402
 30
0.0
 11
136.9582850668165
 21
185.3840179443356
 31
0.0
  0
LWPOLYLINE
  5
CD
330
C1
100
AcDbEntity
  8
DIMENSIONS
100
AcDbPolyline
 90
        4
 70
     0
 43
0.0
 10
136.9582850668165
 20
127.0295471191403
 10
136.4582850668165
 20
130.0295471191403
 10
137.4582850668165
 20
130.0295471191403
 10
136.9582850668165
 20
127.0295471191403
  0
LINE
  5
CE
330
C1
100
AcDbEntity
  8
DIMENSIONS
100
AcDbLine
 10
136.9582850668165
 20
130.0295471191403
 30
0.0
 11
136.9582850668165
 21
185.3840179443356
 31
0.0
  0
LINE
  5
CF
330
C1
100
AcDbEntity
  8
DIMENSIONS
100
AcDbLine
 10
136.9582850668165
 20
179.6798522313432
 30
0.0
 11
136.9582850668165
 21
191.0881850560502
 31
0.0
  0
HATCH
  5
D0
330
C1
100
AcDbEntity
  8
0
 62
     7
100
AcDbHatch
 10
0.0
 20
0.0
 30
0.0
210
0.0
220
0.0
230
1.0
  2
SOLID
 70
     1
 71
     0
 91
        2
 92
        0
 93
        3
 72
     1
 10
136.4582850668165
 20
244.0295471191402
 11
136.9582850668165
 21
247.0295471191402
 72
     1
 10
136.9582850668165
 20
247.0295471191402
 11
137.4582850668165
 21
244.0295471191402
 72
     1
 10
137.4582850668165
 20
244.0295471191402
 11
136.4582850668165
 21
244.0295471191402
 97
        0
 92
        0
 93
        3
 72
     1
 10
137.4582850668165
 20
130.0295471191403
 11
136.9582850668165
 21
127.0295471191403
 72
     1
 10
136.9582850668165
 20
127.0295471191403
 11
136.4582850668165
 21
130.0295471191403
 72
     1
 10
136.4582850668165
 20
130.0295471191403
 11
137.4582850668165
 21
130.0295471191403
 97
        0
 75
     0
 76
     1
 98
        0
  0
ENDBLK
  5
C3
330
C1
100
AcDbEntity
  8
0
100
AcDbBlockEnd
  0
BLOCK
  5
D3
330
D2
100
AcDbEntity
  8
0
100
AcDbBlockBegin
  2
D5
 70
     0
 10
0.0
 20
0.0
 30
0.0
  3
D5
  1

  0
MTEXT
  5
D5
330
D2
100
AcDbEntity
  8
DIMENSIONS
100
AcDbMText
 10
144.7578271230062
 20
222.0917643229163
 30
0.0
 40
2.134018756842158
 41
0.0
 71
     5
 72
     1
  1
{\fArial|b0|i0|c0|p0;75}{\fArial|b0|i0|c0|p0;}
 11
6.123031769111886E-17
 21
1.0
 31
0.0
 73
     1
 44
1.0
  0
MTEXT
  5
D6
330
D2
100
AcDbEntity
  8
DIMENSIONS
100
AcDbMText
 10
144.7578271230062
 20
222.0917643229163
 30
0.0
 40
2.134018756842158
 41
0.0
 71
     5
 72
     1
  1
{\fArial|b0|i0|c0|p0;}
 11
6.123031769111886E-17
 21
1.0
 31
0.0
 73
     1
 44
1.0
  0
MTEXT
  5
D7
330
D2
100
AcDbEntity
  8
DIMENSIONS
100
AcDbMText
 10
144.7578271230062
 20
222.0917643229163
 30
0.0
 40
2.134018756842158
 41
0.0
 71
     5
 72
     1
  1
{\fArial|b0|i0|c0|p0;}
 11
6.123031769111886E-17
 21
1.0
 31
0.0
 73
     1
 44
1.0
  0
MTEXT
  5
D8
330
D2
100
AcDbEntity
  8
DIMENSIONS
100
AcDbMText
 10
144.7578271230062
 20
219.6223198784718
 30
0.0
 40
2.134018756842158
 41
0.0
 71
     5
 72
     1
  1
{\fArial|b0|i0|c0|p0;}
 11
6.123031769111886E-17
 21
1.0
 31
0.0
 73
     1
 44
1.0
  0
MTEXT
  5
D9
330
D2
100
AcDbEntity
  8
DIMENSIONS
100
AcDbMText
 10
144.7578271230062
 20
224.5612087673607
 30
0.0
 40
2.134018756842158
 41
0.0
 71
     5
 72
     1
  1
{\fArial|b0|i0|c0|p0;}
 11
6.123031769111886E-17
 21
1.0
 31
0.0
 73
     1
 44
1.0
  0
LINE
  5
DA
330
D2
100
AcDbEntity
  8
DIMENSIONS
100
AcDbLine
 10
123.2645632425944
 20
250.3628804524735
 30
0.0
 11
148.5217160118951
 21
250.3628804524735
 31
0.0
  0
LINE
  5
DB
330
D2
100
AcDbEntity
  8
DIMENSIONS
100
AcDbLine
 10
59.76456260681151
 20
200.3628804524735
 30
0.0
 11
148.5217160118951
 21
200.3628804524735
 31
0.0
  0
LWPOLYLINE
  5
DC
330
D2
100
AcDbEntity
  8
DIMENSIONS
100
AcDbPolyline
 90
        4
 70
     0
 43
0.0
 10
146.5217160118951
 20
250.3628804524735
 10
147.0217160118951
 20
247.3628804524735
 10
146.0217160118951
 20
247.3628804524735
 10
146.5217160118951
 20
250.3628804524735
  0
LINE
  5
DD
330
D2
100
AcDbEntity
  8
DIMENSIONS
100
AcDbLine
 10
146.5217160118951
 20
247.3628804524735
 30
0.0
 11
146.5217160118951
 21
222.0917643229163
 31
0.0
  0
LWPOLYLINE
  5
DE
330
D2
100
AcDbEntity
  8
DIMENSIONS
100
AcDbPolyline
 90
        4
 70
     0
 43
0.0
 10
146.5217160118951
 20
200.3628804524735
 10
146.0217160118951
 20
203.3628804524735
 10
147.0217160118951
 20
203.3628804524735
 10
146.5217160118951
 20
200.3628804524735
  0
LINE
  5
DF
330
D2
100
AcDbEntity
  8
DIMENSIONS
100
AcDbLine
 10
146.5217160118951
 20
203.3628804524735
 30
0.0
 11
146.5217160118951
 21
222.0917643229163
 31
0.0
  0
LINE
  5
E0
330
D2
100
AcDbEntity
  8
DIMENSIONS
100
AcDbLine
 10
146.5217160118951
 20
217.269543711344
 30
0.0
 11
146.5217160118951
 21
226.9139859517411
 31
0.0
  0
HATCH
  5
E1
330
D2
100
AcDbEntity
  8
0
 62
     7
100
AcDbHatch
 10
0.0
 20
0.0
 30
0.0
210
0.0
220
0.0
230
1.0
  2
SOLID
 70
     1
 71
     0
 91
        2
 92
        0
 93
        3
 72
     1
 10
146.0217160118951
 20
247.3628804524735
 11
146.5217160118951
 21
250.3628804524735
 72
     1
 10
146.5217160118951
 20
250.3628804524735
 11
147.0217160118951
 21
247.3628804524735
 72
     1
 10
147.0217160118951
 20
247.3628804524735
 11
146.0217160118951
 21
247.3628804524735
 97
        0
 92
        0
 93
        3
 72
     1
 10
147.0217160118951
 20
203.3628804524735
 11
146.5217160118951
 21
200.3628804524735
 72
     1
 10
146.5217160118951
 20
200.3628804524735
 11
146.0217160118951
 21
203.3628804524735
 72
     1
 10
146.0217160118951
 20
203.3628804524735
 11
147.0217160118951
 21
203.3628804524735
 97
        0
 75
     0
 76
     1
 98
        0
  0
ENDBLK
  5
D4
330
D2
100
AcDbEntity
  8
0
100
AcDbBlockEnd
  0
BLOCK
  5
E4
330
E3
100
AcDbEntity
  8
0
100
AcDbBlockBegin
  2
D6
 70
     0
 10
0.0
 20
0.0
 30
0.0
  3
D6
  1

  0
MTEXT
  5
E6
330
E3
100
AcDbEntity
  8
DIMENSIONS
100
AcDbMText
 10
144.8215512169732
 20
185.5462137858069
 30
0.0
 40
2.134018756842158
 41
0.0
 71
     5
 72
     1
  1
{\fArial|b0|i0|c0|p0;44.4}{\fArial|b0|i0|c0|p0;}
 11
6.123031769111886E-17
 21
1.0
 31
0.0
 73
     1
 44
1.0
  0
MTEXT
  5
E7
330
E3
100
AcDbEntity
  8
DIMENSIONS
100
AcDbMText
 10
144.8215512169732
 20
185.5462137858069
 30
0.0
 40
2.134018756842158
 41
0.0
 71
     5
 72
     1
  1
{\fArial|b0|i0|c0|p0;}
 11
6.123031769111886E-17
 21
1.0
 31
0.0
 73
     1
 44
1.0
  0
MTEXT
  5
E8
330
E3
100
AcDbEntity
  8
DIMENSIONS
100
AcDbMText
 10
144.8215512169732
 20
185.5462137858069
 30
0.0
 40
2.134018756842158
 41
0.0
 71
     5
 72
     1
  1
{\fArial|b0|i0|c0|p0;}
 11
6.123031769111886E-17
 21
1.0
 31
0.0
 73
     1
 44
1.0
  0
MTEXT
  5
E9
330
E3
100
AcDbEntity
  8
DIMENSIONS
100
AcDbMText
 10
144.8215512169732
 20
181.6656582302513
 30
0.0
 40
2.134018756842158
 41
0.0
 71
     5
 72
     1
  1
{\fArial|b0|i0|c0|p0;}
 11
6.123031769111886E-17
 21
1.0
 31
0.0
 73
     1
 44
1.0
  0
MTEXT
  5
EA
330
E3
100
AcDbEntity
  8
DIMENSIONS
100
AcDbMText
 10
144.8215512169732
 20
189.4267693413624
 30
0.0
 40
2.134018756842158
 41
0.0
 71
     5
 72
     1
  1
{\fArial|b0|i0|c0|p0;}
 11
6.123031769111886E-17
 21
1.0
 31
0.0
 73
     1
 44
1.0
  0
LINE
  5
EB
330
E3
100
AcDbEntity
  8
DIMENSIONS
100
AcDbLine
 10
59.76456260681151
 20
170.7295475641882
 30
0.0
 11
148.5854401058621
 21
170.7295475641882
 31
0.0
  0
LINE
  5
EC
330
E3
100
AcDbEntity
  8
DIMENSIONS
100
AcDbLine
 10
59.76456260681151
 20
200.3628804524735
 30
0.0
 11
148.5854401058621
 21
200.3628804524735
 31
0.0
  0
LWPOLYLINE
  5
ED
330
E3
100
AcDbEntity
  8
DIMENSIONS
100
AcDbPolyline
 90
        4
 70
     0
 43
0.0
 10
146.5854401058621
 20
170.7295475641882
 10
146.0854401058621
 20
173.7295475641882
 10
147.0854401058621
 20
173.7295475641882
 10
146.5854401058621
 20
170.7295475641882
  0
LINE
  5
EE
330
E3
100
AcDbEntity
  8
DIMENSIONS
100
AcDbLine
 10
146.5854401058621
 20
173.7295475641882
 30
0.0
 11
146.5854401058621
 21
185.5462137858069
 31
0.0
  0
LWPOLYLINE
  5
EF
330
E3
100
AcDbEntity
  8
DIMENSIONS
100
AcDbPolyline
 90
        4
 70
     0
 43
0.0
 10
146.5854401058621
 20
200.3628804524735
 10
147.0854401058621
 20
197.3628804524735
 10
146.0854401058621
 20
197.3628804524735
 10
146.5854401058621
 20
200.3628804524735
  0
LINE
  5
F0
330
E3
100
AcDbEntity
  8
DIMENSIONS
100
AcDbLine
 10
146.5854401058621
 20
197.3628804524735
 30
0.0
 11
146.5854401058621
 21
185.5462137858069
 31
0.0
  0
LINE
  5
F1
330
E3
100
AcDbEntity
  8
DIMENSIONS
100
AcDbLine
 10
146.5854401058621
 20
191.7795464833573
 30
0.0
 11
146.5854401058621
 21
179.3128799438472
 31
0.0
  0
HATCH
  5
F2
330
E3
100
AcDbEntity
  8
0
 62
     7
100
AcDbHatch
 10
0.0
 20
0.0
 30
0.0
210
0.0
220
0.0
230
1.0
  2
SOLID
 70
     1
 71
     0
 91
        2
 92
        0
 93
        3
 72
     1
 10
147.0854401058621
 20
173.7295475641882
 11
146.5854401058621
 21
170.7295475641882
 72
     1
 10
146.5854401058621
 20
170.7295475641882
 11
146.0854401058621
 21
173.7295475641882
 72
     1
 10
146.0854401058621
 20
173.7295475641882
 11
147.0854401058621
 21
173.7295475641882
 97
        0
 92
        0
 93
        3
 72
     1
 10
146.0854401058621
 20
197.3628804524735
 11
146.5854401058621
 21
200.3628804524735
 72
     1
 10
146.5854401058621
 20
200.3628804524735
 11
147.0854401058621
 21
197.3628804524735
 72
     1
 10
147.0854401058621
 20
197.3628804524735
 11
146.0854401058621
 21
197.3628804524735
 97
        0
 75
     0
 76
     1
 98
        0
  0
ENDBLK
  5
E5
330
E3
100
AcDbEntity
  8
0
100
AcDbBlockEnd
  0
BLOCK
  5
F5
330
F4
100
AcDbEntity
  8
0
100
AcDbBlockBegin
  2
D7
 70
     0
 10
0.0
 20
0.0
 30
0.0
  3
D7
  1

  0
MTEXT
  5
F7
330
F4
100
AcDbEntity
  8
DIMENSIONS
100
AcDbMText
 10
46.41838836669925
 20
259.5517883300777
 30
0.0
 40
2.134018756842158
 41
0.0
 71
     5
 72
     1
  1
{\fArial|b0|i0|c0|p0;4.7}{\fArial|b0|i0|c0|p0;}
 73
     1
 44
1.0
  0
MTEXT
  5
F8
330
F4
100
AcDbEntity
  8
DIMENSIONS
100
AcDbMText
 10
46.41838836669925
 20
259.5517883300777
 30
0.0
 40
2.134018756842158
 41
0.0
 71
     5
 72
     1
  1
{\fArial|b0|i0|c0|p0;}
 73
     1
 44
1.0
  0
MTEXT
  5
F9
330
F4
100
AcDbEntity
  8
DIMENSIONS
100
AcDbMText
 10
46.41838836669925
 20
259.5517883300777
 30
0.0
 40
2.134018756842158
 41
0.0
 71
     5
 72
     1
  1
{\fArial|b0|i0|c0|p0;}
 73
     1
 44
1.0
  0
MTEXT
  5
FA
330
F4
100
AcDbEntity
  8
DIMENSIONS
100
AcDbMText
 10
43.41977725558814
 20
259.5517883300777
 30
0.0
 40
2.134018756842158
 41
0.0
 71
     5
 72
     1
  1
{\fArial|b0|i0|c0|p0;}
 73
     1
 44
1.0
  0
MTEXT
  5
FB
330
F4
100
AcDbEntity
  8
DIMENSIONS
100
AcDbMText
 10
49.41699947781036
 20
259.5517883300777
 30
0.0
 40
2.134018756842158
 41
0.0
 71
     5
 72
     1
  1
{\fArial|b0|i0|c0|p0;}
 73
     1
 44
1.0
  0
LINE
  5
FC
330
F4
100
AcDbEntity
  8
DIMENSIONS
100
AcDbLine
 10
54.59789657592777
 20
249.0295471191402
 30
0.0
 11
54.59789657592777
 21
259.7878994411889
 31
0.0
  0
LINE
  5
FD
330
F4
100
AcDbEntity
  8
DIMENSIONS
100
AcDbLine
 10
57.76456260681151
 20
202.3628804524735
 30
0.0
 11
57.76456260681151
 21
259.7878994411889
 31
0.0
  0
LWPOLYLINE
  5
FE
330
F4
100
AcDbEntity
  8
DIMENSIONS
100
AcDbPolyline
 90
        4
 70
     0
 43
0.0
 10
54.59789657592776
 20
257.7878994411889
 10
51.59789657592776
 20
257.2878994411889
 10
51.59789657592776
 20
258.2878994411889
 10
54.59789657592776
 20
257.7878994411889
  0
LINE
  5
FF
330
F4
100
AcDbEntity
  8
DIMENSIONS
100
AcDbLine
 10
51.59789657592777
 20
257.7878994411889
 30
0.0
 11
46.41838836669925
 21
257.7878994411889
 31
0.0
  0
LWPOLYLINE
  5
100
330
F4
100
AcDbEntity
  8
DIMENSIONS
100
AcDbPolyline
 90
        4
 70
     0
 43
0.0
 10
57.76456260681151
 20
257.7878994411889
 10
60.76456260681151
 20
258.2878994411889
 10
60.76456260681151
 20
257.2878994411889
 10
57.76456260681151
 20
257.7878994411889
  0
LINE
  5
101
330
F4
100
AcDbEntity
  8
DIMENSIONS
100
AcDbLine
 10
60.76456260681151
 20
257.7878994411889
 30
0.0
 11
61.3645626068115
 21
257.7878994411889
 31
0.0
  0
LINE
  5
102
330
F4
100
AcDbEntity
  8
DIMENSIONS
100
AcDbLine
 10
51.41700045267742
 20
257.7878994411889
 30
0.0
 11
40.71422131856284
 21
257.7878994411889
 31
0.0
  0
HATCH
  5
103
330
F4
100
AcDbEntity
  8
0
 62
     7
100
AcDbHatch
 10
0.0
 20
0.0
 30
0.0
210
0.0
220
0.0
230
1.0
  2
SOLID
 70
     1
 71
     0
 91
        2
 92
        0
 93
        3
 72
     1
 10
51.59789657592776
 20
258.2878994411889
 11
54.59789657592776
 21
257.7878994411889
 72
     1
 10
54.59789657592776
 20
257.7878994411889
 11
51.59789657592776
 21
257.2878994411889
 72
     1
 10
51.59789657592776
 20
257.2878994411889
 11
51.59789657592776
 21
258.2878994411889
 97
        0
 92
        0
 93
        3
 72
     1
 10
60.76456260681151
 20
257.2878994411889
 11
57.76456260681151
 21
257.7878994411889
 72
     1
 10
57.76456260681151
 20
257.7878994411889
 11
60.76456260681151
 21
258.2878994411889
 72
     1
 10
60.76456260681151
 20
258.2878994411889
 11
60.76456260681151
 21
257.2878994411889
 97
        0
 75
     0
 76
     1
 98
        0
  0
ENDBLK
  5
F6
330
F4
100
AcDbEntity
  8
0
100
AcDbBlockEnd
  0
BLOCK
  5
106
330
105
100
AcDbEntity
  8
0
100
AcDbBlockBegin
  2
D8
 70
     0
 10
0.0
 20
0.0
 30
0.0
  3
D8
  1

  0
MTEXT
  5
108
330
105
100
AcDbEntity
  8
DIMENSIONS
100
AcDbMText
 10
84.38737487792974
 20
259.5702362060543
 30
0.0
 40
2.134018756842158
 41
0.0
 71
     5
 72
     1
  1
{\fArial|b0|i0|c0|p0;95.3}{\fArial|b0|i0|c0|p0;}
 73
     1
 44
1.0
  0
MTEXT
  5
109
330
105
100
AcDbEntity
  8
DIMENSIONS
100
AcDbMText
 10
84.38737487792974
 20
259.5702362060543
 30
0.0
 40
2.134018756842158
 41
0.0
 71
     5
 72
     1
  1
{\fArial|b0|i0|c0|p0;}
 73
     1
 44
1.0
  0
MTEXT
  5
10A
330
105
100
AcDbEntity
  8
DIMENSIONS
100
AcDbMText
 10
84.38737487792974
 20
259.5702362060543
 30
0.0
 40
2.134018756842158
 41
0.0
 71
     5
 72
     1
  1
{\fArial|b0|i0|c0|p0;}
 73
     1
 44
1.0
  0
MTEXT
  5
10B
330
105
100
AcDbEntity
  8
DIMENSIONS
100
AcDbMText
 10
80.50681932237418
 20
259.5702362060543
 30
0.0
 40
2.134018756842158
 41
0.0
 71
     5
 72
     1
  1
{\fArial|b0|i0|c0|p0;}
 73
     1
 44
1.0
  0
MTEXT
  5
10C
330
105
100
AcDbEntity
  8
DIMENSIONS
100
AcDbMText
 10
88.2679304334853
 20
259.5702362060543
 30
0.0
 40
2.134018756842158
 41
0.0
 71
     5
 72
     1
  1
{\fArial|b0|i0|c0|p0;}
 73
     1
 44
1.0
  0
LINE
  5
10D
330
105
100
AcDbEntity
  8
DIMENSIONS
100
AcDbLine
 10
57.76456260681151
 20
202.3628804524735
 30
0.0
 11
57.76456260681151
 21
259.8063473171654
 31
0.0
  0
LINE
  5
10E
330
105
100
AcDbEntity
  8
DIMENSIONS
100
AcDbLine
 10
121.2645632425944
 20
202.3628804524735
 30
0.0
 11
121.2645632425944
 21
259.8063473171654
 31
0.0
  0
LWPOLYLINE
  5
10F
330
105
100
AcDbEntity
  8
DIMENSIONS
100
AcDbPolyline
 90
        4
 70
     0
 43
0.0
 10
57.76456260681151
 20
257.8063473171654
 10
60.76456260681151
 20
258.3063473171654
 10
60.76456260681151
 20
257.3063473171654
 10
57.76456260681151
 20
257.8063473171654
  0
LINE
  5
110
330
105
100
AcDbEntity
  8
DIMENSIONS
100
AcDbLine
 10
60.76456260681151
 20
257.8063473171654
 30
0.0
 11
84.38737487792974
 21
257.8063473171654
 31
0.0
  0
LWPOLYLINE
  5
111
330
105
100
AcDbEntity
  8
DIMENSIONS
100
AcDbPolyline
 90
        4
 70
     0
 43
0.0
 10
121.2645632425944
 20
257.8063473171654
 10
118.2645632425944
 20
257.3063473171654
 10
118.2645632425944
 20
258.3063473171654
 10
121.2645632425944
 20
257.8063473171654
  0
LINE
  5
112
330
105
100
AcDbEntity
  8
DIMENSIONS
100
AcDbLine
 10
118.2645632425944
 20
257.8063473171654
 30
0.0
 11
84.38737487792974
 21
257.8063473171654
 31
0.0
  0
LINE
  5
113
330
105
100
AcDbEntity
  8
DIMENSIONS
100
AcDbLine
 10
90.26793018976848
 20
257.8063473171654
 30
0.0
 11
77.80126365025839
 21
257.8063473171654
 31
0.0
  0
HATCH
  5
114
330
105
100
AcDbEntity
  8
0
 62
     7
100
AcDbHatch
 10
0.0
 20
0.0
 30
0.0
210
0.0
220
0.0
230
1.0
  2
SOLID
 70
     1
 71
     0
 91
        2
 92
        0
 93
        3
 72
     1
 10
60.76456260681151
 20
257.3063473171654
 11
57.76456260681151
 21
257.8063473171654
 72
     1
 10
57.76456260681151
 20
257.8063473171654
 11
60.76456260681151
 21
258.3063473171654
 72
     1
 10
60.76456260681151
 20
258.3063473171654
 11
60.76456260681151
 21
257.3063473171654
 97
        0
 92
        0
 93
        3
 72
     1
 10
118.2645632425944
 20
258.3063473171654
 11
121.2645632425944
 21
257.8063473171654
 72
     1
 10
121.2645632425944
 20
257.8063473171654
 11
118.2645632425944
 21
257.3063473171654
 72
     1
 10
118.2645632425944
 20
257.3063473171654
 11
118.2645632425944
 21
258.3063473171654
 97
        0
 75
     0
 76
     1
 98
        0
  0
ENDBLK
  5
107
330
105
100
AcDbEntity
  8
0
100
AcDbBlockEnd
  0
BLOCK
  5
117
330
116
100
AcDbEntity
  8
0
100
AcDbBlockBegin
  2
D9
 70
     0
 10
0.0
 20
0.0
 30
0.0
  3
D9
  1

  0
MTEXT
  5
119
330
116
100
AcDbEntity
  8
DIMENSIONS
100
AcDbMText
 10
57.93122951189677
 20
266.2344631618919
 30
0.0
 40
2.134018756842158
 41
0.0
 71
     5
 72
     1
  1
{\fArial|b0|i0|c0|p0;10}{\fArial|b0|i0|c0|p0;}
 73
     1
 44
1.0
  0
MTEXT
  5
11A
330
116
100
AcDbEntity
  8
DIMENSIONS
100
AcDbMText
 10
57.93122951189677
 20
266.2344631618919
 30
0.0
 40
2.134018756842158
 41
0.0
 71
     5
 72
     1
  1
{\fArial|b0|i0|c0|p0;}
 73
     1
 44
1.0
  0
MTEXT
  5
11B
330
116
100
AcDbEntity
  8
DIMENSIONS
100
AcDbMText
 10
57.93122951189677
 20
266.2344631618919
 30
0.0
 40
2.134018756842158
 41
0.0
 71
     5
 72
     1
  1
{\fArial|b0|i0|c0|p0;}
 73
     1
 44
1.0
  0
MTEXT
  5
11C
330
116
100
AcDbEntity
  8
DIMENSIONS
100
AcDbMText
 10
55.46178506745233
 20
266.2344631618919
 30
0.0
 40
2.134018756842158
 41
0.0
 71
     5
 72
     1
  1
{\fArial|b0|i0|c0|p0;}
 73
     1
 44
1.0
  0
MTEXT
  5
11D
330
116
100
AcDbEntity
  8
DIMENSIONS
100
AcDbMText
 10
60.40067395634121
 20
266.2344631618919
 30
0.0
 40
2.134018756842158
 41
0.0
 71
     5
 72
     1
  1
{\fArial|b0|i0|c0|p0;}
 73
     1
 44
1.0
  0
LINE
  5
11E
330
116
100
AcDbEntity
  8
DIMENSIONS
100
AcDbLine
 10
61.26456244786583
 20
129.0295471191403
 30
0.0
 11
61.26456244786583
 21
266.470574273003
 31
0.0
  0
LINE
  5
11F
330
116
100
AcDbEntity
  8
DIMENSIONS
100
AcDbLine
 10
54.59789657592777
 20
249.0295471191402
 30
0.0
 11
54.59789657592777
 21
266.470574273003
 31
0.0
  0
LWPOLYLINE
  5
120
330
116
100
AcDbEntity
  8
DIMENSIONS
100
AcDbPolyline
 90
        4
 70
     0
 43
0.0
 10
61.26456244786583
 20
264.470574273003
 10
64.26456244786583
 20
264.970574273003
 10
64.26456244786583
 20
263.970574273003
 10
61.26456244786583
 20
264.470574273003
  0
LINE
  5
121
330
116
100
AcDbEntity
  8
DIMENSIONS
100
AcDbLine
 10
64.26456244786584
 20
264.470574273003
 30
0.0
 11
64.86456244786584
 21
264.470574273003
 31
0.0
  0
LWPOLYLINE
  5
122
330
116
100
AcDbEntity
  8
DIMENSIONS
100
AcDbPolyline
 90
        4
 70
     0
 43
0.0
 10
54.59789657592776
 20
264.470574273003
 10
51.59789657592776
 20
263.970574273003
 10
51.59789657592776
 20
264.970574273003
 10
54.59789657592776
 20
264.470574273003
  0
LINE
  5
123
330
116
100
AcDbEntity
  8
DIMENSIONS
100
AcDbLine
 10
51.59789657592777
 20
264.470574273003
 30
0.0
 11
50.99789657592777
 21
264.470574273003
 31
0.0
  0
LINE
  5
124
330
116
100
AcDbEntity
  8
DIMENSIONS
100
AcDbLine
 10
52.7562287648519
 20
264.470574273003
 30
0.0
 11
62.40067418416342
 21
264.470574273003
 31
0.0
  0
HATCH
  5
125
330
116
100
AcDbEntity
  8
0
 62
     7
100
AcDbHatch
 10
0.0
 20
0.0
 30
0.0
210
0.0
220
0.0
230
1.0
  2
SOLID
 70
     1
 71
     0
 91
        2
 92
        0
 93
        3
 72
     1
 10
64.26456244786583
 20
263.970574273003
 11
61.26456244786583
 21
264.470574273003
 72
     1
 10
61.26456244786583
 20
264.470574273003
 11
64.26456244786583
 21
264.970574273003
 72
     1
 10
64.26456244786583
 20
264.970574273003
 11
64.26456244786583
 21
263.970574273003
 97
        0
 92
        0
 93
        3
 72
     1
 10
51.59789657592776
 20
264.970574273003
 11
54.59789657592776
 21
264.470574273003
 72
     1
 10
54.59789657592776
 20
264.470574273003
 11
51.59789657592776
 21
263.970574273003
 72
     1
 10
51.59789657592776
 20
263.970574273003
 11
51.59789657592776
 21
264.970574273003
 97
        0
 75
     0
 76
     1
 98
        0
  0
ENDBLK
  5
118
330
116
100
AcDbEntity
  8
0
100
AcDbBlockEnd
  0
BLOCK
  5
128
330
127
100
AcDbEntity
  8
0
100
AcDbBlockBegin
  2
D10
 70
     0
 10
0.0
 20
0.0
 30
0.0
  3
D10
  1

  0
MTEXT
  5
12A
330
127
100
AcDbEntity
  8
DIMENSIONS
100
AcDbMText
 10
75.83392333984378
 20
266.2276611328121
 30
0.0
 40
2.134018756842158
 41
0.0
 71
     5
 72
     1
  1
{\fArial|b0|i0|c0|p0;50}{\fArial|b0|i0|c0|p0;}
 73
     1
 44
1.0
  0
MTEXT
  5
12B
330
127
100
AcDbEntity
  8
DIMENSIONS
100
AcDbMText
 10
75.83392333984378
 20
266.2276611328121
 30
0.0
 40
2.134018756842158
 41
0.0
 71
     5
 72
     1
  1
{\fArial|b0|i0|c0|p0;}
 73
     1
 44
1.0
  0
MTEXT
  5
12C
330
127
100
AcDbEntity
  8
DIMENSIONS
100
AcDbMText
 10
75.83392333984378
 20
266.2276611328121
 30
0.0
 40
2.134018756842158
 41
0.0
 71
     5
 72
     1
  1
{\fArial|b0|i0|c0|p0;}
 73
     1
 44
1.0
  0
MTEXT
  5
12D
330
127
100
AcDbEntity
  8
DIMENSIONS
100
AcDbMText
 10
73.36447889539933
 20
266.2276611328121
 30
0.0
 40
2.134018756842158
 41
0.0
 71
     5
 72
     1
  1
{\fArial|b0|i0|c0|p0;}
 73
     1
 44
1.0
  0
MTEXT
  5
12E
330
127
100
AcDbEntity
  8
DIMENSIONS
100
AcDbMText
 10
78.30336778428823
 20
266.2276611328121
 30
0.0
 40
2.134018756842158
 41
0.0
 71
     5
 72
     1
  1
{\fArial|b0|i0|c0|p0;}
 73
     1
 44
1.0
  0
LINE
  5
12F
330
127
100
AcDbEntity
  8
DIMENSIONS
100
AcDbLine
 10
94.59789657592778
 20
129.0295471191403
 30
0.0
 11
94.59789657592778
 21
266.4637722439232
 31
0.0
  0
LINE
  5
130
330
127
100
AcDbEntity
  8
DIMENSIONS
100
AcDbLine
 10
61.26456244786583
 20
129.0295471191403
 30
0.0
 11
61.26456244786583
 21
266.4637722439232
 31
0.0
  0
LWPOLYLINE
  5
131
330
127
100
AcDbEntity
  8
DIMENSIONS
100
AcDbPolyline
 90
        4
 70
     0
 43
0.0
 10
94.59789657592778
 20
264.4637722439232
 10
91.59789657592778
 20
263.9637722439232
 10
91.59789657592778
 20
264.9637722439232
 10
94.59789657592778
 20
264.4637722439232
  0
LINE
  5
132
330
127
100
AcDbEntity
  8
DIMENSIONS
100
AcDbLine
 10
91.59789657592778
 20
264.4637722439232
 30
0.0
 11
75.83392333984378
 21
264.4637722439232
 31
0.0
  0
LWPOLYLINE
  5
133
330
127
100
AcDbEntity
  8
DIMENSIONS
100
AcDbPolyline
 90
        4
 70
     0
 43
0.0
 10
61.26456244786583
 20
264.4637722439232
 10
64.26456244786583
 20
264.9637722439232
 10
64.26456244786583
 20
263.9637722439232
 10
61.26456244786583
 20
264.4637722439232
  0
LINE
  5
134
330
127
100
AcDbEntity
  8
DIMENSIONS
100
AcDbLine
 10
64.26456244786584
 20
264.4637722439232
 30
0.0
 11
75.83392333984378
 21
264.4637722439232
 31
0.0
  0
LINE
  5
135
330
127
100
AcDbEntity
  8
DIMENSIONS
100
AcDbLine
 10
70.65892410278322
 20
264.4637722439232
 30
0.0
 11
80.30336872736613
 21
264.4637722439232
 31
0.0
  0
HATCH
  5
136
330
127
100
AcDbEntity
  8
0
 62
     7
100
AcDbHatch
 10
0.0
 20
0.0
 30
0.0
210
0.0
220
0.0
230
1.0
  2
SOLID
 70
     1
 71
     0
 91
        2
 92
        0
 93
        3
 72
     1
 10
91.59789657592778
 20
264.9637722439232
 11
94.59789657592778
 21
264.4637722439232
 72
     1
 10
94.59789657592778
 20
264.4637722439232
 11
91.59789657592778
 21
263.9637722439232
 72
     1
 10
91.59789657592778
 20
263.9637722439232
 11
91.59789657592778
 21
264.9637722439232
 97
        0
 92
        0
 93
        3
 72
     1
 10
64.26456244786583
 20
263.9637722439232
 11
61.26456244786583
 21
264.4637722439232
 72
     1
 10
61.26456244786583
 20
264.4637722439232
 11
64.26456244786583
 21
264.9637722439232
 72
     1
 10
64.26456244786583
 20
264.9637722439232
 11
64.26456244786583
 21
263.9637722439232
 97
        0
 75
     0
 76
     1
 98
        0
  0
ENDBLK
  5
129
330
127
100
AcDbEntity
  8
0
100
AcDbBlockEnd
  0
BLOCK
  5
139
330
138
100
AcDbEntity
  8
0
100
AcDbBlockBegin
  2
D11
 70
     0
 10
0.0
 20
0.0
 30
0.0
  3
D11
  1

  0
MTEXT
  5
13B
330
138
100
AcDbEntity
  8
DIMENSIONS
100
AcDbMText
 10
113.0487365722657
 20
111.9757919311521
 30
0.0
 40
2.134018756842158
 41
0.0
 71
     5
 72
     1
  1
{\fAlibre Symbols|b0|i0|c0|p0;n}{\fArial|b0|i0|c0|p0;\H0.95x;4}{\fMS UI Gothic|b0|i0|c0|p0;\H0.9x;}
 11
0.7050936786313869
 21
-0.709114168772602
 31
0.0
 73
     1
 44
1.0
  0
MTEXT
  5
13C
330
138
100
AcDbEntity
  8
DIMENSIONS
100
AcDbMText
 10
113.0487365722657
 20
111.9757919311521
 30
0.0
 40
2.134018756842158
 41
0.0
 71
     5
 72
     1
  1
{\fArial|b0|i0|c0|p0;}
 11
0.7050936786313869
 21
-0.709114168772602
 31
0.0
 73
     1
 44
1.0
  0
MTEXT
  5
13D
330
138
100
AcDbEntity
  8
DIMENSIONS
100
AcDbMText
 10
113.0487365722657
 20
111.9757919311521
 30
0.0
 40
2.134018756842158
 41
0.0
 71
     5
 72
     1
  1
{\fArial|b0|i0|c0|p0;}
 11
0.7050936786313869
 21
-0.709114168772602
 31
0.0
 73
     1
 44
1.0
  0
MTEXT
  5
13E
330
138
100
AcDbEntity
  8
DIMENSIONS
100
AcDbMText
 10
110.9344348331474
 20
114.1021495566799
 30
0.0
 40
2.134018756842158
 41
0.0
 71
     5
 72
     1
  1
{\fArial|b0|i0|c0|p0;8-}{\fArial|b0|i0|c0|p0;}
 11
0.7050936786313869
 21
-0.709114168772602
 31
0.0
 73
     1
 44
1.0
  0
MTEXT
  5
13F
330
138
100
AcDbEntity
  8
DIMENSIONS
100
AcDbMText
 10
115.1630383113839
 20
109.8494343056242
 30
0.0
 40
2.134018756842158
 41
0.0
 71
     5
 72
     1
  1
{\fArial|b0|i0|c0|p0;}
 11
0.7050936786313869
 21
-0.709114168772602
 31
0.0
 73
     1
 44
1.0
  0
LWPOLYLINE
  5
140
330
138
100
AcDbEntity
  8
DIMENSIONS
100
AcDbPolyline
 90
        4
 70
     0
 43
0.0
 10
95.53802148076961
 20
126.0840615607769
 10
98.00785960105009
 20
124.3092658937748
 10
97.29874543227749
 20
123.6041722151434
 10
95.53802148076961
 20
126.0840615607769
  0
LINE
  5
141
330
138
100
AcDbEntity
  8
DIMENSIONS
100
AcDbLine
 10
97.65330251666379
 20
123.9567190544591
 30
0.0
 11
115.8170733351714
 21
105.6893772301174
 31
0.0
  0
LWPOLYLINE
  5
142
330
138
100
AcDbEntity
  8
DIMENSIONS
100
AcDbPolyline
 90
        4
 70
     0
 43
0.0
 10
93.65777167108594
 20
127.9750326775038
 10
91.18793355080547
 20
129.7498283445059
 10
91.89704771957807
 20
130.4549220231373
 10
93.65777167108594
 20
127.9750326775038
  0
LINE
  5
143
330
138
100
AcDbEntity
  8
DIMENSIONS
100
AcDbLine
 10
91.54249063519177
 20
130.1023751838216
 30
0.0
 11
91.11943442801294
 21
130.5278436850852
 31
0.0
  0
LINE
  5
144
330
138
100
AcDbEntity
  8
DIMENSIONS
100
AcDbLine
 10
90.0753091176351
 20
201.545303090413
 30
0.0
 11
90.0753091176351
 21
201.545303090413
 31
0.0
  0
LWPOLYLINE
  5
145
330
138
100
AcDbEntity
  8
DIMENSIONS
100
AcDbPolyline
 90
        5
 70
     0
 43
0.0
 10
90.0753091176351
 20
201.545303090413
 10
90.0753091176351
 20
201.545303090413
 10
90.0753091176351
 20
201.545303090413
 10
90.0753091176351
 20
201.545303090413
 10
90.0753091176351
 20
201.545303090413
  0
HATCH
  5
146
330
138
100
AcDbEntity
  8
0
 62
     7
100
AcDbHatch
 10
0.0
 20
0.0
 30
0.0
210
0.0
220
0.0
230
1.0
  2
SOLID
 70
     1
 71
     0
 91
        2
 92
        0
 93
        3
 72
     1
 10
97.29874543227749
 20
123.6041722151434
 11
95.53802148076961
 21
126.0840615607769
 72
     1
 10
95.53802148076961
 20
126.0840615607769
 11
98.00785960105009
 21
124.3092658937748
 72
     1
 10
98.00785960105009
 20
124.3092658937748
 11
97.29874543227749
 21
123.6041722151434
 97
        0
 92
        0
 93
        3
 72
     1
 10
91.89704771957807
 20
130.4549220231373
 11
93.65777167108594
 21
127.9750326775038
 72
     1
 10
93.65777167108594
 20
127.9750326775038
 11
91.18793355080547
 21
129.7498283445059
 72
     1
 10
91.18793355080547
 20
129.7498283445059
 11
91.89704771957807
 21
130.4549220231373
 97
        0
 75
     0
 76
     1
 98
        0
  0
ENDBLK
  5
13A
330
138
100
AcDbEntity
  8
0
100
AcDbBlockEnd
  0
BLOCK
  5
157
330
156
100
AcDbEntity
  8
0
100
AcDbBlockBegin
  2
D12
 70
     0
 10
0.0
 20
0.0
 30
0.0
  3
D12
  1

  0
MTEXT
  5
159
330
156
100
AcDbEntity
  8
DIMENSIONS
100
AcDbMText
 10
174.6377716064456
 20
113.1196136474603
 30
0.0
 40
2.134018756842158
 41
0.0
 71
     5
 72
     1
  1
{\fArial|b0|i0|c0|p0;15}{\fArial|b0|i0|c0|p0;}
 73
     1
 44
1.0
  0
MTEXT
  5
15A
330
156
100
AcDbEntity
  8
DIMENSIONS
100
AcDbMText
 10
174.6377716064456
 20
113.1196136474603
 30
0.0
 40
2.134018756842158
 41
0.0
 71
     5
 72
     1
  1
{\fArial|b0|i0|c0|p0;}
 73
     1
 44
1.0
  0
MTEXT
  5
15B
330
156
100
AcDbEntity
  8
DIMENSIONS
100
AcDbMText
 10
174.6377716064456
 20
113.1196136474603
 30
0.0
 40
2.134018756842158
 41
0.0
 71
     5
 72
     1
  1
{\fArial|b0|i0|c0|p0;}
 73
     1
 44
1.0
  0
MTEXT
  5
15C
330
156
100
AcDbEntity
  8
DIMENSIONS
100
AcDbMText
 10
172.1683271620012
 20
113.1196136474603
 30
0.0
 40
2.134018756842158
 41
0.0
 71
     5
 72
     1
  1
{\fArial|b0|i0|c0|p0;(}{\fArial|b0|i0|c0|p0;}
 73
     1
 44
1.0
  0
MTEXT
  5
15D
330
156
100
AcDbEntity
  8
DIMENSIONS
100
AcDbMText
 10
177.1072160508901
 20
113.1196136474603
 30
0.0
 40
2.134018756842158
 41
0.0
 71
     5
 72
     1
  1
{\fArial|b0|i0|c0|p0;)}{\fArial|b0|i0|c0|p0;}
 73
     1
 44
1.0
  0
LINE
  5
15E
330
156
100
AcDbEntity
  8
DIMENSIONS
100
AcDbLine
 10
178.4574771881107
 20
118.3628804524737
 30
0.0
 11
178.4574771881107
 21
109.3557247585715
 31
0.0
  0
LINE
  5
15F
330
156
100
AcDbEntity
  8
DIMENSIONS
100
AcDbLine
 10
168.4574771881107
 20
120.6628804524737
 30
0.0
 11
168.4574771881107
 21
109.3557247585715
 31
0.0
  0
LWPOLYLINE
  5
160
330
156
100
AcDbEntity
  8
DIMENSIONS
100
AcDbPolyline
 90
        4
 70
     0
 43
0.0
 10
178.4574771881107
 20
111.3557247585715
 10
175.4574771881107
 20
110.8557247585715
 10
175.4574771881107
 20
111.8557247585715
 10
178.4574771881107
 20
111.3557247585715
  0
LINE
  5
161
330
156
100
AcDbEntity
  8
DIMENSIONS
100
AcDbLine
 10
175.4574771881107
 20
111.3557247585715
 30
0.0
 11
174.6377716064456
 21
111.3557247585714
 31
0.0
  0
LWPOLYLINE
  5
162
330
156
100
AcDbEntity
  8
DIMENSIONS
100
AcDbPolyline
 90
        4
 70
     0
 43
0.0
 10
168.4574771881107
 20
111.3557247585715
 10
171.4574771881107
 20
111.8557247585715
 10
171.4574771881107
 20
110.8557247585714
 10
168.4574771881107
 20
111.3557247585715
  0
LINE
  5
163
330
156
100
AcDbEntity
  8
DIMENSIONS
100
AcDbLine
 10
171.4574771881107
 20
111.3557247585715
 30
0.0
 11
174.6377716064456
 21
111.3557247585714
 31
0.0
  0
LINE
  5
164
330
156
100
AcDbEntity
  8
DIMENSIONS
100
AcDbLine
 10
169.1099938233696
 20
111.3557247585715
 30
0.0
 11
180.1655494054162
 21
111.3557247585715
 31
0.0
  0
HATCH
  5
165
330
156
100
AcDbEntity
  8
0
 62
     7
100
AcDbHatch
 10
0.0
 20
0.0
 30
0.0
210
0.0
220
0.0
230
1.0
  2
SOLID
 70
     1
 71
     0
 91
        2
 92
        0
 93
        3
 72
     1
 10
175.4574771881107
 20
111.8557247585715
 11
178.4574771881107
 21
111.3557247585715
 72
     1
 10
178.4574771881107
 20
111.3557247585715
 11
175.4574771881107
 21
110.8557247585715
 72
     1
 10
175.4574771881107
 20
110.8557247585715
 11
175.4574771881107
 21
111.8557247585715
 97
        0
 92
        0
 93
        3
 72
     1
 10
171.4574771881107
 20
110.8557247585714
 11
168.4574771881107
 21
111.3557247585715
 72
     1
 10
168.4574771881107
 20
111.3557247585715
 11
171.4574771881107
 21
111.8557247585715
 72
     1
 10
171.4574771881107
 20
111.8557247585715
 11
171.4574771881107
 21
110.8557247585714
 97
        0
 75
     0
 76
     1
 98
        0
  0
ENDBLK
  5
158
330
156
100
AcDbEntity
  8
0
100
AcDbBlockEnd
  0
BLOCK
  5
17A
330
179
100
AcDbEntity
  8
0
100
AcDbBlockBegin
  2
D13
 70
     0
 10
0.0
 20
0.0
 30
0.0
  3
D13
  1

  0
MTEXT
  5
17C
330
179
100
AcDbEntity
  8
DIMENSIONS
100
AcDbMText
 10
34.89360046386717
 20
92.59661102294923
 30
0.0
 40
2.134018756842158
 41
0.0
 71
     5
 72
     1
  1
{\fArial|b0|i0|c0|p0;15}{\fArial|b0|i0|c0|p0;}
 11
6.123031769111886E-17
 21
1.0
 31
0.0
 73
     1
 44
1.0
  0
MTEXT
  5
17D
330
179
100
AcDbEntity
  8
DIMENSIONS
100
AcDbMText
 10
34.89360046386717
 20
92.59661102294923
 30
0.0
 40
2.134018756842158
 41
0.0
 71
     5
 72
     1
  1
{\fArial|b0|i0|c0|p0;}
 11
6.123031769111886E-17
 21
1.0
 31
0.0
 73
     1
 44
1.0
  0
MTEXT
  5
17E
330
179
100
AcDbEntity
  8
DIMENSIONS
100
AcDbMText
 10
34.89360046386717
 20
92.59661102294923
 30
0.0
 40
2.134018756842158
 41
0.0
 71
     5
 72
     1
  1
{\fArial|b0|i0|c0|p0;}
 11
6.123031769111886E-17
 21
1.0
 31
0.0
 73
     1
 44
1.0
  0
MTEXT
  5
17F
330
179
100
AcDbEntity
  8
DIMENSIONS
100
AcDbMText
 10
34.89360046386717
 20
90.12716657850478
 30
0.0
 40
2.134018756842158
 41
0.0
 71
     5
 72
     1
  1
{\fArial|b0|i0|c0|p0;}
 11
6.123031769111886E-17
 21
1.0
 31
0.0
 73
     1
 44
1.0
  0
MTEXT
  5
180
330
179
100
AcDbEntity
  8
DIMENSIONS
100
AcDbMText
 10
34.89360046386717
 20
95.06605546739368
 30
0.0
 40
2.134018756842158
 41
0.0
 71
     5
 72
     1
  1
{\fArial|b0|i0|c0|p0;}
 11
6.123031769111886E-17
 21
1.0
 31
0.0
 73
     1
 44
1.0
  0
LINE
  5
181
330
179
100
AcDbEntity
  8
DIMENSIONS
100
AcDbLine
 10
55.93122990926111
 20
98.05202636718745
 30
0.0
 11
34.65748935275607
 21
98.05202636718745
 31
0.0
  0
LINE
  5
182
330
179
100
AcDbEntity
  8
DIMENSIONS
100
AcDbLine
 10
55.93122990926111
 20
88.05202636718744
 30
0.0
 11
34.65748935275607
 21
88.05202636718744
 31
0.0
  0
LWPOLYLINE
  5
183
330
179
100
AcDbEntity
  8
DIMENSIONS
100
AcDbPolyline
 90
        4
 70
     0
 43
0.0
 10
36.65748935275607
 20
98.05202636718745
 10
37.15748935275607
 20
95.05202636718745
 10
36.15748935275606
 20
95.05202636718745
 10
36.65748935275607
 20
98.05202636718745
  0
LINE
  5
184
330
179
100
AcDbEntity
  8
DIMENSIONS
100
AcDbLine
 10
36.65748935275607
 20
95.05202636718745
 30
0.0
 11
36.65748935275607
 21
92.59661102294923
 31
0.0
  0
LWPOLYLINE
  5
185
330
179
100
AcDbEntity
  8
DIMENSIONS
100
AcDbPolyline
 90
        4
 70
     0
 43
0.0
 10
36.65748935275607
 20
88.05202636718744
 10
36.15748935275606
 20
91.05202636718744
 10
37.15748935275607
 20
91.05202636718744
 10
36.65748935275607
 20
88.05202636718744
  0
LINE
  5
186
330
179
100
AcDbEntity
  8
DIMENSIONS
100
AcDbLine
 10
36.65748935275607
 20
91.05202636718744
 30
0.0
 11
36.65748935275607
 21
92.59661102294923
 31
0.0
  0
LINE
  5
187
330
179
100
AcDbEntity
  8
DIMENSIONS
100
AcDbLine
 10
36.65748935275607
 20
87.77438833713525
 30
0.0
 11
36.65748935275607
 21
97.41883375644677
 31
0.0
  0
HATCH
  5
188
330
179
100
AcDbEntity
  8
0
 62
     7
100
AcDbHatch
 10
0.0
 20
0.0
 30
0.0
210
0.0
220
0.0
230
1.0
  2
SOLID
 70
     1
 71
     0
 91
        2
 92
        0
 93
        3
 72
     1
 10
36.15748935275606
 20
95.05202636718745
 11
36.65748935275607
 21
98.05202636718745
 72
     1
 10
36.65748935275607
 20
98.05202636718745
 11
37.15748935275607
 21
95.05202636718745
 72
     1
 10
37.15748935275607
 20
95.05202636718745
 11
36.15748935275606
 21
95.05202636718745
 97
        0
 92
        0
 93
        3
 72
     1
 10
37.15748935275607
 20
91.05202636718744
 11
36.65748935275607
 21
88.05202636718744
 72
     1
 10
36.65748935275607
 20
88.05202636718744
 11
36.15748935275606
 21
91.05202636718744
 72
     1
 10
36.15748935275606
 20
91.05202636718744
 11
37.15748935275607
 21
91.05202636718744
 97
        0
 75
     0
 76
     1
 98
        0
  0
ENDBLK
  5
17B
330
179
100
AcDbEntity
  8
0
100
AcDbBlockEnd
  0
BLOCK
  5
18B
330
18A
100
AcDbEntity
  8
0
100
AcDbBlockBegin
  2
D14
 70
     0
 10
0.0
 20
0.0
 30
0.0
  3
D14
  1

  0
MTEXT
  5
18D
330
18A
100
AcDbEntity
  8
DIMENSIONS
100
AcDbMText
 10
132.468017578125
 20
83.50032043457031
 30
0.0
 40
2.134018756842158
 41
0.0
 71
     5
 72
     1
  1
{\fArial|b0|i0|c0|p0;R5}{\fArial|b0|i0|c0|p0;}
 11
0.7368592283861262
 21
-0.6760462096204687
 31
0.0
 73
     1
 44
1.0
  0
MTEXT
  5
18E
330
18A
100
AcDbEntity
  8
DIMENSIONS
100
AcDbMText
 10
132.468017578125
 20
83.50032043457031
 30
0.0
 40
2.134018756842158
 41
0.0
 71
     5
 72
     1
  1
{\fArial|b0|i0|c0|p0;}
 11
0.7368592283861262
 21
-0.6760462096204687
 31
0.0
 73
     1
 44
1.0
  0
MTEXT
  5
18F
330
18A
100
AcDbEntity
  8
DIMENSIONS
100
AcDbMText
 10
132.468017578125
 20
83.50032043457031
 30
0.0
 40
2.134018756842158
 41
0.0
 71
     5
 72
     1
  1
{\fArial|b0|i0|c0|p0;}
 11
0.7368592283861262
 21
-0.6760462096204687
 31
0.0
 73
     1
 44
1.0
  0
MTEXT
  5
190
330
18A
100
AcDbEntity
  8
DIMENSIONS
100
AcDbMText
 10
130.3884370891242
 20
85.4082730706103
 30
0.0
 40
2.134018756842158
 41
0.0
 71
     5
 72
     1
  1
{\fArial|b0|i0|c0|p0;4-}{\fArial|b0|i0|c0|p0;}
 11
0.7368592283861262
 21
-0.6760462096204687
 31
0.0
 73
     1
 44
1.0
  0
MTEXT
  5
191
330
18A
100
AcDbEntity
  8
DIMENSIONS
100
AcDbMText
 10
134.5475980671259
 20
81.59236779853032
 30
0.0
 40
2.134018756842158
 41
0.0
 71
     5
 72
     1
  1
{\fArial|b0|i0|c0|p0;}
 11
0.7368592283861262
 21
-0.6760462096204687
 31
0.0
 73
     1
 44
1.0
  0
LINE
  5
192
330
18A
100
AcDbEntity
  8
DIMENSIONS
100
AcDbLine
 10
125.924933337711
 20
87.10961183980777
 30
0.0
 11
135.8686363240253
 21
77.98656129862572
 31
0.0
  0
LWPOLYLINE
  5
193
330
18A
100
AcDbEntity
  8
DIMENSIONS
100
AcDbPolyline
 90
        4
 70
     0
 43
0.0
 10
123.7207276336025
 20
89.13190291563069
 10
126.2693290171251
 20
87.47219481240688
 10
125.5932830710242
 20
86.7353353422495
 10
123.7207276336025
 20
89.13190291563069
  0
LINE
  5
194
330
18A
100
AcDbEntity
  8
DIMENSIONS
100
AcDbLine
 10
90.0753091176351
 20
96.5186930338541
 30
0.0
 11
90.0753091176351
 21
96.5186930338541
 31
0.0
  0
LWPOLYLINE
  5
195
330
18A
100
AcDbEntity
  8
DIMENSIONS
100
AcDbPolyline
 90
        5
 70
     0
 43
0.0
 10
90.0753091176351
 20
96.5186930338541
 10
90.0753091176351
 20
96.5186930338541
 10
90.0753091176351
 20
96.5186930338541
 10
90.0753091176351
 20
96.5186930338541
 10
90.0753091176351
 20
96.5186930338541
  0
HATCH
  5
196
330
18A
100
AcDbEntity
  8
0
 62
     7
100
AcDbHatch
 10
0.0
 20
0.0
 30
0.0
210
0.0
220
0.0
230
1.0
  2
SOLID
 70
     1
 71
     0
 91
        1
 92
        0
 93
        3
 72
     1
 10
125.5932830710242
 20
86.7353353422495
 11
123.7207276336025
 21
89.13190291563069
 72
     1
 10
123.7207276336025
 20
89.13190291563069
 11
126.2693290171251
 21
87.47219481240688
 72
     1
 10
126.2693290171251
 20
87.47219481240688
 11
125.5932830710242
 21
86.7353353422495
 97
        0
 75
     0
 76
     1
 98
        0
  0
ENDBLK
  5
18C
330
18A
100
AcDbEntity
  8
0
100
AcDbBlockEnd
  0
ENDSEC
  0
SECTION
  2
ENTITIES
  0
LINE
  5
40
330
1F
100
AcDbEntity
  8
VISIBLE
100
AcDbLine
 10
124.5978965759278
 20
120.3628804524737
 30
0.0
 11
124.5978965759278
 21
121.896213785807
 31
0.0
  0
LINE
  5
41
330
1F
100
AcDbEntity
  8
VISIBLE
100
AcDbLine
 10
124.5978965759278
 20
122.6628804524737
 30
0.0
 11
124.5978965759278
 21
121.896213785807
 31
0.0
  0
LINE
  5
42
330
1F
100
AcDbEntity
  8
VISIBLE
100
AcDbLine
 10
54.59789657592777
 20
122.6628804524737
 30
0.0
 11
54.59789657592777
 21
247.0295471191403
 31
0.0
  0
LINE
  5
43
330
1F
100
AcDbEntity
  8
VISIBLE
100
AcDbLine
 10
54.59789657592777
 20
121.896213785807
 30
0.0
 11
54.59789657592777
 21
122.6628804524737
 31
0.0
  0
ARC
  5
44
330
1F
100
AcDbEntity
  8
VISIBLE
100
AcDbCircle
 10
57.93122990926111
 20
247.0295471191402
 30
0.0
 40
3.333333333333314
100
AcDbArc
 50
90.0
 51
180.0
  0
LINE
  5
45
330
1F
100
AcDbEntity
  8
VISIBLE
100
AcDbLine
 10
124.5978965759278
 20
121.896213785807
 30
0.0
 11
121.2645632425944
 21
121.896213785807
 31
0.0
  0
LINE
  5
46
330
1F
100
AcDbEntity
  8
VISIBLE
100
AcDbLine
 10
54.59789657592777
 20
121.896213785807
 30
0.0
 11
54.59789657592777
 21
120.3628804524737
 31
0.0
  0
LINE
  5
47
330
1F
100
AcDbEntity
  8
VISIBLE
100
AcDbLine
 10
57.93122990926111
 20
250.3628804524735
 30
0.0
 11
121.2645632425944
 21
250.3628804524735
 31
0.0
  0
CIRCLE
  5
48
330
1F
100
AcDbEntity
  8
VISIBLE
100
AcDbCircle
 10
121.2645632425944
 20
200.3628804524735
 30
0.0
 40
1.333333333333329
  0
LINE
  5
49
330
1F
100
AcDbEntity
  8
VISIBLE
100
AcDbLine
 10
54.59789657592777
 20
120.3628804524737
 30
0.0
 11
57.93122990926111
 21
120.3628804524737
 31
0.0
  0
CIRCLE
  5
4A
330
1F
100
AcDbEntity
  8
VISIBLE
100
AcDbCircle
 10
57.76456324259443
 20
170.7295471191402
 30
0.0
 40
1.333333333333336
  0
LINE
  5
4B
330
1F
100
AcDbEntity
  8
VISIBLE
100
AcDbLine
 10
57.93122990926111
 20
121.896213785807
 30
0.0
 11
54.59789657592777
 21
121.896213785807
 31
0.0
  0
CIRCLE
  5
4C
330
1F
100
AcDbEntity
  8
VISIBLE
100
AcDbCircle
 10
61.26456324259443
 20
247.0295471191402
 30
0.0
 40
1.333333333333329
  0
CIRCLE
  5
4D
330
1F
100
AcDbEntity
  8
VISIBLE
100
AcDbCircle
 10
121.2645632425944
 20
170.7295471191402
 30
0.0
 40
1.333333333333329
  0
CIRCLE
  5
4E
330
1F
100
AcDbEntity
  8
VISIBLE
100
AcDbCircle
 10
94.59789657592775
 20
247.0295471191402
 30
0.0
 40
1.333333333333329
  0
LINE
  5
4F
330
1F
100
AcDbEntity
  8
VISIBLE
100
AcDbLine
 10
121.2645632425944
 20
121.896213785807
 30
0.0
 11
57.93122990926111
 21
121.896213785807
 31
0.0
  0
ARC
  5
50
330
1F
100
AcDbEntity
  8
VISIBLE
100
AcDbCircle
 10
121.2645632425944
 20
247.0295471191402
 30
0.0
 40
3.333333333333329
100
AcDbArc
 50
0.0
 51
90.0
  0
LINE
  5
51
330
1F
100
AcDbEntity
  8
VISIBLE
100
AcDbLine
 10
121.2645632425944
 20
120.3628804524737
 30
0.0
 11
124.5978965759278
 21
120.3628804524737
 31
0.0
  0
LINE
  5
52
330
1F
100
AcDbEntity
  8
VISIBLE
100
AcDbLine
 10
124.5978965759278
 20
247.0295471191402
 30
0.0
 11
124.5978965759278
 21
122.6628804524735
 31
0.0
  0
CIRCLE
  5
53
330
1F
100
AcDbEntity
  8
VISIBLE
100
AcDbCircle
 10
57.76456324259443
 20
200.3628804524735
 30
0.0
 40
1.333333333333336
  0
LINE
  5
54
330
1F
100
AcDbEntity
  8
VISIBLE
100
AcDbLine
 10
57.93122990926111
 20
120.3628804524737
 30
0.0
 11
121.2645632425944
 21
120.3628804524737
 31
0.0
  0
CIRCLE
  5
55
330
1F
100
AcDbEntity
  8
VISIBLE
100
AcDbCircle
 10
94.59789657592778
 20
127.0295471191403
 30
0.0
 40
1.333333333333343
  0
CIRCLE
  5
56
330
1F
100
AcDbEntity
  8
VISIBLE
100
AcDbCircle
 10
61.26456324259443
 20
127.0295471191403
 30
0.0
 40
1.333333333333343
  0
LINE
  5
58
330
1F
100
AcDbEntity
  8
TANGENT EDGES
100
AcDbLine
 10
124.5978965759278
 20
122.6628804524737
 30
0.0
 11
54.59789657592777
 21
122.6628804524737
 31
0.0
  0
LINE
  5
59
330
1F
100
AcDbEntity
  8
TANGENT EDGES
100
AcDbLine
 10
57.93122990926111
 20
120.3628804524737
 30
0.0
 11
57.93122990926111
 21
121.896213785807
 31
0.0
  0
LINE
  5
5A
330
1F
100
AcDbEntity
  8
TANGENT EDGES
100
AcDbLine
 10
121.2645632425944
 20
121.896213785807
 30
0.0
 11
121.2645632425944
 21
120.3628804524737
 31
0.0
  0
LINE
  5
5C
330
1F
100
AcDbEntity
  8
CENTER
100
AcDbLine
 10
61.76456324259443
 20
247.0295471191402
 30
0.0
 11
60.76456324259443
 21
247.0295471191402
 31
0.0
  0
LINE
  5
5D
330
1F
100
AcDbEntity
  8
CENTER
100
AcDbLine
 10
61.26456324259443
 20
247.5295471191402
 30
0.0
 11
61.26456324259443
 21
246.5295471191402
 31
0.0
  0
LINE
  5
5E
330
1F
100
AcDbEntity
  8
CENTER
100
AcDbLine
 10
62.26456324259443
 20
247.0295471191402
 30
0.0
 11
64.18539657592777
 21
247.0295471191402
 31
0.0
  0
LINE
  5
5F
330
1F
100
AcDbEntity
  8
CENTER
100
AcDbLine
 10
60.26456324259443
 20
247.0295471191402
 30
0.0
 11
58.34372990926111
 21
247.0295471191402
 31
0.0
  0
LINE
  5
60
330
1F
100
AcDbEntity
  8
CENTER
100
AcDbLine
 10
61.26456324259443
 20
248.0295471191402
 30
0.0
 11
61.26456324259443
 21
249.9503804524735
 31
0.0
  0
LINE
  5
61
330
1F
100
AcDbEntity
  8
CENTER
100
AcDbLine
 10
61.26456324259443
 20
246.0295471191402
 30
0.0
 11
61.26456324259443
 21
244.1087137858069
 31
0.0
  0
LINE
  5
62
330
1F
100
AcDbEntity
  8
CENTER
100
AcDbLine
 10
121.7645632425944
 20
200.3628804524735
 30
0.0
 11
120.7645632425944
 21
200.3628804524735
 31
0.0
  0
LINE
  5
63
330
1F
100
AcDbEntity
  8
CENTER
100
AcDbLine
 10
121.2645632425944
 20
200.8628804524735
 30
0.0
 11
121.2645632425944
 21
199.8628804524735
 31
0.0
  0
LINE
  5
64
330
1F
100
AcDbEntity
  8
CENTER
100
AcDbLine
 10
122.2645632425944
 20
200.3628804524735
 30
0.0
 11
124.1853965759278
 21
200.3628804524735
 31
0.0
  0
LINE
  5
65
330
1F
100
AcDbEntity
  8
CENTER
100
AcDbLine
 10
120.2645632425944
 20
200.3628804524735
 30
0.0
 11
118.3437299092611
 21
200.3628804524735
 31
0.0
  0
LINE
  5
66
330
1F
100
AcDbEntity
  8
CENTER
100
AcDbLine
 10
121.2645632425944
 20
201.3628804524735
 30
0.0
 11
121.2645632425944
 21
203.2837137858069
 31
0.0
  0
LINE
  5
67
330
1F
100
AcDbEntity
  8
CENTER
100
AcDbLine
 10
121.2645632425944
 20
199.3628804524735
 30
0.0
 11
121.2645632425944
 21
197.4420471191402
 31
0.0
  0
LINE
  5
68
330
1F
100
AcDbEntity
  8
CENTER
100
AcDbLine
 10
95.09789657592778
 20
127.0295471191403
 30
0.0
 11
94.09789657592778
 21
127.0295471191403
 31
0.0
  0
LINE
  5
69
330
1F
100
AcDbEntity
  8
CENTER
100
AcDbLine
 10
94.59789657592778
 20
127.5295471191403
 30
0.0
 11
94.59789657592778
 21
126.5295471191403
 31
0.0
  0
LINE
  5
6A
330
1F
100
AcDbEntity
  8
CENTER
100
AcDbLine
 10
95.59789657592778
 20
127.0295471191403
 30
0.0
 11
97.51872990926111
 21
127.0295471191403
 31
0.0
  0
LINE
  5
6B
330
1F
100
AcDbEntity
  8
CENTER
100
AcDbLine
 10
93.59789657592778
 20
127.0295471191403
 30
0.0
 11
91.67706324259444
 21
127.0295471191403
 31
0.0
  0
LINE
  5
6C
330
1F
100
AcDbEntity
  8
CENTER
100
AcDbLine
 10
94.59789657592778
 20
128.0295471191403
 30
0.0
 11
94.59789657592778
 21
129.9503804524737
 31
0.0
  0
LINE
  5
6D
330
1F
100
AcDbEntity
  8
CENTER
100
AcDbLine
 10
94.59789657592778
 20
126.0295471191403
 30
0.0
 11
94.59789657592778
 21
124.108713785807
 31
0.0
  0
LINE
  5
6E
330
1F
100
AcDbEntity
  8
CENTER
100
AcDbLine
 10
58.26456324259443
 20
170.7295471191402
 30
0.0
 11
57.26456324259443
 21
170.7295471191402
 31
0.0
  0
LINE
  5
6F
330
1F
100
AcDbEntity
  8
CENTER
100
AcDbLine
 10
57.76456324259443
 20
171.2295471191402
 30
0.0
 11
57.76456324259443
 21
170.2295471191402
 31
0.0
  0
LINE
  5
70
330
1F
100
AcDbEntity
  8
CENTER
100
AcDbLine
 10
58.76456324259443
 20
170.7295471191402
 30
0.0
 11
60.68539657592777
 21
170.7295471191402
 31
0.0
  0
LINE
  5
71
330
1F
100
AcDbEntity
  8
CENTER
100
AcDbLine
 10
56.76456324259443
 20
170.7295471191402
 30
0.0
 11
54.8437299092611
 21
170.7295471191402
 31
0.0
  0
LINE
  5
72
330
1F
100
AcDbEntity
  8
CENTER
100
AcDbLine
 10
57.76456324259443
 20
171.7295471191402
 30
0.0
 11
57.76456324259443
 21
173.6503804524735
 31
0.0
  0
LINE
  5
73
330
1F
100
AcDbEntity
  8
CENTER
100
AcDbLine
 10
57.76456324259443
 20
169.7295471191402
 30
0.0
 11
57.76456324259443
 21
167.8087137858069
 31
0.0
  0
LINE
  5
74
330
1F
100
AcDbEntity
  8
CENTER
100
AcDbLine
 10
58.26456324259443
 20
200.3628804524735
 30
0.0
 11
57.26456324259443
 21
200.3628804524735
 31
0.0
  0
LINE
  5
75
330
1F
100
AcDbEntity
  8
CENTER
100
AcDbLine
 10
57.76456324259443
 20
200.8628804524735
 30
0.0
 11
57.76456324259443
 21
199.8628804524735
 31
0.0
  0
LINE
  5
76
330
1F
100
AcDbEntity
  8
CENTER
100
AcDbLine
 10
58.76456324259443
 20
200.3628804524735
 30
0.0
 11
60.68539657592777
 21
200.3628804524735
 31
0.0
  0
LINE
  5
77
330
1F
100
AcDbEntity
  8
CENTER
100
AcDbLine
 10
56.76456324259443
 20
200.3628804524735
 30
0.0
 11
54.8437299092611
 21
200.3628804524735
 31
0.0
  0
LINE
  5
78
330
1F
100
AcDbEntity
  8
CENTER
100
AcDbLine
 10
57.76456324259443
 20
201.3628804524735
 30
0.0
 11
57.76456324259443
 21
203.2837137858069
 31
0.0
  0
LINE
  5
79
330
1F
100
AcDbEntity
  8
CENTER
100
AcDbLine
 10
57.76456324259443
 20
199.3628804524735
 30
0.0
 11
57.76456324259443
 21
197.4420471191402
 31
0.0
  0
LINE
  5
7A
330
1F
100
AcDbEntity
  8
CENTER
100
AcDbLine
 10
121.7645632425944
 20
170.7295471191402
 30
0.0
 11
120.7645632425944
 21
170.7295471191402
 31
0.0
  0
LINE
  5
7B
330
1F
100
AcDbEntity
  8
CENTER
100
AcDbLine
 10
121.2645632425944
 20
171.2295471191402
 30
0.0
 11
121.2645632425944
 21
170.2295471191402
 31
0.0
  0
LINE
  5
7C
330
1F
100
AcDbEntity
  8
CENTER
100
AcDbLine
 10
122.2645632425944
 20
170.7295471191402
 30
0.0
 11
124.1853965759278
 21
170.7295471191402
 31
0.0
  0
LINE
  5
7D
330
1F
100
AcDbEntity
  8
CENTER
100
AcDbLine
 10
120.2645632425944
 20
170.7295471191402
 30
0.0
 11
118.3437299092611
 21
170.7295471191402
 31
0.0
  0
LINE
  5
7E
330
1F
100
AcDbEntity
  8
CENTER
100
AcDbLine
 10
121.2645632425944
 20
171.7295471191402
 30
0.0
 11
121.2645632425944
 21
173.6503804524735
 31
0.0
  0
LINE
  5
7F
330
1F
100
AcDbEntity
  8
CENTER
100
AcDbLine
 10
121.2645632425944
 20
169.7295471191402
 30
0.0
 11
121.2645632425944
 21
167.8087137858069
 31
0.0
  0
LINE
  5
80
330
1F
100
AcDbEntity
  8
CENTER
100
AcDbLine
 10
95.09789657592775
 20
247.0295471191402
 30
0.0
 11
94.09789657592775
 21
247.0295471191402
 31
0.0
  0
LINE
  5
81
330
1F
100
AcDbEntity
  8
CENTER
100
AcDbLine
 10
94.59789657592775
 20
247.5295471191402
 30
0.0
 11
94.59789657592775
 21
246.5295471191402
 31
0.0
  0
LINE
  5
82
330
1F
100
AcDbEntity
  8
CENTER
100
AcDbLine
 10
95.59789657592775
 20
247.0295471191402
 30
0.0
 11
97.51872990926108
 21
247.0295471191402
 31
0.0
  0
LINE
  5
83
330
1F
100
AcDbEntity
  8
CENTER
100
AcDbLine
 10
93.59789657592775
 20
247.0295471191402
 30
0.0
 11
91.67706324259441
 21
247.0295471191402
 31
0.0
  0
LINE
  5
84
330
1F
100
AcDbEntity
  8
CENTER
100
AcDbLine
 10
94.59789657592775
 20
248.0295471191402
 30
0.0
 11
94.59789657592775
 21
249.9503804524735
 31
0.0
  0
LINE
  5
85
330
1F
100
AcDbEntity
  8
CENTER
100
AcDbLine
 10
94.59789657592775
 20
246.0295471191402
 30
0.0
 11
94.59789657592775
 21
244.1087137858069
 31
0.0
  0
LINE
  5
86
330
1F
100
AcDbEntity
  8
CENTER
100
AcDbLine
 10
61.76456324259443
 20
127.0295471191403
 30
0.0
 11
60.76456324259443
 21
127.0295471191403
 31
0.0
  0
LINE
  5
87
330
1F
100
AcDbEntity
  8
CENTER
100
AcDbLine
 10
61.26456324259443
 20
127.5295471191403
 30
0.0
 11
61.26456324259443
 21
126.5295471191403
 31
0.0
  0
LINE
  5
88
330
1F
100
AcDbEntity
  8
CENTER
100
AcDbLine
 10
62.26456324259443
 20
127.0295471191403
 30
0.0
 11
64.18539657592778
 21
127.0295471191403
 31
0.0
  0
LINE
  5
89
330
1F
100
AcDbEntity
  8
CENTER
100
AcDbLine
 10
60.26456324259443
 20
127.0295471191403
 30
0.0
 11
58.3437299092611
 21
127.0295471191403
 31
0.0
  0
LINE
  5
8A
330
1F
100
AcDbEntity
  8
CENTER
100
AcDbLine
 10
61.26456324259443
 20
128.0295471191403
 30
0.0
 11
61.26456324259443
 21
129.9503804524737
 31
0.0
  0
LINE
  5
8B
330
1F
100
AcDbEntity
  8
CENTER
100
AcDbLine
 10
61.26456324259443
 20
126.0295471191403
 30
0.0
 11
61.26456324259443
 21
124.108713785807
 31
0.0
  0
DIMENSION
  5
8D
330
1F
100
AcDbEntity
  8
DIMENSIONS
100
AcDbDimension
  2
D1
 10
0.0
 20
0.0
 30
0.0
 11
125.2660338083904
 21
386.870386505126
 31
0.0
 70
    32
  1
<>
 71
     5
 42
-1.0
 53
90.0
  3
ISO-25
100
AcDbAlignedDimension
 13
57.93122990926111
 23
250.3628804524735
 33
0.0
 14
57.93122990926111
 24
120.3628804524737
 34
0.0
 50
90.0
100
AcDbRotatedDimension
1001
ACAD
1000
DSTYLE
1002
{
1070
    76
1070
     0
1070
    75
1070
     0
1070
   282
1070
     0
1070
   281
1070
     0
1070
    77
1070
     1
1070
    79
1070
     0
1070
    78
1070
     0
1070
   272
1070
     2
1070
   271
1070
     2
1070
   179
1070
     2
1070
   140
1040
2.707850318471337
1070
    71
1070
     0
1070
    72
1070
     0
1070
    48
1040
0.0
1070
    47
1040
0.0
1002
}
  0
DIMENSION
  5
9E
330
1F
100
AcDbEntity
  8
DIMENSIONS
100
AcDbDimension
  2
D2
 10
0.0
 20
0.0
 30
0.0
 11
180.2667077382406
 21
474.6809842427566
 31
0.0
 70
    32
  1
<>
 71
     5
 42
-1.0
 53
180.0
  3
ISO-25
100
AcDbAlignedDimension
 13
54.59789657592777
 23
247.0295471191402
 33
0.0
 14
124.5978965759278
 24
247.0295471191402
 34
0.0
 50
180.0
100
AcDbRotatedDimension
1001
ACAD
1000
DSTYLE
1002
{
1070
    76
1070
     0
1070
    75
1070
     0
1070
   282
1070
     0
1070
   281
1070
     0
1070
    77
1070
     1
1070
    79
1070
     0
1070
    78
1070
     0
1070
   272
1070
     2
1070
   271
1070
     2
1070
   179
1070
     2
1070
   140
1040
2.707850318471337
1070
    71
1070
     0
1070
    72
1070
     0
1070
    48
1040
0.0
1070
    47
1040
0.0
1002
}
  0
DIMENSION
  5
AF
330
1F
100
AcDbEntity
  8
DIMENSIONS
100
AcDbDimension
  2
D3
 10
0.0
 20
0.0
 30
0.0
 11
225.1075204213461
 21
455.5532681783033
 31
0.0
 70
    32
  1
<>
 71
     5
 42
-1.0
 53
90.0
  3
ISO-25
100
AcDbAlignedDimension
 13
121.2645632425944
 23
250.3628804524735
 33
0.0
 14
61.26456324259443
 24
247.0295471191402
 34
0.0
 50
90.0
100
AcDbRotatedDimension
1001
ACAD
1000
DSTYLE
1002
{
1070
    76
1070
     0
1070
    75
1070
     0
1070
   282
1070
     0
1070
   281
1070
     0
1070
    77
1070
     1
1070
    79
1070
     0
1070
    78
1070
     0
1070
   272
1070
     2
1070
   271
1070
     2
1070
   179
1070
     2
1070
   140
1040
2.707850318471337
1070
    71
1070
     0
1070
    72
1070
     0
1070
    48
1040
0.0
1070
    47
1040
0.0
1002
}
  0
DIMENSION
  5
C0
330
1F
100
AcDbEntity
  8
DIMENSIONS
100
AcDbDimension
  2
D4
 10
0.0
 20
0.0
 30
0.0
 11
225.2697052955627
 21
386.9293210347486
 31
0.0
 70
    32
  1
<>
 71
     5
 42
-1.0
 53
270.0
  3
ISO-25
100
AcDbAlignedDimension
 13
61.26456324259443
 23
247.0295471191402
 33
0.0
 14
61.26456244786583
 24
127.0295471191403
 34
0.0
 50
270.0
100
AcDbRotatedDimension
1001
ACAD
1000
DSTYLE
1002
{
1070
    76
1070
     0
1070
    75
1070
     0
1070
   282
1070
     0
1070
   281
1070
     0
1070
    77
1070
     1
1070
    79
1070
     0
1070
    78
1070
     0
1070
   272
1070
     2
1070
   271
1070
     2
1070
   179
1070
     2
1070
   140
1040
2.707850318471337
1070
    71
1070
     0
1070
    72
1070
     0
1070
    48
1040
0.0
1070
    47
1040
0.0
1002
}
  0
DIMENSION
  5
D1
330
1F
100
AcDbEntity
  8
DIMENSIONS
100
AcDbDimension
  2
D5
 10
0.0
 20
0.0
 30
0.0
 11
234.8331362406413
 21
423.6370674133293
 31
0.0
 70
    32
  1
<>
 71
     5
 42
-1.0
 53
90.0
  3
ISO-25
100
AcDbAlignedDimension
 13
121.2645632425944
 23
250.3628804524735
 33
0.0
 14
57.76456260681151
 24
200.3628804524735
 34
0.0
 50
90.0
100
AcDbRotatedDimension
1001
ACAD
1000
DSTYLE
1002
{
1070
    76
1070
     0
1070
    75
1070
     0
1070
   282
1070
     0
1070
   281
1070
     0
1070
    77
1070
     1
1070
    79
1070
     0
1070
    78
1070
     0
1070
   272
1070
     2
1070
   271
1070
     2
1070
   179
1070
     2
1070
   140
1040
2.707850318471337
1070
    71
1070
     0
1070
    72
1070
     0
1070
    48
1040
0.0
1070
    47
1040
0.0
1002
}
  0
DIMENSION
  5
E2
330
1F
100
AcDbEntity
  8
DIMENSIONS
100
AcDbDimension
  2
D6
 10
0.0
 20
0.0
 30
0.0
 11
234.8968603346083
 21
387.0915168762199
 31
0.0
 70
    32
  1
<>
 71
     5
 42
-1.0
 53
90.0
  3
ISO-25
100
AcDbAlignedDimension
 13
57.76456260681151
 23
170.7295475641882
 33
0.0
 14
57.76456260681151
 24
200.3628804524735
 34
0.0
 50
90.0
100
AcDbRotatedDimension
1001
ACAD
1000
DSTYLE
1002
{
1070
    76
1070
     0
1070
    75
1070
     0
1070
   282
1070
     0
1070
   281
1070
     0
1070
    77
1070
     1
1070
    79
1070
     0
1070
    78
1070
     0
1070
   272
1070
     1
1070
   271
1070
     1
1070
   179
1070
     1
1070
   140
1040
2.707850318471337
1070
    71
1070
     0
1070
    72
1070
     0
1070
    48
1040
0.0
1070
    47
1040
0.0
1002
}
  0
DIMENSION
  5
F3
330
1F
100
AcDbEntity
  8
DIMENSIONS
100
AcDbDimension
  2
D7
 10
0.0
 20
0.0
 30
0.0
 11
136.4936974843343
 21
461.0970914204908
 31
0.0
 70
    32
  1
<>
 71
     5
 42
-1.0
 53
180.0
  3
ISO-25
100
AcDbAlignedDimension
 13
54.59789657592777
 23
247.0295471191402
 33
0.0
 14
57.76456260681151
 24
200.3628804524735
 34
0.0
 50
180.0
100
AcDbRotatedDimension
1001
ACAD
1000
DSTYLE
1002
{
1070
    76
1070
     0
1070
    75
1070
     0
1070
   282
1070
     0
1070
   281
1070
     0
1070
    77
1070
     1
1070
    79
1070
     0
1070
    78
1070
     0
1070
   272
1070
     1
1070
   271
1070
     1
1070
   179
1070
     1
1070
   140
1040
2.707850318471337
1070
    71
1070
     0
1070
    72
1070
     0
1070
    48
1040
0.0
1070
    47
1040
0.0
1002
}
  0
DIMENSION
  5
104
330
1F
100
AcDbEntity
  8
DIMENSIONS
100
AcDbDimension
  2
D8
 10
0.0
 20
0.0
 30
0.0
 11
174.4626839955648
 21
461.1155392964673
 31
0.0
 70
    32
  1
<>
 71
     5
 42
-1.0
  3
ISO-25
100
AcDbAlignedDimension
 13
57.76456260681151
 23
200.3628804524735
 33
0.0
 14
121.2645632425944
 24
200.3628804524735
 34
0.0
100
AcDbRotatedDimension
1001
ACAD
1000
DSTYLE
1002
{
1070
    76
1070
     0
1070
    75
1070
     0
1070
   282
1070
     0
1070
   281
1070
     0
1070
    77
1070
     1
1070
    79
1070
     0
1070
    78
1070
     0
1070
   272
1070
     1
1070
   271
1070
     1
1070
   179
1070
     1
1070
   140
1040
2.707850318471337
1070
    71
1070
     0
1070
    72
1070
     0
1070
    48
1040
0.0
1070
    47
1040
0.0
1002
}
  0
DIMENSION
  5
115
330
1F
100
AcDbEntity
  8
DIMENSIONS
100
AcDbDimension
  2
D9
 10
0.0
 20
0.0
 30
0.0
 11
148.0065386295319
 21
467.7797662523049
 31
0.0
 70
    32
  1
<>
 71
     5
 42
-1.0
 53
180.0
  3
ISO-25
100
AcDbAlignedDimension
 13
61.26456244786583
 23
127.0295471191403
 33
0.0
 14
54.59789657592777
 24
247.0295471191402
 34
0.0
 50
180.0
100
AcDbRotatedDimension
1001
ACAD
1000
DSTYLE
1002
{
1070
    76
1070
     0
1070
    75
1070
     0
1070
   282
1070
     0
1070
   281
1070
     0
1070
    77
1070
     1
1070
    79
1070
     0
1070
    78
1070
     0
1070
   272
1070
     2
1070
   271
1070
     2
1070
   179
1070
     2
1070
   140
1040
2.707850318471337
1070
    71
1070
     0
1070
    72
1070
     0
1070
    48
1040
0.0
1070
    47
1040
0.0
1002
}
  0
DIMENSION
  5
126
330
1F
100
AcDbEntity
  8
DIMENSIONS
100
AcDbDimension
  2
D10
 10
0.0
 20
0.0
 30
0.0
 11
165.9092324574789
 21
467.7729642232251
 31
0.0
 70
    32
  1
<>
 71
     5
 42
-1.0
 53
180.0
  3
ISO-25
100
AcDbAlignedDimension
 13
94.59789657592778
 23
127.0295471191403
 33
0.0
 14
61.26456244786583
 24
127.0295471191403
 34
0.0
 50
180.0
100
AcDbRotatedDimension
1001
ACAD
1000
DSTYLE
1002
{
1070
    76
1070
     0
1070
    75
1070
     0
1070
   282
1070
     0
1070
   281
1070
     0
1070
    77
1070
     1
1070
    79
1070
     0
1070
    78
1070
     0
1070
   272
1070
     2
1070
   271
1070
     2
1070
   179
1070
     2
1070
   140
1040
2.707850318471337
1070
    71
1070
     0
1070
    72
1070
     0
1070
    48
1040
0.0
1070
    47
1040
0.0
1002
}
  0
DIMENSION
  5
137
330
1F
100
AcDbEntity
  8
DIMENSIONS
100
AcDbDimension
  2
D11
 10
93.65777167108592
 20
127.9750326775038
 30
0.0
 11
203.1240456899008
 21
313.5210950215651
 31
0.0
 70
    35
  1
8-<>
 71
     5
 42
-1.0
  3
ISO-25
100
AcDbDiametricDimension
 15
95.53802148076963
 25
126.0840615607769
 35
0.0
 40
0.0
1001
ACAD
1000
DSTYLE
1002
{
1070
    76
1070
     0
1070
    75
1070
     0
1070
   282
1070
     0
1070
   281
1070
     0
1070
    77
1070
     1
1070
    79
1070
     0
1070
    78
1070
     0
1070
   272
1070
     2
1070
   271
1070
     2
1070
   179
1070
     2
1070
   140
1040
2.707850318471337
1070
    71
1070
     0
1070
    72
1070
     0
1070
    48
1040
0.0
1070
    47
1040
0.0
1002
}
  0
ARC
  5
147
330
1F
100
AcDbEntity
  8
VISIBLE
100
AcDbCircle
 10
170.7574771881119
 20
122.6628804524737
 30
0.0
 40
2.300000000001234
100
AcDbArc
 50
180.0
 51
269.9999999999688
  0
LINE
  5
148
330
1F
100
AcDbEntity
  8
VISIBLE
100
AcDbLine
 10
169.990810521444
 20
122.6628804524737
 30
0.0
 11
169.990810521444
 21
247.0295471191403
 31
0.0
  0
ARC
  5
149
330
1F
100
AcDbEntity
  8
VISIBLE
100
AcDbCircle
 10
170.7574771881106
 20
122.6628804524737
 30
0.0
 40
0.7666666666666515
100
AcDbArc
 50
180.0
 51
270.0
  0
LINE
  5
14A
330
1F
100
AcDbEntity
  8
VISIBLE
100
AcDbLine
 10
175.1241438547773
 20
121.896213785807
 30
0.0
 11
170.7574771881106
 21
121.896213785807
 31
0.0
  0
LINE
  5
14B
330
1F
100
AcDbEntity
  8
VISIBLE
100
AcDbLine
 10
169.990810521444
 20
247.0295471191402
 30
0.0
 11
169.990810521444
 21
250.3628804524735
 31
0.0
  0
LINE
  5
14C
330
1F
100
AcDbEntity
  8
VISIBLE
100
AcDbLine
 10
169.990810521444
 20
250.3628804524735
 30
0.0
 11
168.4574771881107
 21
250.3628804524735
 31
0.0
  0
LINE
  5
14D
330
1F
100
AcDbEntity
  8
VISIBLE
100
AcDbLine
 10
175.1241438547773
 20
120.3628804524737
 30
0.0
 11
178.4574771881107
 21
120.3628804524737
 31
0.0
  0
LINE
  5
14E
330
1F
100
AcDbEntity
  8
VISIBLE
100
AcDbLine
 10
178.4574771881107
 20
121.896213785807
 30
0.0
 11
175.1241438547773
 21
121.896213785807
 31
0.0
  0
LINE
  5
14F
330
1F
100
AcDbEntity
  8
VISIBLE
100
AcDbLine
 10
170.7574771881107
 20
120.3628804524737
 30
0.0
 11
175.1241438547773
 21
120.3628804524737
 31
0.0
  0
LINE
  5
150
330
1F
100
AcDbEntity
  8
VISIBLE
100
AcDbLine
 10
178.4574771881107
 20
120.3628804524737
 30
0.0
 11
178.4574771881107
 21
121.896213785807
 31
0.0
  0
LINE
  5
151
330
1F
100
AcDbEntity
  8
VISIBLE
100
AcDbLine
 10
168.4574771881107
 20
250.3628804524735
 30
0.0
 11
168.4574771881107
 21
247.0295471191402
 31
0.0
  0
LINE
  5
152
330
1F
100
AcDbEntity
  8
VISIBLE
100
AcDbLine
 10
168.4574771881107
 20
247.0295471191402
 30
0.0
 11
168.4574771881107
 21
122.6628804524735
 31
0.0
  0
LINE
  5
153
330
1F
100
AcDbEntity
  8
TANGENT EDGES
100
AcDbLine
 10
175.1241438547773
 20
121.896213785807
 30
0.0
 11
175.1241438547773
 21
120.3628804524737
 31
0.0
  0
LINE
  5
154
330
1F
100
AcDbEntity
  8
TANGENT EDGES
100
AcDbLine
 10
169.990810521444
 20
247.0295471191402
 30
0.0
 11
168.4574771881107
 21
247.0295471191402
 31
0.0
  0
DIMENSION
  5
155
330
1F
100
AcDbEntity
  8
DIMENSIONS
100
AcDbDimension
  2
D12
 10
0.0
 20
0.0
 30
0.0
 11
344.6285821278896
 21
314.6649167378733
 31
0.0
 70
    32
  1
(<>)
 71
     5
 42
-1.0
  3
ISO-25
100
AcDbAlignedDimension
 13
178.4574771881107
 23
120.3628804524737
 33
0.0
 14
168.4574771881107
 24
122.6628804524737
 34
0.0
100
AcDbRotatedDimension
1001
ACAD
1000
DSTYLE
1002
{
1070
    76
1070
     0
1070
    75
1070
     0
1070
   282
1070
     0
1070
   281
1070
     0
1070
    77
1070
     1
1070
    79
1070
     0
1070
    78
1070
     0
1070
   272
1070
     2
1070
   271
1070
     2
1070
   179
1070
     2
1070
   140
1040
2.707850318471337
1070
    71
1070
     0
1070
    72
1070
     0
1070
    48
1040
0.0
1070
    47
1040
0.0
1002
}
  0
LINE
  5
166
330
1F
100
AcDbEntity
  8
VISIBLE
100
AcDbLine
 10
124.5978965759278
 20
96.51869303385409
 30
0.0
 11
124.5978965759278
 21
95.75202636718744
 31
0.0
  0
LINE
  5
167
330
1F
100
AcDbEntity
  8
VISIBLE
100
AcDbLine
 10
121.2645632425944
 20
98.05202636718744
 30
0.0
 11
57.93122990926111
 21
98.05202636718744
 31
0.0
  0
LINE
  5
168
330
1F
100
AcDbEntity
  8
VISIBLE
100
AcDbLine
 10
54.59789657592777
 20
95.75202636718744
 30
0.0
 11
54.59789657592777
 21
96.5186930338541
 31
0.0
  0
LINE
  5
169
330
1F
100
AcDbEntity
  8
VISIBLE
100
AcDbLine
 10
54.59789657592777
 20
91.38535970052078
 30
0.0
 11
54.59789657592777
 21
95.75202636718744
 31
0.0
  0
LINE
  5
16A
330
1F
100
AcDbEntity
  8
VISIBLE
100
AcDbLine
 10
54.59789657592777
 20
96.51869303385412
 30
0.0
 11
57.93122990926111
 21
96.51869303385412
 31
0.0
  0
ARC
  5
16B
330
1F
100
AcDbEntity
  8
VISIBLE
100
AcDbCircle
 10
121.2645632425944
 20
91.38535970052078
 30
0.0
 40
3.333333333333343
100
AcDbArc
 50
270.0
 51
0.0
  0
LINE
  5
16C
330
1F
100
AcDbEntity
  8
VISIBLE
100
AcDbLine
 10
124.5978965759278
 20
95.75202636718743
 30
0.0
 11
124.5978965759278
 21
91.38535970052077
 31
0.0
  0
LINE
  5
16D
330
1F
100
AcDbEntity
  8
VISIBLE
100
AcDbLine
 10
57.93122990926111
 20
96.5186930338541
 30
0.0
 11
121.2645632425944
 21
96.5186930338541
 31
0.0
  0
ARC
  5
16E
330
1F
100
AcDbEntity
  8
VISIBLE
100
AcDbCircle
 10
57.93122990926101
 20
91.38535970052078
 30
0.0
 40
3.333333333333236
100
AcDbArc
 50
180.0
 51
270.0000000000017
  0
LINE
  5
16F
330
1F
100
AcDbEntity
  8
VISIBLE
100
AcDbLine
 10
54.59789657592777
 20
96.51869303385412
 30
0.0
 11
54.59789657592777
 21
98.05202636718745
 31
0.0
  0
LINE
  5
170
330
1F
100
AcDbEntity
  8
VISIBLE
100
AcDbLine
 10
57.93122990926111
 20
98.05202636718745
 30
0.0
 11
54.59789657592777
 21
98.05202636718745
 31
0.0
  0
LINE
  5
171
330
1F
100
AcDbEntity
  8
VISIBLE
100
AcDbLine
 10
121.2645632425944
 20
88.05202636718744
 30
0.0
 11
57.93122990926111
 21
88.05202636718744
 31
0.0
  0
LINE
  5
172
330
1F
100
AcDbEntity
  8
VISIBLE
100
AcDbLine
 10
124.5978965759278
 20
98.05202636718744
 30
0.0
 11
121.2645632425944
 21
98.05202636718744
 31
0.0
  0
LINE
  5
173
330
1F
100
AcDbEntity
  8
VISIBLE
100
AcDbLine
 10
121.2645632425944
 20
96.5186930338541
 30
0.0
 11
124.5978965759278
 21
96.5186930338541
 31
0.0
  0
LINE
  5
174
330
1F
100
AcDbEntity
  8
VISIBLE
100
AcDbLine
 10
124.5978965759278
 20
96.5186930338541
 30
0.0
 11
124.5978965759278
 21
98.05202636718744
 31
0.0
  0
LINE
  5
175
330
1F
100
AcDbEntity
  8
TANGENT EDGES
100
AcDbLine
 10
57.93122990926111
 20
96.5186930338541
 30
0.0
 11
57.93122990926111
 21
98.05202636718745
 31
0.0
  0
LINE
  5
176
330
1F
100
AcDbEntity
  8
TANGENT EDGES
100
AcDbLine
 10
121.2645632425944
 20
96.5186930338541
 30
0.0
 11
121.2645632425944
 21
98.05202636718744
 31
0.0
  0
LINE
  5
177
330
1F
100
AcDbEntity
  8
TANGENT EDGES
100
AcDbLine
 10
54.59789657592777
 20
95.75202636718744
 30
0.0
 11
124.5978965759278
 21
95.75202636718744
 31
0.0
  0
DIMENSION
  5
178
330
1F
100
AcDbEntity
  8
DIMENSIONS
100
AcDbDimension
  2
D13
 10
0.0
 20
0.0
 30
0.0
 11
124.9689095815023
 21
189.1153040568033
 31
0.0
 70
    32
  1
<>
 71
     5
 42
-1.0
 53
270.0
  3
ISO-25
100
AcDbAlignedDimension
 13
57.93122990926111
 23
98.05202636718745
 33
0.0
 14
57.93122990926111
 24
88.05202636718744
 34
0.0
 50
270.0
100
AcDbRotatedDimension
1001
ACAD
1000
DSTYLE
1002
{
1070
    76
1070
     0
1070
    75
1070
     0
1070
   282
1070
     0
1070
   281
1070
     0
1070
    77
1070
     1
1070
    79
1070
     0
1070
    78
1070
     0
1070
   272
1070
     2
1070
   271
1070
     2
1070
   179
1070
     2
1070
   140
1040
2.707850318471337
1070
    71
1070
     0
1070
    72
1070
     0
1070
    48
1040
0.0
1070
    47
1040
0.0
1002
}
  0
DIMENSION
  5
189
330
1F
100
AcDbEntity
  8
DIMENSIONS
100
AcDbDimension
  2
D14
 10
121.2645632425944
 20
91.38535970052078
 30
0.0
 11
222.5433266957601
 21
180.0190134684244
 31
0.0
 70
    36
  1
4-<>
 71
     5
 42
-1.0
  3
ISO-25
100
AcDbRadialDimension
 15
123.7207606705482
 25
89.13187233511921
 35
0.0
 40
0.0
1001
ACAD
1000
DSTYLE
1002
{
1070
    76
1070
     0
1070
    75
1070
     0
1070
   282
1070
     0
1070
   281
1070
     0
1070
    77
1070
     1
1070
    79
1070
     0
1070
    78
1070
     0
1070
   272
1070
     2
1070
   271
1070
     2
1070
   179
1070
     2
1070
   140
1040
2.707850318471337
1070
    71
1070
     0
1070
    72
1070
     0
1070
    48
1040
0.0
1070
    47
1040
0.0
1002
}
  0
ELLIPSE
  5
197
330
1F
100
AcDbEntity
  8
VISIBLE
100
AcDbEllipse
 10
167.9980012012084
 20
56.74990049564855
 30
0.0
 11
0.431249999999892
 21
-0.7469469107641444
 31
0.0
210
0.0
220
0.0
230
1.0
 40
0.577350269189696
 41
-2.356194490192101
 42
-0.7853981633972187
  0
ELLIPSE
  5
198
330
1F
100
AcDbEntity
  8
VISIBLE
100
AcDbEllipse
 10
168.2278109050941
 20
72.30416036232157
 30
0.0
 11
0.2500000000000001
 21
0.4330127018921958
 31
0.0
210
0.0
220
0.0
230
1.0
 40
0.5773502691895924
 41
4.091175526684733
 42
5.333602434084731
  0
ELLIPSE
  5
199
330
1F
100
AcDbEntity
  8
VISIBLE
100
AcDbEllipse
 10
186.5595542073553
 20
67.46641812032482
 30
0.0
 11
0.1437500000000114
 21
-0.2489823035880079
 31
0.0
210
0.0
220
0.0
230
1.0
 40
0.5773502691895924
 41
-2.356194490192465
 42
-0.7853981633975535
  0
LINE
  5
19A
330
1F
100
AcDbEntity
  8
VISIBLE
100
AcDbLine
 10
185.0657911320987
 20
106.4082019269466
 30
0.0
 11
168.2720050789182
 21
96.71230502842982
 31
0.0
  0
LINE
  5
19B
330
1F
100
AcDbEntity
  8
VISIBLE
100
AcDbLine
 10
167.7947080016173
 20
56.8672718791568
 30
0.0
 11
167.7947080016173
 21
94.94663117217354
 31
0.0
  0
ELLIPSE
  5
19C
330
1F
100
AcDbEntity
  8
VISIBLE
100
AcDbEllipse
 10
167.9980012012084
 20
56.74990049564853
 30
0.0
 11
0.1437499999999261
 21
-0.2489823035879794
 31
0.0
210
0.0
220
0.0
230
1.0
 40
0.5773502691897883
 41
-2.35619449019195
 42
-0.7853981633971439
  0
LINE
  5
19D
330
1F
100
AcDbEntity
  8
VISIBLE
100
AcDbLine
 10
169.1558885554014
 20
55.84665115299704
 30
0.0
 11
167.9980012012084
 21
56.51515772863161
 31
0.0
  0
ELLIPSE
  5
19E
330
1F
100
AcDbEntity
  8
VISIBLE
100
AcDbEllipse
 10
168.6785914781005
 20
95.45694153525343
 30
0.0
 11
-0.6250000000000001
 21
-1.082531754730539
 31
0.0
210
0.0
220
0.0
230
1.0
 40
0.5773502691896303
 41
-2.356194490192344
 42
-0.785398163397462
  0
ELLIPSE
  5
19F
330
1F
100
AcDbEntity
  8
VISIBLE
100
AcDbEllipse
 10
177.9947233202332
 20
64.56275215440064
 30
0.0
 11
0.25
 21
0.4330127018922383
 31
0.0
210
0.0
220
0.0
230
1.0
 40
0.5773502691896765
 41
4.091175526684751
 42
5.333602434084534
  0
ELLIPSE
  5
1A0
330
1F
100
AcDbEntity
  8
VISIBLE
100
AcDbEllipse
 10
186.8335580850647
 20
66.05285841459363
 30
0.0
 11
-1.250000000000341
 21
0.0
 31
0.0
210
0.0
220
0.0
230
1.0
 40
0.577350269189539
 41
-3.141592653589675
 42
-2.356194490192371
  0
ELLIPSE
  5
1A1
330
1F
100
AcDbEntity
  8
VISIBLE
100
AcDbEllipse
 10
186.8335580850648
 20
66.05285841459379
 30
0.0
 11
1.250000000000256
 21
-9.947598300641403E-14
 31
0.0
210
0.0
220
0.0
230
1.0
 40
0.5773502691895557
 41
-0.7853981633973494
 42
0.0
  0
ELLIPSE
  5
1A2
330
1F
100
AcDbEntity
  8
VISIBLE
100
AcDbEllipse
 10
169.1558885554014
 20
59.45964852360273
 30
0.0
 11
0.2499999999996589
 21
0.4330127018924159
 31
0.0
210
0.0
220
0.0
230
1.0
 40
0.5773502691899547
 41
4.091175526683413
 42
5.333602434083504
  0
LINE
  5
1A3
330
1F
100
AcDbEntity
  8
VISIBLE
100
AcDbLine
 10
186.5595542073553
 20
67.23167535330812
 30
0.0
 11
187.7174415615482
 21
66.56316877767355
 31
0.0
  0
LINE
  5
1A4
330
1F
100
AcDbEntity
  8
VISIBLE
100
AcDbLine
 10
168.6785914781005
 20
96.4775622614131
 30
0.0
 11
185.472377531281
 21
106.1734591599298
 31
0.0
  0
ELLIPSE
  5
1A5
330
1F
100
AcDbEntity
  8
VISIBLE
100
AcDbEllipse
 10
168.2278109050941
 20
81.377478617881
 30
0.0
 11
0.2499999999999716
 21
0.4330127018922099
 31
0.0
210
0.0
220
0.0
230
1.0
 40
0.5773502691895803
 41
4.091175526684659
 42
5.333602434084557
  0
ELLIPSE
  5
1A6
330
1F
100
AcDbEntity
  8
VISIBLE
100
AcDbEllipse
 10
185.472377531281
 20
90.86414826753499
 30
0.0
 11
0.2499999999999716
 21
0.4330127018922241
 31
0.0
210
0.0
220
0.0
230
1.0
 40
0.5773502691896153
 41
3.141592653589708
 42
5.497787143782098
  0
ELLIPSE
  5
1A7
330
1F
100
AcDbEntity
  8
VISIBLE
100
AcDbEllipse
 10
185.472377531281
 20
90.864148267535
 30
0.0
 11
-0.25
 21
-0.4330127018922383
 31
0.0
210
0.0
220
0.0
230
1.0
 40
0.5773502691895989
 41
-3.141592653589733
 42
0.0
  0
ELLIPSE
  5
1A8
330
1F
100
AcDbEntity
  8
VISIBLE
100
AcDbEllipse
 10
185.4723775312817
 20
90.86414826753575
 30
0.0
 11
0.2499999999991189
 21
0.4330127018915277
 31
0.0
210
0.0
220
0.0
230
1.0
 40
0.5773502691900898
 41
-0.7853981633988127
 42
0.0
  0
ELLIPSE
  5
1A9
330
1F
100
AcDbEntity
  8
VISIBLE
100
AcDbEllipse
 10
170.0397720318846
 20
55.88747598204379
 30
0.0
 11
1.25
 21
-1.421085471520200E-14
 31
0.0
210
0.0
220
0.0
230
1.0
 40
0.5773502691898159
 41
-2.356194490192337
 42
-0.7853981633974296
  0
ELLIPSE
  5
1AA
330
1F
100
AcDbEntity
  8
VISIBLE
100
AcDbEllipse
 10
168.6343973042763
 20
72.06941759530488
 30
0.0
 11
0.25
 21
0.4330127018922241
 31
0.0
210
0.0
220
0.0
230
1.0
 40
0.5773502691896766
 41
3.141592653589682
 42
5.497787143782208
  0
ELLIPSE
  5
1AB
330
1F
100
AcDbEntity
  8
VISIBLE
100
AcDbEllipse
 10
168.6343973042763
 20
72.0694175953049
 30
0.0
 11
-0.25
 21
-0.4330127018922383
 31
0.0
210
0.0
220
0.0
230
1.0
 40
0.5773502691895989
 41
-3.141592653589818
 42
0.0
  0
ELLIPSE
  5
1AC
330
1F
100
AcDbEntity
  8
VISIBLE
100
AcDbEllipse
 10
168.634397304276
 20
72.06941759530451
 30
0.0
 11
0.2500000000003411
 21
0.4330127018925793
 31
0.0
210
0.0
220
0.0
230
1.0
 40
0.5773502691894142
 41
-0.7853981633969103
 42
0.0
  0
ELLIPSE
  5
1AD
330
1F
100
AcDbEntity
  8
VISIBLE
100
AcDbEllipse
 10
185.0657911320988
 20
91.09889103455164
 30
0.0
 11
0.2499999999999716
 21
0.4330127018921672
 31
0.0
210
0.0
220
0.0
230
1.0
 40
0.5773502691894961
 41
4.091175526684658
 42
5.333602434084753
  0
ELLIPSE
  5
1AE
330
1F
100
AcDbEntity
  8
VISIBLE
100
AcDbEllipse
 10
170.0397720318846
 20
56.35696151607679
 30
0.0
 11
1.25
 21
-1.421085471520200E-14
 31
0.0
210
0.0
220
0.0
230
1.0
 40
0.5773502691895317
 41
-2.356194490192328
 42
-0.785398163397439
  0
LINE
  5
1AF
330
1F
100
AcDbEntity
  8
VISIBLE
100
AcDbLine
 10
167.9980012012084
 20
56.0456721945983
 30
0.0
 11
169.1558885554014
 21
55.37716561896372
 31
0.0
  0
ELLIPSE
  5
1B0
330
1F
100
AcDbEntity
  8
VISIBLE
100
AcDbEllipse
 10
169.5624749545836
 20
95.96725189833329
 30
0.0
 11
0.25
 21
0.4330127018922099
 31
0.0
210
0.0
220
0.0
230
1.0
 40
0.5773502691896415
 41
3.141592653589818
 42
5.497787143782154
  0
ELLIPSE
  5
1B1
330
1F
100
AcDbEntity
  8
VISIBLE
100
AcDbEllipse
 10
169.5624749545836
 20
95.96725189833329
 30
0.0
 11
-0.25
 21
-0.4330127018922099
 31
0.0
210
0.0
220
0.0
230
1.0
 40
0.5773502691896415
 41
-3.141592653589793
 42
0.0
  0
ELLIPSE
  5
1B2
330
1F
100
AcDbEntity
  8
VISIBLE
100
AcDbEllipse
 10
169.5624749545835
 20
95.96725189833319
 30
0.0
 11
0.2500000000001706
 21
0.4330127018922952
 31
0.0
210
0.0
220
0.0
230
1.0
 40
0.5773502691895289
 41
-0.7853981633972443
 42
0.0
  0
ELLIPSE
  5
1B3
330
1F
100
AcDbEntity
  8
VISIBLE
100
AcDbEllipse
 10
185.472377531281
 20
81.79083001197564
 30
0.0
 11
0.25
 21
0.4330127018922099
 31
0.0
210
0.0
220
0.0
230
1.0
 40
0.5773502691896415
 41
3.141592653589818
 42
5.497787143782194
  0
ELLIPSE
  5
1B4
330
1F
100
AcDbEntity
  8
VISIBLE
100
AcDbEllipse
 10
185.472377531281
 20
81.79083001197561
 30
0.0
 11
-0.2500000000000285
 21
-0.4330127018922099
 31
0.0
210
0.0
220
0.0
230
1.0
 40
0.5773502691896394
 41
-3.141592653589598
 42
0.0
  0
ELLIPSE
  5
1B5
330
1F
100
AcDbEntity
  8
VISIBLE
100
AcDbEllipse
 10
185.472377531282
 20
81.79083001197675
 30
0.0
 11
0.2499999999988347
 21
0.4330127018911725
 31
0.0
210
0.0
220
0.0
230
1.0
 40
0.577350269190362
 41
-0.7853981633991688
 42
0.0
  0
ELLIPSE
  5
1B6
330
1F
100
AcDbEntity
  8
VISIBLE
100
AcDbEllipse
 10
178.4013097194155
 20
101.0703555291316
 30
0.0
 11
0.25
 21
0.4330127018922241
 31
0.0
210
0.0
220
0.0
230
1.0
 40
0.5773502691896131
 41
3.141592653589793
 42
5.497787143782113
  0
ELLIPSE
  5
1B7
330
1F
100
AcDbEntity
  8
VISIBLE
100
AcDbEllipse
 10
178.4013097194155
 20
101.0703555291316
 30
0.0
 11
-0.25
 21
-0.4330127018922383
 31
0.0
210
0.0
220
0.0
230
1.0
 40
0.5773502691895989
 41
-3.141592653589818
 42
0.0
  0
ELLIPSE
  5
1B8
330
1F
100
AcDbEntity
  8
VISIBLE
100
AcDbEllipse
 10
178.4013097194156
 20
101.0703555291318
 30
0.0
 11
0.2499999999998295
 21
0.4330127018919967
 31
0.0
210
0.0
220
0.0
230
1.0
 40
0.5773502691899247
 41
-0.7853981633977072
 42
0.0
  0
ELLIPSE
  5
1B9
330
1F
100
AcDbEntity
  8
VISIBLE
100
AcDbEllipse
 10
168.2720050789182
 20
95.69168430227018
 30
0.0
 11
-0.6249999999999716
 21
-1.082531754730525
 31
0.0
210
0.0
220
0.0
230
1.0
 40
0.5773502691896367
 41
-2.356194490192366
 42
-0.7853981633974452
  0
LINE
  5
1BA
330
1F
100
AcDbEntity
  8
VISIBLE
100
AcDbLine
 10
167.388121602435
 20
95.18137393919034
 30
0.0
 11
167.388121602435
 21
57.1020146461736
 31
0.0
  0
LINE
  5
1BB
330
1F
100
AcDbEntity
  8
VISIBLE
100
AcDbLine
 10
187.7174415615482
 20
65.54254805151389
 30
0.0
 11
170.9236555083677
 21
55.84665115299715
 31
0.0
  0
ELLIPSE
  5
1BC
330
1F
100
AcDbEntity
  8
VISIBLE
100
AcDbEllipse
 10
185.0657911320986
 20
105.387581200787
 30
0.0
 11
-0.6249999999999716
 21
-1.082531754730553
 31
0.0
210
0.0
220
0.0
230
1.0
 40
0.5773502691896001
 41
-3.141592653589925
 42
-2.356194490192348
  0
ELLIPSE
  5
1BD
330
1F
100
AcDbEntity
  8
VISIBLE
100
AcDbEllipse
 10
185.4723775312812
 20
105.1528384337705
 30
0.0
 11
-0.624999999999801
 21
-1.082531754730184
 31
0.0
210
0.0
220
0.0
230
1.0
 40
0.5773502691897421
 41
-3.141592653589739
 42
-2.356194490192436
  0
ELLIPSE
  5
1BE
330
1F
100
AcDbEntity
  8
VISIBLE
100
AcDbEllipse
 10
185.4723775312816
 20
105.1528384337707
 30
0.0
 11
0.6249999999993179
 21
1.082531754730127
 31
0.0
210
0.0
220
0.0
230
1.0
 40
0.5773502691897177
 41
-0.7853981633978775
 42
0.0
  0
ELLIPSE
  5
1BF
330
1F
100
AcDbEntity
  8
VISIBLE
100
AcDbEllipse
 10
169.1558885554014
 20
96.20199466535004
 30
0.0
 11
0.2499999999999716
 21
0.4330127018922241
 31
0.0
210
0.0
220
0.0
230
1.0
 40
0.5773502691896788
 41
4.091175526684559
 42
5.333602434084528
  0
ELLIPSE
  5
1C0
330
1F
100
AcDbEntity
  8
VISIBLE
100
AcDbEllipse
 10
186.8335580850646
 20
65.58337288056038
 30
0.0
 11
1.250000000000455
 21
-1.705302565824240E-13
 31
0.0
210
0.0
220
0.0
230
1.0
 40
0.5773502691895319
 41
-0.7853981633972191
 42
0.0
  0
ELLIPSE
  5
1C1
330
1F
100
AcDbEntity
  8
VISIBLE
100
AcDbEllipse
 10
177.9947233202332
 20
101.3050982961482
 30
0.0
 11
0.2500000000000001
 21
0.4330127018921958
 31
0.0
210
0.0
220
0.0
230
1.0
 40
0.5773502691895924
 41
4.091175526684733
 42
5.333602434084731
  0
LINE
  5
1C2
330
1F
100
AcDbEntity
  8
VISIBLE
100
AcDbLine
 10
186.3562610077641
 20
105.66314879685
 30
0.0
 11
186.3562610077641
 21
67.58378950383327
 31
0.0
  0
ELLIPSE
  5
1C3
330
1F
100
AcDbEntity
  8
VISIBLE
100
AcDbEllipse
 10
168.6343973042763
 20
81.14273585086426
 30
0.0
 11
0.25
 21
0.4330127018922241
 31
0.0
210
0.0
220
0.0
230
1.0
 40
0.5773502691896131
 41
3.141592653589818
 42
5.497787143782148
  0
ELLIPSE
  5
1C4
330
1F
100
AcDbEntity
  8
VISIBLE
100
AcDbEllipse
 10
168.6343973042763
 20
81.14273585086424
 30
0.0
 11
-0.25
 21
-0.4330127018922241
 31
0.0
210
0.0
220
0.0
230
1.0
 40
0.5773502691896131
 41
-3.141592653589793
 42
0.0
  0
ELLIPSE
  5
1C5
330
1F
100
AcDbEntity
  8
VISIBLE
100
AcDbEllipse
 10
168.6343973042768
 20
81.14273585086481
 30
0.0
 11
0.24999999999946
 21
0.4330127018916983
 31
0.0
210
0.0
220
0.0
230
1.0
 40
0.5773502691899914
 41
-0.7853981633982576
 42
0.0
  0
LINE
  5
1C6
330
1F
100
AcDbEntity
  8
VISIBLE
100
AcDbLine
 10
170.9236555083677
 20
55.37716561896379
 30
0.0
 11
187.7174415615483
 21
65.07306251748054
 31
0.0
  0
ELLIPSE
  5
1C7
330
1F
100
AcDbEntity
  8
VISIBLE
100
AcDbEllipse
 10
185.0657911320987
 20
82.02557277899237
 30
0.0
 11
0.2500000000000284
 21
0.4330127018922383
 31
0.0
210
0.0
220
0.0
230
1.0
 40
0.57735026918966
 41
4.091175526684808
 42
5.333602434084637
  0
ELLIPSE
  5
1C8
330
1F
100
AcDbEntity
  8
VISIBLE
100
AcDbEllipse
 10
178.4013097194155
 20
64.32800938738389
 30
0.0
 11
0.25
 21
0.4330127018922241
 31
0.0
210
0.0
220
0.0
230
1.0
 40
0.5773502691896273
 41
3.141592653589695
 42
5.497787143782165
  0
ELLIPSE
  5
1C9
330
1F
100
AcDbEntity
  8
VISIBLE
100
AcDbEllipse
 10
178.4013097194155
 20
64.3280093873839
 30
0.0
 11
-0.2499999999999716
 21
-0.4330127018922383
 31
0.0
210
0.0
220
0.0
230
1.0
 40
0.5773502691896011
 41
-3.141592653589927
 42
0.0
  0
ELLIPSE
  5
1CA
330
1F
100
AcDbEntity
  8
VISIBLE
100
AcDbEllipse
 10
178.401309719415
 20
64.32800938738328
 30
0.0
 11
0.2500000000005968
 21
0.4330127018928066
 31
0.0
210
0.0
220
0.0
230
1.0
 40
0.5773502691891735
 41
-0.7853981633965594
 42
0.0
  0
ELLIPSE
  5
1CB
330
1F
100
AcDbEntity
  8
VISIBLE
100
AcDbEllipse
 10
169.5624749545836
 20
59.22490575658556
 30
0.0
 11
0.2499999999999716
 21
0.4330127018922809
 31
0.0
210
0.0
220
0.0
230
1.0
 40
0.5773502691895444
 41
3.141592653589684
 42
5.49778714378207
  0
ELLIPSE
  5
1CC
330
1F
100
AcDbEntity
  8
VISIBLE
100
AcDbEllipse
 10
169.5624749545836
 20
59.22490575658554
 30
0.0
 11
-0.2500000000001421
 21
-0.4330127018921672
 31
0.0
210
0.0
220
0.0
230
1.0
 40
0.5773502691896945
 41
-3.141592653589219
 42
0.0
  0
ELLIPSE
  5
1CD
330
1F
100
AcDbEntity
  8
VISIBLE
100
AcDbEllipse
 10
169.5624749545843
 20
59.2249057565863
 30
0.0
 11
0.249999999999261
 21
0.4330127018915348
 31
0.0
210
0.0
220
0.0
230
1.0
 40
0.5773502691900083
 41
-0.7853981633985189
 42
0.0
  0
LINE
  5
1CE
330
1F
100
AcDbEntity
  8
VISIBLE
100
AcDbLine
 10
186.097377531281
 20
106.2353701885008
 30
0.0
 11
185.6907911320987
 21
106.4701129555175
 31
0.0
  0
LINE
  5
1CF
330
1F
100
AcDbEntity
  8
VISIBLE
100
AcDbLine
 10
188.0835580850651
 20
66.05285841459371
 30
0.0
 11
188.0835580850651
 21
65.58337288056028
 31
0.0
  0
LINE
  5
1D0
330
1F
100
AcDbEntity
  8
TANGENT EDGES
100
AcDbLine
 10
168.6785914781005
 20
96.4775622614131
 30
0.0
 11
168.2720050789182
 21
96.71230502842982
 31
0.0
  0
LINE
  5
1D1
330
1F
100
AcDbEntity
  8
TANGENT EDGES
100
AcDbLine
 10
169.1558885554014
 20
55.84665115299704
 30
0.0
 11
169.1558885554014
 21
55.3771656189636
 31
0.0
  0
LINE
  5
1D2
330
1F
100
AcDbEntity
  8
TANGENT EDGES
100
AcDbLine
 10
186.3562610077641
 20
67.5837895038332
 30
0.0
 11
167.7947080016173
 21
56.8672718791568
 31
0.0
  0
LINE
  5
1D3
330
1F
100
AcDbEntity
  8
TANGENT EDGES
100
AcDbLine
 10
185.472377531281
 20
106.1734591599298
 30
0.0
 11
185.0657911320987
 21
106.4082019269466
 31
0.0
  0
LINE
  5
1D4
330
1F
100
AcDbEntity
  8
TANGENT EDGES
100
AcDbLine
 10
170.9236555083677
 20
55.37716561896379
 30
0.0
 11
170.9236555083677
 21
55.84665115299723
 31
0.0
  0
LINE
  5
1D5
330
1F
100
AcDbEntity
  8
TANGENT EDGES
100
AcDbLine
 10
167.7947080016173
 20
94.94663117217362
 30
0.0
 11
167.388121602435
 21
95.18137393919034
 31
0.0
  0
LINE
  5
1D6
330
1F
100
AcDbEntity
  8
TANGENT EDGES
100
AcDbLine
 10
167.9980012012084
 20
56.51515772863179
 30
0.0
 11
186.5595542073553
 21
67.23167535330819
 31
0.0
  0
LINE
  5
1D7
330
1F
100
AcDbEntity
  8
TANGENT EDGES
100
AcDbLine
 10
187.7174415615482
 20
65.54254805151389
 30
0.0
 11
187.7174415615482
 21
65.07306251748045
 31
0.0
  0
LINE
  5
1D9
330
1F
100
AcDbEntity
  8
CONTINUOUS
100
AcDbLine
 10
50.2799912267436
 20
48.6589450627747
 30
0.0
 11
200.15477175549
 21
48.6589450627747
 31
0.0
  0
LINE
  5
1DA
330
1F
100
AcDbEntity
  8
CONTINUOUS
100
AcDbLine
 10
50.2798676988209
 20
38.4290233624602
 30
0.0
 11
200.161835121027
 21
38.4290233624602
 31
0.0
  0
LINE
  5
1DB
330
1F
100
AcDbEntity
  8
CONTINUOUS
100
AcDbLine
 10
50.2795257568359
 20
10.1112174987793
 30
0.0
 11
50.2799912267436
 21
48.6589450627747
 31
0.0
  0
LINE
  5
1DC
330
1F
100
AcDbEntity
  8
CONTINUOUS
100
AcDbLine
 10
85.2362213134766
 20
38.6329078674316
 30
0.0
 11
85.2362213134766
 21
48.6329078674316
 31
0.0
  0
LINE
  5
1DD
330
1F
100
AcDbEntity
  8
CONTINUOUS
100
AcDbLine
 10
104.90641784668
 20
20.1112174987793
 30
0.0
 11
199.90641784668
 21
20.1112174987793
 31
0.0
  0
LINE
  5
1DE
330
1F
100
AcDbEntity
  8
CONTINUOUS
100
AcDbLine
 10
104.90641784668
 20
10.1112174987793
 30
0.0
 11
104.90641784668
 21
38.6329078674316
 31
0.0
  0
LINE
  5
1DF
330
1F
100
AcDbEntity
  8
CONTINUOUS
100
AcDbLine
 10
159.039047241211
 20
10.1112174987793
 30
0.0
 11
159.039047241211
 21
20.1112174987793
 31
0.0
  0
LINE
  5
1E0
330
1F
100
AcDbEntity
  8
CONTINUOUS
100
AcDbLine
 10
147.531539916992
 20
38.6329078674316
 30
0.0
 11
147.531539916992
 21
48.6329078674316
 31
0.0
  0
LINE
  5
1E1
330
1F
100
AcDbEntity
  8
CONTINUOUS
100
AcDbLine
 10
179.90641784668
 20
10.1112174987793
 30
0.0
 11
179.90641784668
 21
20.1112174987793
 31
0.0
  0
LINE
  5
1E2
330
1F
100
AcDbEntity
  8
CONTINUOUS
100
AcDbLine
 10
179.90641784668
 20
38.6329078674316
 30
0.0
 11
179.90641784668
 21
48.6329078674316
 31
0.0
  0
LINE
  5
1E3
330
1F
100
AcDbEntity
  8
CONTINUOUS
100
AcDbLine
 10
117.710938564562
 20
48.6589450627747
 30
0.0
 11
117.720437427437
 21
38.4290233624602
 31
0.0
  0
LINE
  5
1E4
330
1F
100
AcDbEntity
  8
CONTINUOUS
  6
Continuous
 62
     7
370
    50
100
AcDbLine
 10
15.0
 20
5.0
 30
0.0
 11
15.0
 21
292.0
 31
0.0
  0
LINE
  5
1E5
330
1F
100
AcDbEntity
  8
CONTINUOUS
  6
Continuous
 62
     7
370
    50
100
AcDbLine
 10
15.0
 20
292.0
 30
0.0
 11
205.0
 21
292.0
 31
0.0
  0
LINE
  5
1E6
330
1F
100
AcDbEntity
  8
CONTINUOUS
  6
Continuous
 62
     7
370
    50
100
AcDbLine
 10
205.0
 20
292.0
 30
0.0
 11
205.0
 21
5.0
 31
0.0
  0
LINE
  5
1E7
330
1F
100
AcDbEntity
  8
CONTINUOUS
  6
Continuous
 62
     7
370
    50
100
AcDbLine
 10
205.0
 20
5.0
 30
0.0
 11
15.0
 21
5.0
 31
0.0
  0
LINE
  5
1E8
330
1F
100
AcDbEntity
  8
CONTINUOUS
  6
Continuous
 62
     7
370
    70
100
AcDbLine
 10
20.0
 20
10.0
 30
0.0
 11
20.0
 21
287.0
 31
0.0
  0
LINE
  5
1E9
330
1F
100
AcDbEntity
  8
CONTINUOUS
  6
Continuous
 62
     7
370
    70
100
AcDbLine
 10
20.0
 20
287.0
 30
0.0
 11
200.0
 21
287.0
 31
0.0
  0
LINE
  5
1EA
330
1F
100
AcDbEntity
  8
CONTINUOUS
  6
Continuous
 62
     7
370
    70
100
AcDbLine
 10
200.0
 20
287.0
 30
0.0
 11
200.0
 21
10.0
 31
0.0
  0
LINE
  5
1EB
330
1F
100
AcDbEntity
  8
CONTINUOUS
  6
Continuous
 62
     7
370
    70
100
AcDbLine
 10
200.0
 20
10.0
 30
0.0
 11
20.0
 21
10.0
 31
0.0
  0
LINE
  5
1EC
330
1F
100
AcDbEntity
  8
CONTINUOUS
  6
Continuous
 62
     7
370
    70
100
AcDbLine
 10
15.0
 20
148.5
 30
0.0
 11
30.0
 21
148.5
 31
0.0
  0
LINE
  5
1ED
330
1F
100
AcDbEntity
  8
CONTINUOUS
  6
Continuous
 62
     7
370
    70
100
AcDbLine
 10
205.0
 20
148.5
 30
0.0
 11
190.0
 21
148.5
 31
0.0
  0
LINE
  5
1EE
330
1F
100
AcDbEntity
  8
CONTINUOUS
  6
Continuous
 62
     7
370
    70
100
AcDbLine
 10
110.0
 20
292.0
 30
0.0
 11
110.0
 21
277.0
 31
0.0
  0
LINE
  5
1EF
330
1F
100
AcDbEntity
  8
CONTINUOUS
  6
Continuous
 62
     7
370
    70
100
AcDbLine
 10
110.0
 20
4.6521224975586
 30
0.0
 11
109.970191955566
 21
10.0
 31
0.0
  0
LINE
  5
1F0
330
1F
100
AcDbEntity
  8
CONTINUOUS
  6
Continuous
 62
     7
370
    35
100
AcDbLine
 10
160.0
 20
292.0
 30
0.0
 11
160.0
 21
287.0
 31
0.0
  0
LINE
  5
1F1
330
1F
100
AcDbEntity
  8
CONTINUOUS
  6
Continuous
 62
     7
370
    35
100
AcDbLine
 10
15.0
 20
198.5
 30
0.0
 11
20.0
 21
198.5
 31
0.0
  0
LINE
  5
1F2
330
1F
100
AcDbEntity
  8
CONTINUOUS
  6
Continuous
 62
     7
370
    35
100
AcDbLine
 10
15.0
 20
248.5
 30
0.0
 11
20.0
 21
248.5
 31
0.0
  0
LINE
  5
1F3
330
1F
100
AcDbEntity
  8
CONTINUOUS
  6
Continuous
 62
     7
370
    35
100
AcDbLine
 10
60.0
 20
292.0
 30
0.0
 11
60.0
 21
287.0
 31
0.0
  0
LINE
  5
1F4
330
1F
100
AcDbEntity
  8
CONTINUOUS
  6
Continuous
 62
     7
370
    35
100
AcDbLine
 10
15.0
 20
48.5
 30
0.0
 11
20.0
 21
48.5
 31
0.0
  0
LINE
  5
1F5
330
1F
100
AcDbEntity
  8
CONTINUOUS
  6
Continuous
 62
     7
370
    35
100
AcDbLine
 10
15.0
 20
98.4999999999988
 30
0.0
 11
20.0
 21
98.4999999999988
 31
0.0
  0
LINE
  5
1F6
330
1F
100
AcDbEntity
  8
CONTINUOUS
  6
Continuous
 62
     7
370
    35
100
AcDbLine
 10
60.0
 20
5.0
 30
0.0
 11
60.0
 21
10.0
 31
0.0
  0
LINE
  5
1F7
330
1F
100
AcDbEntity
  8
CONTINUOUS
  6
Continuous
 62
     7
370
    35
100
AcDbLine
 10
160.0
 20
5.0
 30
0.0
 11
160.0
 21
10.0
 31
0.0
  0
LINE
  5
1F8
330
1F
100
AcDbEntity
  8
CONTINUOUS
  6
Continuous
 62
     7
370
    35
100
AcDbLine
 10
205.0
 20
248.5
 30
0.0
 11
200.0
 21
248.5
 31
0.0
  0
LINE
  5
1F9
330
1F
100
AcDbEntity
  8
CONTINUOUS
  6
Continuous
 62
     7
370
    35
100
AcDbLine
 10
205.0
 20
198.5
 30
0.0
 11
200.0
 21
198.5
 31
0.0
  0
LINE
  5
1FA
330
1F
100
AcDbEntity
  8
CONTINUOUS
  6
Continuous
 62
     7
370
    35
100
AcDbLine
 10
205.0
 20
98.5
 30
0.0
 11
200.0
 21
98.5
 31
0.0
  0
LINE
  5
1FB
330
1F
100
AcDbEntity
  8
CONTINUOUS
  6
Continuous
 62
     7
370
    35
100
AcDbLine
 10
205.0
 20
48.5
 30
0.0
 11
200.0
 21
48.5
 31
0.0
  0
LINE
  5
1FC
330
1F
100
AcDbEntity
  8
CONTINUOUS
100
AcDbLine
 10
20.0
 20
10.0
 30
0.0
 11
20.0
 21
46.0
 31
0.0
  0
LINE
  5
1FD
330
1F
100
AcDbEntity
  8
CONTINUOUS
100
AcDbLine
 10
20.0
 20
281.0
 30
0.0
 11
20.0
 21
287.0
 31
0.0
  0
LINE
  5
1FE
330
1F
100
AcDbEntity
  8
CONTINUOUS
100
AcDbLine
 10
36.000000000001
 20
281.0
 30
0.0
 11
36.000000000001
 21
287.0
 31
0.0
  0
LINE
  5
1FF
330
1F
100
AcDbEntity
  8
CONTINUOUS
100
AcDbLine
 10
145.000000000001
 20
287.0
 30
0.0
 11
145.000000000001
 21
281.0
 31
0.0
  0
LINE
  5
200
330
1F
100
AcDbEntity
  8
CONTINUOUS
100
AcDbLine
 10
167.000000000001
 20
281.0
 30
0.0
 11
167.000000000001
 21
287.0
 31
0.0
  0
LINE
  5
201
330
1F
100
AcDbEntity
  8
CONTINUOUS
100
AcDbLine
 10
184.000000000001
 20
281.0
 30
0.0
 11
184.000000000001
 21
287.0
 31
0.0
  0
LINE
  5
202
330
1F
100
AcDbEntity
  8
CONTINUOUS
100
AcDbLine
 10
20.0
 20
281.0
 30
0.0
 11
200.000000000001
 21
281.0
 31
0.0
  0
MTEXT
  5
203
330
1F
100
AcDbEntity
  8
CONTINUOUS
100
AcDbMText
 10
119.055844116211
 20
45.9299089050293
 30
0.0
 40
2.188737186504777
 41
0.0
 71
     4
 72
     1
  1
{\fArial|b0|i0|c0|p0;\C7;Date}{\fArial|b0|i0|c0|p0;\C7;}
 73
     1
 44
1.0
  0
MTEXT
  5
204
330
1F
100
AcDbEntity
  8
CONTINUOUS
100
AcDbMText
 10
181.89391784668
 20
46.0429078674316
 30
0.0
 40
2.188737186504777
 41
0.0
 71
     4
 72
     1
  1
{\fArial|b0|i0|c0|p0;\C7;Scale}{\fArial|b0|i0|c0|p0;\C7;}
 73
     1
 44
1.0
  0
MTEXT
  5
205
330
1F
100
AcDbEntity
  8
CONTINUOUS
100
AcDbMText
 10
106.220565795898
 20
17.7262279510498
 30
0.0
 40
1.969863467854299
 41
0.0
 71
     4
 72
     1
  1
{\fArial|b0|i0|c0|p0;\C7;DWG NO.}{\fArial|b0|i0|c0|p0;\C7;}
 73
     1
 44
1.0
  0
MTEXT
  5
206
330
1F
100
AcDbEntity
  8
CONTINUOUS
100
AcDbMText
 10
181.89391784668
 20
17.5212174987793
 30
0.0
 40
2.188737186504777
 41
0.0
 71
     4
 72
     1
  1
{\fArial|b0|i0|c0|p0;\C7;Sheet}{\fArial|b0|i0|c0|p0;\C7;}
 73
     1
 44
1.0
  0
MTEXT
  5
207
330
1F
100
AcDbEntity
  8
CONTINUOUS
100
AcDbMText
 10
87.0540435791015
 20
45.9432641601562
 30
0.0
 40
2.188737186504777
 41
0.0
 71
     4
 72
     1
  1
{\fArial|b0|i0|c0|p0;\C7;Drawn by}{\fArial|b0|i0|c0|p0;\C7;}
 73
     1
 44
1.0
  0
MTEXT
  5
208
330
1F
100
AcDbEntity
  8
CONTINUOUS
100
AcDbMText
 10
89.9210968017578
 20
41.7731704711914
 30
0.0
 40
2.626484623805732
 41
0.0
 71
     4
 72
     1
  1
{\fArial|b0|i0|c0|p0;\C7;K.Zenyouji}{\fArial|b0|i0|c0|p0;\C7;\H1.166667x;}
 73
     1
 44
1.0
  0
MTEXT
  5
209
330
1F
100
AcDbEntity
  8
CONTINUOUS
100
AcDbMText
 10
124.08757019043
 20
41.4901992797852
 30
0.0
 40
2.626484623805732
 41
0.0
 71
     4
 72
     1
  1
{\fArial|b0|i0|c0|p0;\C7;2017.03.16}{\fArial|b0|i0|c0|p0;\C7;\H0.75x;}
 73
     1
 44
1.0
  0
MTEXT
  5
20A
330
1F
100
AcDbEntity
  8
CONTINUOUS
100
AcDbMText
 10
51.9769790667482
 20
45.8896409625002
 30
0.0
 40
2.188737186504777
 41
0.0
 71
     4
 72
     1
  1
{\fArial|b0|i0|c0|p0;\C7;Material}{\fArial|b0|i0|c0|p0;\C7;}
 73
     1
 44
1.0
  0
MTEXT
  5
20B
330
1F
100
AcDbEntity
  8
CONTINUOUS
100
AcDbMText
 10
52.8882217425296
 20
41.3004455584475
 30
0.0
 40
2.626484623805732
 41
0.0
 71
     4
 72
     1
  1
{\fArial|b0|i0|c0|p0;\C7;\U+30DC}{\fArial|b0|i0|c0|p0;\C7;\U+30F3}{\fArial|b0|i0|c0|p0;\C7;\U+30C7}{\fArial|b0|i0|c0|p0;\C7;\U+92FC}{\fArial|b0|i0|c0|p0;\C7;\U+677Ft2.3}{\fArial|b0|i0|c0|p0;\C7;}
 73
     1
 44
1.0
  0
MTEXT
  5
20C
330
1F
100
AcDbEntity
  8
CONTINUOUS
100
AcDbMText
 10
159.908932495117
 20
17.8006154632568
 30
0.0
 40
2.188737186504777
 41
0.0
 71
     4
 72
     1
  1
{\fArial|b0|i0|c0|p0;\C7;Revisions.}{\fArial|b0|i0|c0|p0;\C7;}
 73
     1
 44
1.0
  0
MTEXT
  5
20D
330
1F
100
AcDbEntity
  8
CONTINUOUS
100
AcDbMText
 10
165.272613529005
 20
12.9874010122197
 30
0.0
 40
4.377474373009554
 41
0.0
 71
     4
 72
     1
  1
{\fArial|b0|i0|c0|p0;\C7;0A}{\fArial|b0|i0|c0|p0;\C7;}
 73
     1
 44
1.0
  0
MTEXT
  5
20E
330
1F
100
AcDbEntity
  8
CONTINUOUS
100
AcDbMText
 10
106.812084964551
 20
35.3176309240239
 30
0.0
 40
2.188737186504777
 41
0.0
 71
     4
 72
     1
  1
{\fArial|b0|i0|c0|p0;\C7;Title}{\fArial|b0|i0|c0|p0;\C7;}
 73
     1
 44
1.0
  0
MTEXT
  5
20F
330
1F
100
AcDbEntity
  8
CONTINUOUS
100
AcDbMText
 10
128.281829837598
 20
30.9954280889409
 30
0.0
 40
2.626484623805732
 41
0.0
 71
     4
 72
     1
  1
{\fArial|b0|i0|c0|p0;\C7;19 inch Rack Mount Chassis}{\fArial|b0|i0|c0|p0;\C7;}
 73
     1
 44
1.0
  0
MTEXT
  5
210
330
1F
100
AcDbEntity
  8
CONTINUOUS
100
AcDbMText
 10
51.2144592321293
 20
27.185623325147
 30
0.0
 40
4.486911232334792
 41
0.0
 71
     4
 72
     1
  1
{\fArial|b0|i0|c0|p0;\C7;payapaya.moe.hm}{\fArial|b0|i0|c0|p0;\C7;\H0.4878049x;}
 73
     1
 44
1.0
  0
MTEXT
  5
211
330
1F
100
AcDbEntity
  8
CONTINUOUS
100
AcDbMText
 10
54.8740890557136
 20
19.347576299366
 30
0.0
 40
3.173668920431927
 41
0.0
 71
     4
 72
     1
  1
{\fArial|b0|i0|c0|p0;\C7;kaoruzen@gmail.com}{\fArial|b0|i0|c0|p0;\C7;\H0.6896552x;}
 73
     1
 44
1.0
  0
MTEXT
  5
212
330
1F
100
AcDbEntity
  8
CONTINUOUS
100
AcDbMText
 10
149.517170717139
 20
45.9416085833498
 30
0.0
 40
2.188737186504777
 41
0.0
 71
     4
 72
     1
  1
{\fArial|b0|i0|c0|p0;\C7;SheetSize}{\fArial|b0|i0|c0|p0;\C7;}
 73
     1
 44
1.0
  0
MTEXT
  5
213
330
1F
100
AcDbEntity
  8
CONTINUOUS
100
AcDbMText
 10
164.069709779639
 20
41.7591819781252
 30
0.0
 40
2.626484623805732
 41
0.0
 71
     5
 72
     1
  1
{\fArial|b0|i0|c0|p0;\C7;A2}{\fArial|b0|i0|c0|p0;\C7;}
 73
     1
 44
1.0
  0
MTEXT
  5
214
330
1F
100
AcDbEntity
  8
CONTINUOUS
100
AcDbMText
 10
188.82641784668
 20
12.3926219940186
 30
0.0
 40
2.079300327179538
 41
0.0
 71
     5
 72
     1
  1
{\fArial|b0|i0|c0|p0;\C7;1 of 1}{\fArial|b0|i0|c0|p0;\C7;}
 73
     1
 44
1.0
  0
MTEXT
  5
215
330
1F
100
AcDbEntity
  8
CONTINUOUS
100
AcDbMText
 10
179.272460939307
 20
7.40180301846948
 30
0.0
 40
1.969863467854299
 41
0.0
 71
     4
 72
     1
  1
{\fArial|b0|i0|c0|p0;\C7;4}{\fArial|b0|i0|c0|p0;\C7;\H1.111111x;}
 73
     1
 44
1.0
  0
MTEXT
  5
216
330
1F
100
AcDbEntity
  8
CONTINUOUS
100
AcDbMText
 10
167.725695238471
 20
284.505886230469
 30
0.0
 40
2.188737186504777
 41
0.0
 71
     4
 72
     1
  1
{\fArial|b0|i0|c0|p0;\C7;Signature}{\fArial|b0|i0|c0|p0;\C7;}
 73
     1
 44
1.0
  0
MTEXT
  5
217
330
1F
100
AcDbEntity
  8
CONTINUOUS
100
AcDbMText
 10
36.722363281251
 20
284.520046386719
 30
0.0
 40
2.188737186504777
 41
0.0
 71
     4
 72
     1
  1
{\fArial|b0|i0|c0|p0;\C7;Revision note}{\fArial|b0|i0|c0|p0;\C7;}
 73
     1
 44
1.0
  0
MTEXT
  5
218
330
1F
100
AcDbEntity
  8
CONTINUOUS
100
AcDbMText
 10
84.2042388916016
 20
289.412475585937
 30
0.0
 40
1.969863467854299
 41
0.0
 71
     4
 72
     1
  1
{\fArial|b0|i0|c0|p0;\C7;2}{\fArial|b0|i0|c0|p0;\C7;\H1.111111x;}
 73
     1
 44
1.0
  0
MTEXT
  5
219
330
1F
100
AcDbEntity
  8
CONTINUOUS
100
AcDbMText
 10
16.5297050476074
 20
29.0843238830569
 30
0.0
 40
1.969863467854299
 41
0.0
 71
     4
 72
     1
  1
{\fArial|b0|i0|c0|p0;\C7;F}{\fArial|b0|i0|c0|p0;\C7;\H1.111111x;}
 73
     1
 44
1.0
  0
MTEXT
  5
21A
330
1F
100
AcDbEntity
  8
CONTINUOUS
100
AcDbMText
 10
16.489652633667
 20
223.416290283203
 30
0.0
 40
1.969863467854299
 41
0.0
 71
     4
 72
     1
  1
{\fArial|b0|i0|c0|p0;\C7;B}{\fArial|b0|i0|c0|p0;\C7;\H1.111111x;}
 73
     1
 44
1.0
  0
MTEXT
  5
21B
330
1F
100
AcDbEntity
  8
CONTINUOUS
100
AcDbMText
 10
16.5239048004151
 20
267.647247314453
 30
0.0
 40
1.969863467854299
 41
0.0
 71
     4
 72
     1
  1
{\fArial|b0|i0|c0|p0;\C7;A}{\fArial|b0|i0|c0|p0;\C7;\H1.111111x;}
 73
     1
 44
1.0
  0
MTEXT
  5
21C
330
1F
100
AcDbEntity
  8
CONTINUOUS
100
AcDbMText
 10
16.3622055053711
 20
173.412567138672
 30
0.0
 40
1.969863467854299
 41
0.0
 71
     4
 72
     1
  1
{\fArial|b0|i0|c0|p0;\C7;C}{\fArial|b0|i0|c0|p0;\C7;\H1.111111x;}
 73
     1
 44
1.0
  0
MTEXT
  5
21D
330
1F
100
AcDbEntity
  8
CONTINUOUS
100
AcDbMText
 10
134.196380615234
 20
289.428771972656
 30
0.0
 40
1.969863467854299
 41
0.0
 71
     4
 72
     1
  1
{\fArial|b0|i0|c0|p0;\C7;3}{\fArial|b0|i0|c0|p0;\C7;\H1.111111x;}
 73
     1
 44
1.0
  0
MTEXT
  5
21E
330
1F
100
AcDbEntity
  8
CONTINUOUS
100
AcDbMText
 10
179.246231079102
 20
289.417816162109
 30
0.0
 40
1.969863467854299
 41
0.0
 71
     4
 72
     1
  1
{\fArial|b0|i0|c0|p0;\C7;4}{\fArial|b0|i0|c0|p0;\C7;\H1.111111x;}
 73
     1
 44
1.0
  0
MTEXT
  5
21F
330
1F
100
AcDbEntity
  8
CONTINUOUS
100
AcDbMText
 10
20.739453125001
 20
284.5242578125
 30
0.0
 40
2.188737186504777
 41
0.0
 71
     4
 72
     1
  1
{\fArial|b0|i0|c0|p0;\C7;RevNo}{\fArial|b0|i0|c0|p0;\C7;}
 73
     1
 44
1.0
  0
MTEXT
  5
220
330
1F
100
AcDbEntity
  8
CONTINUOUS
100
AcDbMText
 10
16.3894386291504
 20
123.405059814453
 30
0.0
 40
1.969863467854299
 41
0.0
 71
     4
 72
     1
  1
{\fArial|b0|i0|c0|p0;\C7;D}{\fArial|b0|i0|c0|p0;\C7;\H1.111111x;}
 73
     1
 44
1.0
  0
MTEXT
  5
221
330
1F
100
AcDbEntity
  8
CONTINUOUS
100
AcDbMText
 10
145.706127929691
 20
284.505886230469
 30
0.0
 40
2.188737186504777
 41
0.0
 71
     4
 72
     1
  1
{\fArial|b0|i0|c0|p0;\C7;Date}{\fArial|b0|i0|c0|p0;\C7;}
 73
     1
 44
1.0
  0
MTEXT
  5
222
330
1F
100
AcDbEntity
  8
CONTINUOUS
100
AcDbMText
 10
184.673277121641
 20
284.522182617187
 30
0.0
 40
2.188737186504777
 41
0.0
 71
     4
 72
     1
  1
{\fArial|b0|i0|c0|p0;\C7;Checked}{\fArial|b0|i0|c0|p0;\C7;}
 73
     1
 44
1.0
  0
MTEXT
  5
223
330
1F
100
AcDbEntity
  8
CONTINUOUS
100
AcDbMText
 10
84.2304687518069
 20
7.39646244229738
 30
0.0
 40
1.969863467854299
 41
0.0
 71
     4
 72
     1
  1
{\fArial|b0|i0|c0|p0;\C7;2}{\fArial|b0|i0|c0|p0;\C7;\H1.111111x;}
 73
     1
 44
1.0
  0
MTEXT
  5
224
330
1F
100
AcDbEntity
  8
CONTINUOUS
100
AcDbMText
 10
39.2597389221191
 20
289.415893554688
 30
0.0
 40
1.969863467854299
 41
0.0
 71
     4
 72
     1
  1
{\fArial|b0|i0|c0|p0;\C7;1}{\fArial|b0|i0|c0|p0;\C7;\H1.111111x;}
 73
     1
 44
1.0
  0
MTEXT
  5
225
330
1F
100
AcDbEntity
  8
CONTINUOUS
100
AcDbMText
 10
201.416522981543
 20
73.4027633685059
 30
0.0
 40
1.969863467854299
 41
0.0
 71
     4
 72
     1
  1
{\fArial|b0|i0|c0|p0;\C7;E}{\fArial|b0|i0|c0|p0;\C7;\H1.111111x;}
 73
     1
 44
1.0
  0
MTEXT
  5
226
330
1F
100
AcDbEntity
  8
CONTINUOUS
100
AcDbMText
 10
134.22261047544
 20
7.41275882901635
 30
0.0
 40
1.969863467854299
 41
0.0
 71
     4
 72
     1
  1
{\fArial|b0|i0|c0|p0;\C7;3}{\fArial|b0|i0|c0|p0;\C7;\H1.111111x;}
 73
     1
 44
1.0
  0
MTEXT
  5
227
330
1F
100
AcDbEntity
  8
CONTINUOUS
100
AcDbMText
 10
201.330354692359
 20
173.407218934913
 30
0.0
 40
1.969863467854299
 41
0.0
 71
     4
 72
     1
  1
{\fArial|b0|i0|c0|p0;\C7;C}{\fArial|b0|i0|c0|p0;\C7;\H1.111111x;}
 73
     1
 44
1.0
  0
MTEXT
  5
228
330
1F
100
AcDbEntity
  8
CONTINUOUS
100
AcDbMText
 10
39.2859687823244
 20
7.39988041104806
 30
0.0
 40
1.969863467854299
 41
0.0
 71
     4
 72
     1
  1
{\fArial|b0|i0|c0|p0;\C7;1}{\fArial|b0|i0|c0|p0;\C7;\H1.111111x;}
 73
     1
 44
1.0
  0
MTEXT
  5
229
330
1F
100
AcDbEntity
  8
CONTINUOUS
100
AcDbMText
 10
16.4483737945557
 20
73.4081115722654
 30
0.0
 40
1.969863467854299
 41
0.0
 71
     4
 72
     1
  1
{\fArial|b0|i0|c0|p0;\C7;E}{\fArial|b0|i0|c0|p0;\C7;\H1.111111x;}
 73
     1
 44
1.0
  0
MTEXT
  5
22A
330
1F
100
AcDbEntity
  8
CONTINUOUS
100
AcDbMText
 10
201.497854234595
 20
29.0789756792973
 30
0.0
 40
1.969863467854299
 41
0.0
 71
     4
 72
     1
  1
{\fArial|b0|i0|c0|p0;\C7;F}{\fArial|b0|i0|c0|p0;\C7;\H1.111111x;}
 73
     1
 44
1.0
  0
MTEXT
  5
22B
330
1F
100
AcDbEntity
  8
CONTINUOUS
100
AcDbMText
 10
201.357587816138
 20
123.399711610694
 30
0.0
 40
1.969863467854299
 41
0.0
 71
     4
 72
     1
  1
{\fArial|b0|i0|c0|p0;\C7;D}{\fArial|b0|i0|c0|p0;\C7;\H1.111111x;}
 73
     1
 44
1.0
  0
MTEXT
  5
22C
330
1F
100
AcDbEntity
  8
CONTINUOUS
100
AcDbMText
 10
201.492053987403
 20
267.641899110694
 30
0.0
 40
1.969863467854299
 41
0.0
 71
     4
 72
     1
  1
{\fArial|b0|i0|c0|p0;\C7;A}{\fArial|b0|i0|c0|p0;\C7;\H1.111111x;}
 73
     1
 44
1.0
  0
MTEXT
  5
22D
330
1F
100
AcDbEntity
  8
CONTINUOUS
100
AcDbMText
 10
201.457801820655
 20
223.410942079444
 30
0.0
 40
1.969863467854299
 41
0.0
 71
     4
 72
     1
  1
{\fArial|b0|i0|c0|p0;\C7;B}{\fArial|b0|i0|c0|p0;\C7;\H1.111111x;}
 73
     1
 44
1.0
  0
MTEXT
  5
22E
330
1F
100
AcDbEntity
  8
CONTINUOUS
100
AcDbMText
 10
188.82585144043
 20
41.2627868652343
 30
0.0
 40
2.626484623805732
 41
0.0
 71
     5
 72
     1
  1
{\fArial|b0|i0|c0|p0;\C7;1:1.5}{\fArial|b0|i0|c0|p0;\C7;}
 73
     1
 44
1.0
  0
MTEXT
  5
22F
330
1F
100
AcDbEntity
  8
CONTINUOUS
100
AcDbMText
 10
137.350547795948
 20
25.2112140709724
 30
0.0
 40
2.626484623805732
 41
0.0
 71
     4
 72
     1
  1
{\fArial|b0|i0|c0|p0;\C7;HDD MOUNTER}{\fArial|b0|i0|c0|p0;\C7;}
 73
     1
 44
1.0
  0
MTEXT
  5
230
330
1F
100
AcDbEntity
  8
CONTINUOUS
100
AcDbMText
 10
114.61542511167
 20
13.4601230639407
 30
0.0
 40
4.377474373009554
 41
0.0
 71
     4
 72
     1
  1
{\fArial|b0|i0|c0|p0;\C7;1489321210}{\fArial|b0|i0|c0|p0;\C7;}
 73
     1
 44
1.0
  0
ENDSEC
  0
SECTION
  2
OBJECTS
  0
DICTIONARY
  5
C
330
0
100
AcDbDictionary
281
     1
  3
ACAD_GROUP
350
D
  3
ACAD_LAYOUT
350
1A
  3
ACAD_MATERIAL
350
3B
  3
ACAD_MLEADERSTYLE
350
233
  3
ACAD_MLINESTYLE
350
17
  3
ACAD_PLOTSETTINGS
350
19
  3
ACAD_PLOTSTYLENAME
350
E
  3
ACAD_VISUALSTYLE
350
2A
  3
AcDbVariableDictionary
350
231
  0
DICTIONARY
  5
D
102
{ACAD_REACTORS
330
C
102
}
330
C
100
AcDbDictionary
281
     1
  0
DICTIONARY
  5
1A
102
{ACAD_REACTORS
330
C
102
}
330
C
100
AcDbDictionary
281
     1
  3
Layout1
350
1E
  3
Layout2
350
26
  3
Model
350
22
  0
DICTIONARY
  5
3B
102
{ACAD_REACTORS
330
C
102
}
330
C
100
AcDbDictionary
281
     1
  3
ByBlock
350
3D
  3
ByLayer
350
3C
  3
Global
350
3E
  0
DICTIONARY
  5
233
102
{ACAD_REACTORS
330
C
102
}
330
C
100
AcDbDictionary
281
     1
  0
DICTIONARY
  5
17
102
{ACAD_REACTORS
330
C
102
}
330
C
100
AcDbDictionary
281
     1
  3
Standard
350
18
  0
DICTIONARY
  5
19
102
{ACAD_REACTORS
330
C
102
}
330
C
100
AcDbDictionary
281
     1
  0
ACDBDICTIONARYWDFLT
  5
E
102
{ACAD_REACTORS
330
C
102
}
330
C
100
AcDbDictionary
281
     1
  3
Normal
350
F
100
AcDbDictionaryWithDefault
340
F
  0
DICTIONARY
  5
2A
102
{ACAD_REACTORS
330
C
102
}
330
C
100
AcDbDictionary
281
     1
  3
2dWireframe
350
2F
  3
3D Hidden
350
31
  3
3dWireframe
350
30
  3
Basic
350
32
  3
Brighten
350
36
  3
ColorChange
350
3A
  3
Conceptual
350
34
  3
Dim
350
35
  3
Facepattern
350
39
  3
Flat
350
2B
  3
FlatWithEdges
350
2C
  3
Gouraud
350
2D
  3
GouraudWithEdges
350
2E
  3
Linepattern
350
38
  3
Realistic
350
33
  3
Thicken
350
37
  0
DICTIONARY
  5
231
102
{ACAD_REACTORS
330
C
102
}
330
C
100
AcDbDictionary
281
     1
  3
DIMASSOC
350
236
  3
HIDETEXT
350
237
  3
PSOLHEIGHT
350
235
  3
PSOLWIDTH
350
234
  0
LAYOUT
  5
1E
102
{ACAD_REACTORS
330
1A
102
}
330
1A
100
AcDbPlotSettings
  1

  2
none_device
  4

  6

 40
0.0
 41
0.0
 42
0.0
 43
0.0
 44
0.0
 45
0.0
 46
0.0
 47
0.0
 48
0.0
 49
0.0
140
0.0
141
0.0
142
1.0
143
1.0
 70
   688
 72
     0
 73
     0
 74
     5
  7

 75
    16
147
1.0
148
0.0
149
0.0
100
AcDbLayout
  1
Layout1
 70
     1
 71
     1
 10
0.0
 20
0.0
 11
420.0
 21
297.0
 12
0.0
 22
0.0
 32
0.0
 14
1.000000000000000E+20
 24
1.000000000000000E+20
 34
1.000000000000000E+20
 15
-1.000000000000000E+20
 25
-1.000000000000000E+20
 35
-1.000000000000000E+20
146
0.0
 13
0.0
 23
0.0
 33
0.0
 16
1.0
 26
0.0
 36
0.0
 17
0.0
 27
1.0
 37
0.0
 76
     0
330
1B
  0
LAYOUT
  5
26
102
{ACAD_REACTORS
330
1A
102
}
330
1A
100
AcDbPlotSettings
  1

  2
none_device
  4

  6

 40
0.0
 41
0.0
 42
0.0
 43
0.0
 44
0.0
 45
0.0
 46
0.0
 47
0.0
 48
0.0
 49
0.0
140
0.0
141
0.0
142
1.0
143
1.0
 70
   688
 72
     0
 73
     0
 74
     5
  7

 75
    16
147
1.0
148
0.0
149
0.0
100
AcDbLayout
  1
Layout2
 70
     1
 71
     2
 10
0.0
 20
0.0
 11
0.0
 21
0.0
 12
0.0
 22
0.0
 32
0.0
 14
0.0
 24
0.0
 34
0.0
 15
0.0
 25
0.0
 35
0.0
146
0.0
 13
0.0
 23
0.0
 33
0.0
 16
1.0
 26
0.0
 36
0.0
 17
0.0
 27
1.0
 37
0.0
 76
     0
330
23
  0
LAYOUT
  5
22
102
{ACAD_REACTORS
330
1A
102
}
330
1A
100
AcDbPlotSettings
  1

  2
none_device
  4

  6

 40
0.0
 41
0.0
 42
0.0
 43
0.0
 44
0.0
 45
0.0
 46
0.0
 47
0.0
 48
0.0
 49
0.0
140
0.0
141
0.0
142
1.0
143
1.0
 70
  1712
 72
     0
 73
     0
 74
     0
  7

 75
     0
147
1.0
148
0.0
149
0.0
100
AcDbLayout
  1
Model
 70
     1
 71
     0
 10
0.0
 20
0.0
 11
420.0
 21
297.0
 12
0.0
 22
0.0
 32
0.0
 14
1.000000000000000E+20
 24
1.000000000000000E+20
 34
1.000000000000000E+20
 15
-1.000000000000000E+20
 25
-1.000000000000000E+20
 35
-1.000000000000000E+20
146
0.0
 13
0.0
 23
0.0
 33
0.0
 16
1.0
 26
0.0
 36
0.0
 17
0.0
 27
1.0
 37
0.0
 76
     0
330
1F
331
29
  0
MATERIAL
  5
3D
102
{ACAD_REACTORS
330
3B
102
}
102
{ACAD_XDICTIONARY
360
25A
102
}
330
3B
100
AcDbMaterial
  1
ByBlock
  0
MATERIAL
  5
3C
102
{ACAD_REACTORS
330
3B
102
}
102
{ACAD_XDICTIONARY
360
258
102
}
330
3B
100
AcDbMaterial
  1
ByLayer
  0
MATERIAL
  5
3E
102
{ACAD_REACTORS
330
3B
102
}
102
{ACAD_XDICTIONARY
360
25C
102
}
330
3B
100
AcDbMaterial
  1
Global
  0
MLINESTYLE
  5
18
102
{ACAD_REACTORS
330
17
102
}
330
17
100
AcDbMlineStyle
  2
Standard
 70
     0
  3

 62
   256
 51
90.0
 52
90.0
 71
     2
 49
0.5
 62
   256
  6
BYLAYER
 49
-0.5
 62
   256
  6
BYLAYER
  0
ACDBPLACEHOLDER
  5
F
102
{ACAD_REACTORS
330
E
102
}
330
E
  0
VISUALSTYLE
  5
2F
102
{ACAD_REACTORS
330
2A
102
}
102
{ACAD_XDICTIONARY
360
240
102
}
330
2A
100
AcDbVisualStyle
  2
2dWireframe
 70
     4
 71
     0
 72
     2
 73
     0
 90
        0
 40
-0.6
 41
-30.0
 62
     5
 63
     7
 74
     1
 91
        4
 64
     7
 65
   257
 75
     1
175
     1
 42
1.0
 92
        0
 66
   257
 43
1.0
 76
     1
 77
     6
 78
     2
 67
     7
 79
     5
170
     0
171
     0
290
     0
174
     0
 93
        1
 44
0.0
173
     0
291
     0
 45
0.0
1001
ACAD
1000
AcDbSavedByObjectVersion
1070
     0
  0
VISUALSTYLE
  5
31
102
{ACAD_REACTORS
330
2A
102
}
102
{ACAD_XDICTIONARY
360
244
102
}
330
2A
100
AcDbVisualStyle
  2
3D Hidden
 70
     6
 71
     1
 72
     2
 73
     2
 90
        0
 40
-0.6
 41
-30.0
 62
     5
 63
     7
 74
     2
 91
        2
 64
     7
 65
   257
 75
     2
175
     1
 42
40.0
 92
        0
 66
   257
 43
1.0
 76
     1
 77
     6
 78
     2
 67
     7
 79
     3
170
     0
171
     0
290
     0
174
     0
 93
        1
 44
0.0
173
     0
291
     0
 45
0.0
1001
ACAD
1000
AcDbSavedByObjectVersion
1070
     0
  0
VISUALSTYLE
  5
30
102
{ACAD_REACTORS
330
2A
102
}
102
{ACAD_XDICTIONARY
360
242
102
}
330
2A
100
AcDbVisualStyle
  2
3dWireframe
 70
     5
 71
     0
 72
     2
 73
     0
 90
        0
 40
-0.6
 41
-30.0
 62
     5
 63
     7
 74
     1
 91
        4
 64
     7
 65
   257
 75
     1
175
     1
 42
1.0
 92
        0
 66
   257
 43
1.0
 76
     1
 77
     6
 78
     2
 67
     7
 79
     5
170
     0
171
     0
290
     0
174
     0
 93
        1
 44
0.0
173
     0
291
     0
 45
0.0
1001
ACAD
1000
AcDbSavedByObjectVersion
1070
     0
  0
VISUALSTYLE
  5
32
102
{ACAD_REACTORS
330
2A
102
}
102
{ACAD_XDICTIONARY
360
246
102
}
330
2A
100
AcDbVisualStyle
  2
Basic
 70
     7
 71
     1
 72
     0
 73
     1
 90
        0
 40
-0.6
 41
-30.0
 62
     5
 63
     7
 74
     0
 91
        4
 64
     7
 65
   257
 75
     1
175
     1
 42
1.0
 92
        8
 66
     7
 43
1.0
 76
     1
 77
     6
 78
     2
 67
     7
 79
     5
170
     0
171
     0
290
     0
174
     0
 93
        1
 44
0.0
173
     0
291
     1
 45
0.0
1001
ACAD
1000
AcDbSavedByObjectVersion
1070
     0
  0
VISUALSTYLE
  5
36
102
{ACAD_REACTORS
330
2A
102
}
102
{ACAD_XDICTIONARY
360
24E
102
}
330
2A
100
AcDbVisualStyle
  2
Brighten
 70
    12
 71
     2
 72
     2
 73
     0
 90
        0
 40
-0.6
 41
-30.0
 62
     5
 63
     7
 74
     1
 91
        4
 64
     7
 65
   257
 75
     1
175
     1
 42
1.0
 92
        8
 66
     7
 43
1.0
 76
     1
 77
     6
 78
     2
 67
     7
 79
     5
170
     0
171
     0
290
     0
174
     0
 93
        1
 44
50.0
173
     0
291
     1
 45
0.0
1001
ACAD
1000
AcDbSavedByObjectVersion
1070
     0
  0
VISUALSTYLE
  5
3A
102
{ACAD_REACTORS
330
2A
102
}
102
{ACAD_XDICTIONARY
360
256
102
}
330
2A
100
AcDbVisualStyle
  2
ColorChange
 70
    16
 71
     2
 72
     2
 73
     3
 90
        0
 40
-0.6
 41
-30.0
 62
     5
 63
     8
 74
     1
 91
        4
 64
     7
 65
   257
 75
     1
175
     1
 42
1.0
 92
        8
 66
     8
 43
1.0
 76
     1
 77
     6
 78
     2
 67
     7
 79
     5
170
     0
171
     0
290
     0
174
     0
 93
        1
 44
0.0
173
     0
291
     1
 45
0.0
1001
ACAD
1000
AcDbSavedByObjectVersion
1070
     0
  0
VISUALSTYLE
  5
34
102
{ACAD_REACTORS
330
2A
102
}
102
{ACAD_XDICTIONARY
360
24A
102
}
330
2A
100
AcDbVisualStyle
  2
Conceptual
 70
     9
 71
     3
 72
     2
 73
     0
 90
        0
 40
-0.6
 41
-30.0
 62
     5
 63
     7
 74
     2
 91
        2
 64
     7
 65
   257
 75
     1
175
     1
 42
40.0
 92
        8
 66
     7
 43
1.0
 76
     1
 77
     6
 78
     2
 67
     7
 79
     3
170
     0
171
     0
290
     0
174
     0
 93
        1
 44
0.0
173
     0
291
     0
 45
0.0
1001
ACAD
1000
AcDbSavedByObjectVersion
1070
     0
  0
VISUALSTYLE
  5
35
102
{ACAD_REACTORS
330
2A
102
}
102
{ACAD_XDICTIONARY
360
24C
102
}
330
2A
100
AcDbVisualStyle
  2
Dim
 70
    11
 71
     2
 72
     2
 73
     0
 90
        0
 40
-0.6
 41
-30.0
 62
     5
 63
     7
 74
     1
 91
        4
 64
     7
 65
   257
 75
     1
175
     1
 42
1.0
 92
        8
 66
     7
 43
1.0
 76
     1
 77
     6
 78
     2
 67
     7
 79
     5
170
     0
171
     0
290
     0
174
     0
 93
        1
 44
-50.0
173
     0
291
     1
 45
0.0
1001
ACAD
1000
AcDbSavedByObjectVersion
1070
     0
  0
VISUALSTYLE
  5
39
102
{ACAD_REACTORS
330
2A
102
}
102
{ACAD_XDICTIONARY
360
254
102
}
330
2A
100
AcDbVisualStyle
  2
Facepattern
 70
    15
 71
     2
 72
     2
 73
     0
 90
        0
 40
-0.6
 41
-30.0
 62
     5
 63
     7
 74
     1
 91
        4
 64
     7
 65
   257
 75
     1
175
     1
 42
1.0
 92
        8
 66
     7
 43
1.0
 76
     1
 77
     6
 78
     2
 67
     7
 79
     5
170
     0
171
     0
290
     0
174
     0
 93
        1
 44
0.0
173
     0
291
     1
 45
0.0
1001
ACAD
1000
AcDbSavedByObjectVersion
1070
     0
  0
VISUALSTYLE
  5
2B
102
{ACAD_REACTORS
330
2A
102
}
102
{ACAD_XDICTIONARY
360
238
102
}
330
2A
100
AcDbVisualStyle
  2
Flat
 70
     0
 71
     2
 72
     1
 73
     1
 90
        2
 40
-0.6
 41
30.0
 62
     5
 63
     7
 74
     0
 91
        4
 64
     7
 65
   257
 75
     1
175
     1
 42
1.0
 92
        8
 66
     7
 43
1.0
 76
     1
 77
     6
 78
     2
 67
     7
 79
     5
170
     0
171
     0
290
     0
174
     0
 93
       13
 44
0.0
173
     0
291
     1
 45
0.0
1001
ACAD
1000
AcDbSavedByObjectVersion
1070
     0
  0
VISUALSTYLE
  5
2C
102
{ACAD_REACTORS
330
2A
102
}
102
{ACAD_XDICTIONARY
360
23A
102
}
330
2A
100
AcDbVisualStyle
  2
FlatWithEdges
 70
     1
 71
     2
 72
     1
 73
     1
 90
        2
 40
-0.6
 41
30.0
 62
     5
 63
     7
 74
     1
 91
        4
 64
     7
 65
   257
 75
     1
175
     1
 42
1.0
 92
        0
 66
   257
 43
1.0
 76
     1
 77
     6
 78
     2
 67
     7
 79
     5
170
     0
171
     0
290
     0
174
     0
 93
       13
 44
0.0
173
     0
291
     1
 45
0.0
1001
ACAD
1000
AcDbSavedByObjectVersion
1070
     0
  0
VISUALSTYLE
  5
2D
102
{ACAD_REACTORS
330
2A
102
}
102
{ACAD_XDICTIONARY
360
23C
102
}
330
2A
100
AcDbVisualStyle
  2
Gouraud
 70
     2
 71
     2
 72
     2
 73
     1
 90
        2
 40
-0.6
 41
30.0
 62
     5
 63
     7
 74
     0
 91
        4
 64
     7
 65
   257
 75
     1
175
     1
 42
1.0
 92
        0
 66
     7
 43
1.0
 76
     1
 77
     6
 78
     2
 67
     7
 79
     5
170
     0
171
     0
290
     0
174
     0
 93
       13
 44
0.0
173
     0
291
     1
 45
0.0
1001
ACAD
1000
AcDbSavedByObjectVersion
1070
     0
  0
VISUALSTYLE
  5
2E
102
{ACAD_REACTORS
330
2A
102
}
102
{ACAD_XDICTIONARY
360
23E
102
}
330
2A
100
AcDbVisualStyle
  2
GouraudWithEdges
 70
     3
 71
     2
 72
     2
 73
     1
 90
        2
 40
-0.6
 41
30.0
 62
     5
 63
     7
 74
     1
 91
        4
 64
     7
 65
   257
 75
     1
175
     1
 42
1.0
 92
        0
 66
   257
 43
1.0
 76
     1
 77
     6
 78
     2
 67
     7
 79
     5
170
     0
171
     0
290
     0
174
     0
 93
       13
 44
0.0
173
     0
291
     1
 45
0.0
1001
ACAD
1000
AcDbSavedByObjectVersion
1070
     0
  0
VISUALSTYLE
  5
38
102
{ACAD_REACTORS
330
2A
102
}
102
{ACAD_XDICTIONARY
360
252
102
}
330
2A
100
AcDbVisualStyle
  2
Linepattern
 70
    14
 71
     2
 72
     2
 73
     0
 90
        0
 40
-0.6
 41
-30.0
 62
     5
 63
     7
 74
     1
 91
        4
 64
     7
 65
   257
 75
     7
175
     7
 42
1.0
 92
        8
 66
     7
 43
1.0
 76
     1
 77
     6
 78
     2
 67
     7
 79
     5
170
     0
171
     0
290
     0
174
     0
 93
        1
 44
0.0
173
     0
291
     1
 45
0.0
1001
ACAD
1000
AcDbSavedByObjectVersion
1070
     0
  0
VISUALSTYLE
  5
33
102
{ACAD_REACTORS
330
2A
102
}
102
{ACAD_XDICTIONARY
360
248
102
}
330
2A
100
AcDbVisualStyle
  2
Realistic
 70
     8
 71
     2
 72
     2
 73
     0
 90
        0
 40
-0.6
 41
-30.0
 62
     5
 63
     7
 74
     1
 91
        0
 64
     7
 65
   257
 75
     1
175
     1
 42
1.0
 92
        8
 66
     8
 43
1.0
 76
     1
 77
     6
 78
     2
 67
     7
 79
     5
170
     0
171
     0
290
     0
174
     0
 93
       13
 44
0.0
173
     0
291
     0
 45
0.0
1001
ACAD
1000
AcDbSavedByObjectVersion
1070
     0
  0
VISUALSTYLE
  5
37
102
{ACAD_REACTORS
330
2A
102
}
102
{ACAD_XDICTIONARY
360
250
102
}
330
2A
100
AcDbVisualStyle
  2
Thicken
 70
    13
 71
     2
 72
     2
 73
     0
 90
        0
 40
-0.6
 41
-30.0
 62
     5
 63
     7
 74
     1
 91
        4
 64
     7
 65
   257
 75
     1
175
     1
 42
1.0
 92
       12
 66
     7
 43
1.0
 76
     1
 77
     6
 78
     2
 67
     7
 79
     5
170
     0
171
     0
290
     0
174
     0
 93
        1
 44
0.0
173
     0
291
     1
 45
0.0
1001
ACAD
1000
AcDbSavedByObjectVersion
1070
     0
  0
DICTIONARYVAR
  5
236
102
{ACAD_REACTORS
330
231
102
}
330
231
100
DictionaryVariables
280
     0
  1
2
  0
DICTIONARYVAR
  5
237
102
{ACAD_REACTORS
330
231
102
}
330
231
100
DictionaryVariables
280
     0
  1
1
  0
DICTIONARYVAR
  5
235
102
{ACAD_REACTORS
330
231
102
}
330
231
100
DictionaryVariables
280
     0
  1
80.000000
  0
DICTIONARYVAR
  5
234
102
{ACAD_REACTORS
330
231
102
}
330
231
100
DictionaryVariables
280
     0
  1
5.000000
  0
DICTIONARY
  5
25A
330
3D
100
AcDbDictionary
280
     1
281
     1
  3
ACAD_XREC_ROUNDTRIP
360
25B
  0
DICTIONARY
  5
258
330
3C
100
AcDbDictionary
280
     1
281
     1
  3
ACAD_XREC_ROUNDTRIP
360
259
  0
DICTIONARY
  5
25C
330
3E
100
AcDbDictionary
280
     1
281
     1
  3
ACAD_XREC_ROUNDTRIP
360
25D
  0
DICTIONARY
  5
240
330
2F
100
AcDbDictionary
280
     1
281
     1
  3
ACAD_XREC_ROUNDTRIP
360
241
  0
DICTIONARY
  5
244
330
31
100
AcDbDictionary
280
     1
281
     1
  3
ACAD_XREC_ROUNDTRIP
360
245
  0
DICTIONARY
  5
242
330
30
100
AcDbDictionary
280
     1
281
     1
  3
ACAD_XREC_ROUNDTRIP
360
243
  0
DICTIONARY
  5
246
330
32
100
AcDbDictionary
280
     1
281
     1
  3
ACAD_XREC_ROUNDTRIP
360
247
  0
DICTIONARY
  5
24E
330
36
100
AcDbDictionary
280
     1
281
     1
  3
ACAD_XREC_ROUNDTRIP
360
24F
  0
DICTIONARY
  5
256
330
3A
100
AcDbDictionary
280
     1
281
     1
  3
ACAD_XREC_ROUNDTRIP
360
257
  0
DICTIONARY
  5
24A
330
34
100
AcDbDictionary
280
     1
281
     1
  3
ACAD_XREC_ROUNDTRIP
360
24B
  0
DICTIONARY
  5
24C
330
35
100
AcDbDictionary
280
     1
281
     1
  3
ACAD_XREC_ROUNDTRIP
360
24D
  0
DICTIONARY
  5
254
330
39
100
AcDbDictionary
280
     1
281
     1
  3
ACAD_XREC_ROUNDTRIP
360
255
  0
DICTIONARY
  5
238
330
2B
100
AcDbDictionary
280
     1
281
     1
  3
ACAD_XREC_ROUNDTRIP
360
239
  0
DICTIONARY
  5
23A
330
2C
100
AcDbDictionary
280
     1
281
     1
  3
ACAD_XREC_ROUNDTRIP
360
23B
  0
DICTIONARY
  5
23C
330
2D
100
AcDbDictionary
280
     1
281
     1
  3
ACAD_XREC_ROUNDTRIP
360
23D
  0
DICTIONARY
  5
23E
330
2E
100
AcDbDictionary
280
     1
281
     1
  3
ACAD_XREC_ROUNDTRIP
360
23F
  0
DICTIONARY
  5
252
330
38
100
AcDbDictionary
280
     1
281
     1
  3
ACAD_XREC_ROUNDTRIP
360
253
  0
DICTIONARY
  5
248
330
33
100
AcDbDictionary
280
     1
281
     1
  3
ACAD_XREC_ROUNDTRIP
360
249
  0
DICTIONARY
  5
250
330
37
100
AcDbDictionary
280
     1
281
     1
  3
ACAD_XREC_ROUNDTRIP
360
251
  0
XRECORD
  5
25B
102
{ACAD_REACTORS
330
25A
102
}
330
25A
100
AcDbXrecord
280
     1
102
MATERIAL
148
0.0
149
0.0
149
0.0
 93
        0
 94
      127
282
     0
 72
     1
 77
     1
171
     1
175
     1
179
     1
273
     0
  0
XRECORD
  5
259
102
{ACAD_REACTORS
330
258
102
}
330
258
100
AcDbXrecord
280
     1
102
MATERIAL
148
0.0
149
0.0
149
0.0
 93
        0
 94
      127
282
     0
 72
     1
 77
     1
171
     1
175
     1
179
     1
273
     0
  0
XRECORD
  5
25D
102
{ACAD_REACTORS
330
25C
102
}
330
25C
100
AcDbXrecord
280
     1
102
MATERIAL
148
0.0
149
0.0
149
0.0
 93
        0
 94
      127
282
     0
 72
     1
 77
     1
171
     1
175
     1
179
     1
273
     0
  0
XRECORD
  5
241
102
{ACAD_REACTORS
330
240
102
}
330
240
100
AcDbXrecord
280
     1
102
RTVSPropertyOp0
 70
     1
102
RTVSPropertyOp1
 70
     1
102
RTVSPropertyOp2
 70
     1
102
RTVSPropertyOp3
 70
     1
102
RTVSPropertyOp4
 70
     1
102
RTVSPropertyOp5
 70
     1
102
RTVSPropertyOp6
 70
     1
102
RTVSPropertyOp7
 70
     1
102
RTVSPropertyOp8
 70
     1
102
RTVSPropertyOp9
 70
     1
102
RTVSPropertyOp10
 70
     1
102
RTVSPropertyOp11
 70
     1
102
RTVSPropertyOp12
 70
     1
102
RTVSPropertyOp13
 70
     1
102
RTVSPropertyOp14
 70
     1
102
RTVSPropertyOp15
 70
     1
102
RTVSPropertyOp16
 70
     1
102
RTVSPropertyOp17
 70
     1
102
RTVSPropertyOp18
 70
     1
102
RTVSPropertyOp19
 70
     1
102
RTVSPropertyOp20
 70
     1
102
RTVSPropertyOp21
 70
     1
102
RTVSPropertyOp22
 70
     1
102
RTVSPropertyOp23
 70
     1
102
RTVSPropertyOp24
 70
     1
102
RTVSPropertyOp25
 70
     1
102
RTVSPropertyOp26
 70
     1
102
RTVSPropertyOp27
 70
     1
  0
XRECORD
  5
245
102
{ACAD_REACTORS
330
244
102
}
330
244
100
AcDbXrecord
280
     1
102
RTVSPropertyOp0
 70
     1
102
RTVSPropertyOp1
 70
     1
102
RTVSPropertyOp2
 70
     1
102
RTVSPropertyOp3
 70
     1
102
RTVSPropertyOp4
 70
     1
102
RTVSPropertyOp5
 70
     1
102
RTVSPropertyOp6
 70
     1
102
RTVSPropertyOp7
 70
     1
102
RTVSPropertyOp8
 70
     1
102
RTVSPropertyOp9
 70
     1
102
RTVSPropertyOp10
 70
     1
102
RTVSPropertyOp11
 70
     1
102
RTVSPropertyOp12
 70
     1
102
RTVSPropertyOp13
 70
     1
102
RTVSPropertyOp14
 70
     1
102
RTVSPropertyOp15
 70
     1
102
RTVSPropertyOp16
 70
     1
102
RTVSPropertyOp17
 70
     1
102
RTVSPropertyOp18
 70
     1
102
RTVSPropertyOp19
 70
     1
102
RTVSPropertyOp20
 70
     1
102
RTVSPropertyOp21
 70
     1
102
RTVSPropertyOp22
 70
     1
102
RTVSPropertyOp23
 70
     1
102
RTVSPropertyOp24
 70
     1
102
RTVSPropertyOp25
 70
     1
102
RTVSPropertyOp26
 70
     1
102
RTVSPropertyOp27
 70
     1
  0
XRECORD
  5
243
102
{ACAD_REACTORS
330
242
102
}
330
242
100
AcDbXrecord
280
     1
102
RTVSPropertyOp0
 70
     1
102
RTVSPropertyOp1
 70
     1
102
RTVSPropertyOp2
 70
     1
102
RTVSPropertyOp3
 70
     1
102
RTVSPropertyOp4
 70
     1
102
RTVSPropertyOp5
 70
     1
102
RTVSPropertyOp6
 70
     1
102
RTVSPropertyOp7
 70
     1
102
RTVSPropertyOp8
 70
     1
102
RTVSPropertyOp9
 70
     1
102
RTVSPropertyOp10
 70
     1
102
RTVSPropertyOp11
 70
     1
102
RTVSPropertyOp12
 70
     1
102
RTVSPropertyOp13
 70
     1
102
RTVSPropertyOp14
 70
     1
102
RTVSPropertyOp15
 70
     1
102
RTVSPropertyOp16
 70
     1
102
RTVSPropertyOp17
 70
     1
102
RTVSPropertyOp18
 70
     1
102
RTVSPropertyOp19
 70
     1
102
RTVSPropertyOp20
 70
     1
102
RTVSPropertyOp21
 70
     1
102
RTVSPropertyOp22
 70
     1
102
RTVSPropertyOp23
 70
     1
102
RTVSPropertyOp24
 70
     1
102
RTVSPropertyOp25
 70
     1
102
RTVSPropertyOp26
 70
     1
102
RTVSPropertyOp27
 70
     1
  0
XRECORD
  5
247
102
{ACAD_REACTORS
330
246
102
}
330
246
100
AcDbXrecord
280
     1
102
RTVSPropertyOp0
 70
     1
102
RTVSPropertyOp1
 70
     1
102
RTVSPropertyOp2
 70
     1
102
RTVSPropertyOp3
 70
     1
102
RTVSPropertyOp4
 70
     1
102
RTVSPropertyOp5
 70
     1
102
RTVSPropertyOp6
 70
     1
102
RTVSPropertyOp7
 70
     1
102
RTVSPropertyOp8
 70
     1
102
RTVSPropertyOp9
 70
     1
102
RTVSPropertyOp10
 70
     1
102
RTVSPropertyOp11
 70
     1
102
RTVSPropertyOp12
 70
     1
102
RTVSPropertyOp13
 70
     1
102
RTVSPropertyOp14
 70
     1
102
RTVSPropertyOp15
 70
     1
102
RTVSPropertyOp16
 70
     1
102
RTVSPropertyOp17
 70
     1
102
RTVSPropertyOp18
 70
     1
102
RTVSPropertyOp19
 70
     1
102
RTVSPropertyOp20
 70
     1
102
RTVSPropertyOp21
 70
     1
102
RTVSPropertyOp22
 70
     1
102
RTVSPropertyOp23
 70
     1
102
RTVSPropertyOp24
 70
     1
102
RTVSPropertyOp25
 70
     1
102
RTVSPropertyOp26
 70
     1
102
RTVSPropertyOp27
 70
     1
  0
XRECORD
  5
24F
102
{ACAD_REACTORS
330
24E
102
}
330
24E
100
AcDbXrecord
280
     1
102
RTVSPropertyOp0
 70
     1
102
RTVSPropertyOp1
 70
     1
102
RTVSPropertyOp2
 70
     1
102
RTVSPropertyOp3
 70
     1
102
RTVSPropertyOp4
 70
     1
102
RTVSPropertyOp5
 70
     1
102
RTVSPropertyOp6
 70
     1
102
RTVSPropertyOp7
 70
     1
102
RTVSPropertyOp8
 70
     1
102
RTVSPropertyOp9
 70
     1
102
RTVSPropertyOp10
 70
     1
102
RTVSPropertyOp11
 70
     1
102
RTVSPropertyOp12
 70
     1
102
RTVSPropertyOp13
 70
     1
102
RTVSPropertyOp14
 70
     1
102
RTVSPropertyOp15
 70
     1
102
RTVSPropertyOp16
 70
     1
102
RTVSPropertyOp17
 70
     1
102
RTVSPropertyOp18
 70
     1
102
RTVSPropertyOp19
 70
     1
102
RTVSPropertyOp20
 70
     1
102
RTVSPropertyOp21
 70
     1
102
RTVSPropertyOp22
 70
     1
102
RTVSPropertyOp23
 70
     1
102
RTVSPropertyOp24
 70
     1
102
RTVSPropertyOp25
 70
     1
102
RTVSPropertyOp26
 70
     1
102
RTVSPropertyOp27
 70
     1
  0
XRECORD
  5
257
102
{ACAD_REACTORS
330
256
102
}
330
256
100
AcDbXrecord
280
     1
102
RTVSPropertyOp0
 70
     1
102
RTVSPropertyOp1
 70
     1
102
RTVSPropertyOp2
 70
     1
102
RTVSPropertyOp3
 70
     1
102
RTVSPropertyOp4
 70
     1
102
RTVSPropertyOp5
 70
     1
102
RTVSPropertyOp6
 70
     1
102
RTVSPropertyOp7
 70
     1
102
RTVSPropertyOp8
 70
     1
102
RTVSPropertyOp9
 70
     1
102
RTVSPropertyOp10
 70
     1
102
RTVSPropertyOp11
 70
     1
102
RTVSPropertyOp12
 70
     1
102
RTVSPropertyOp13
 70
     1
102
RTVSPropertyOp14
 70
     1
102
RTVSPropertyOp15
 70
     1
102
RTVSPropertyOp16
 70
     1
102
RTVSPropertyOp17
 70
     1
102
RTVSPropertyOp18
 70
     1
102
RTVSPropertyOp19
 70
     1
102
RTVSPropertyOp20
 70
     1
102
RTVSPropertyOp21
 70
     1
102
RTVSPropertyOp22
 70
     1
102
RTVSPropertyOp23
 70
     1
102
RTVSPropertyOp24
 70
     1
102
RTVSPropertyOp25
 70
     1
102
RTVSPropertyOp26
 70
     1
102
RTVSPropertyOp27
 70
     1
  0
XRECORD
  5
24B
102
{ACAD_REACTORS
330
24A
102
}
330
24A
100
AcDbXrecord
280
     1
102
RTVSPropertyOp0
 70
     1
102
RTVSPropertyOp1
 70
     1
102
RTVSPropertyOp2
 70
     1
102
RTVSPropertyOp3
 70
     1
102
RTVSPropertyOp4
 70
     1
102
RTVSPropertyOp5
 70
     1
102
RTVSPropertyOp6
 70
     1
102
RTVSPropertyOp7
 70
     1
102
RTVSPropertyOp8
 70
     1
102
RTVSPropertyOp9
 70
     1
102
RTVSPropertyOp10
 70
     1
102
RTVSPropertyOp11
 70
     1
102
RTVSPropertyOp12
 70
     1
102
RTVSPropertyOp13
 70
     1
102
RTVSPropertyOp14
 70
     1
102
RTVSPropertyOp15
 70
     1
102
RTVSPropertyOp16
 70
     1
102
RTVSPropertyOp17
 70
     1
102
RTVSPropertyOp18
 70
     1
102
RTVSPropertyOp19
 70
     1
102
RTVSPropertyOp20
 70
     1
102
RTVSPropertyOp21
 70
     1
102
RTVSPropertyOp22
 70
     1
102
RTVSPropertyOp23
 70
     1
102
RTVSPropertyOp24
 70
     1
102
RTVSPropertyOp25
 70
     1
102
RTVSPropertyOp26
 70
     1
102
RTVSPropertyOp27
 70
     1
  0
XRECORD
  5
24D
102
{ACAD_REACTORS
330
24C
102
}
330
24C
100
AcDbXrecord
280
     1
102
RTVSPropertyOp0
 70
     1
102
RTVSPropertyOp1
 70
     1
102
RTVSPropertyOp2
 70
     1
102
RTVSPropertyOp3
 70
     1
102
RTVSPropertyOp4
 70
     1
102
RTVSPropertyOp5
 70
     1
102
RTVSPropertyOp6
 70
     1
102
RTVSPropertyOp7
 70
     1
102
RTVSPropertyOp8
 70
     1
102
RTVSPropertyOp9
 70
     1
102
RTVSPropertyOp10
 70
     1
102
RTVSPropertyOp11
 70
     1
102
RTVSPropertyOp12
 70
     1
102
RTVSPropertyOp13
 70
     1
102
RTVSPropertyOp14
 70
     1
102
RTVSPropertyOp15
 70
     1
102
RTVSPropertyOp16
 70
     1
102
RTVSPropertyOp17
 70
     1
102
RTVSPropertyOp18
 70
     1
102
RTVSPropertyOp19
 70
     1
102
RTVSPropertyOp20
 70
     1
102
RTVSPropertyOp21
 70
     1
102
RTVSPropertyOp22
 70
     1
102
RTVSPropertyOp23
 70
     1
102
RTVSPropertyOp24
 70
     1
102
RTVSPropertyOp25
 70
     1
102
RTVSPropertyOp26
 70
     1
102
RTVSPropertyOp27
 70
     1
  0
XRECORD
  5
255
102
{ACAD_REACTORS
330
254
102
}
330
254
100
AcDbXrecord
280
     1
102
RTVSPropertyOp0
 70
     1
102
RTVSPropertyOp1
 70
     1
102
RTVSPropertyOp2
 70
     1
102
RTVSPropertyOp3
 70
     1
102
RTVSPropertyOp4
 70
     1
102
RTVSPropertyOp5
 70
     1
102
RTVSPropertyOp6
 70
     1
102
RTVSPropertyOp7
 70
     1
102
RTVSPropertyOp8
 70
     1
102
RTVSPropertyOp9
 70
     1
102
RTVSPropertyOp10
 70
     1
102
RTVSPropertyOp11
 70
     1
102
RTVSPropertyOp12
 70
     1
102
RTVSPropertyOp13
 70
     1
102
RTVSPropertyOp14
 70
     1
102
RTVSPropertyOp15
 70
     1
102
RTVSPropertyOp16
 70
     1
102
RTVSPropertyOp17
 70
     1
102
RTVSPropertyOp18
 70
     1
102
RTVSPropertyOp19
 70
     1
102
RTVSPropertyOp20
 70
     1
102
RTVSPropertyOp21
 70
     1
102
RTVSPropertyOp22
 70
     1
102
RTVSPropertyOp23
 70
     1
102
RTVSPropertyOp24
 70
     1
102
RTVSPropertyOp25
 70
     1
102
RTVSPropertyOp26
 70
     1
102
RTVSPropertyOp27
 70
     1
  0
XRECORD
  5
239
102
{ACAD_REACTORS
330
238
102
}
330
238
100
AcDbXrecord
280
     1
102
RTVSPropertyOp0
 70
     1
102
RTVSPropertyOp1
 70
     1
102
RTVSPropertyOp2
 70
     1
102
RTVSPropertyOp3
 70
     1
102
RTVSPropertyOp4
 70
     1
102
RTVSPropertyOp5
 70
     1
102
RTVSPropertyOp6
 70
     1
102
RTVSPropertyOp7
 70
     1
102
RTVSPropertyOp8
 70
     1
102
RTVSPropertyOp9
 70
     1
102
RTVSPropertyOp10
 70
     1
102
RTVSPropertyOp11
 70
     1
102
RTVSPropertyOp12
 70
     1
102
RTVSPropertyOp13
 70
     1
102
RTVSPropertyOp14
 70
     1
102
RTVSPropertyOp15
 70
     1
102
RTVSPropertyOp16
 70
     1
102
RTVSPropertyOp17
 70
     1
102
RTVSPropertyOp18
 70
     1
102
RTVSPropertyOp19
 70
     1
102
RTVSPropertyOp20
 70
     1
102
RTVSPropertyOp21
 70
     1
102
RTVSPropertyOp22
 70
     1
102
RTVSPropertyOp23
 70
     1
102
RTVSPropertyOp24
 70
     1
102
RTVSPropertyOp25
 70
     1
102
RTVSPropertyOp26
 70
     1
102
RTVSPropertyOp27
 70
     1
  0
XRECORD
  5
23B
102
{ACAD_REACTORS
330
23A
102
}
330
23A
100
AcDbXrecord
280
     1
102
RTVSPropertyOp0
 70
     1
102
RTVSPropertyOp1
 70
     1
102
RTVSPropertyOp2
 70
     1
102
RTVSPropertyOp3
 70
     1
102
RTVSPropertyOp4
 70
     1
102
RTVSPropertyOp5
 70
     1
102
RTVSPropertyOp6
 70
     1
102
RTVSPropertyOp7
 70
     1
102
RTVSPropertyOp8
 70
     1
102
RTVSPropertyOp9
 70
     1
102
RTVSPropertyOp10
 70
     1
102
RTVSPropertyOp11
 70
     1
102
RTVSPropertyOp12
 70
     1
102
RTVSPropertyOp13
 70
     1
102
RTVSPropertyOp14
 70
     1
102
RTVSPropertyOp15
 70
     1
102
RTVSPropertyOp16
 70
     1
102
RTVSPropertyOp17
 70
     1
102
RTVSPropertyOp18
 70
     1
102
RTVSPropertyOp19
 70
     1
102
RTVSPropertyOp20
 70
     1
102
RTVSPropertyOp21
 70
     1
102
RTVSPropertyOp22
 70
     1
102
RTVSPropertyOp23
 70
     1
102
RTVSPropertyOp24
 70
     1
102
RTVSPropertyOp25
 70
     1
102
RTVSPropertyOp26
 70
     1
102
RTVSPropertyOp27
 70
     1
  0
XRECORD
  5
23D
102
{ACAD_REACTORS
330
23C
102
}
330
23C
100
AcDbXrecord
280
     1
102
RTVSPropertyOp0
 70
     1
102
RTVSPropertyOp1
 70
     1
102
RTVSPropertyOp2
 70
     1
102
RTVSPropertyOp3
 70
     1
102
RTVSPropertyOp4
 70
     1
102
RTVSPropertyOp5
 70
     1
102
RTVSPropertyOp6
 70
     1
102
RTVSPropertyOp7
 70
     1
102
RTVSPropertyOp8
 70
     1
102
RTVSPropertyOp9
 70
     1
102
RTVSPropertyOp10
 70
     1
102
RTVSPropertyOp11
 70
     1
102
RTVSPropertyOp12
 70
     1
102
RTVSPropertyOp13
 70
     1
102
RTVSPropertyOp14
 70
     1
102
RTVSPropertyOp15
 70
     1
102
RTVSPropertyOp16
 70
     1
102
RTVSPropertyOp17
 70
     1
102
RTVSPropertyOp18
 70
     1
102
RTVSPropertyOp19
 70
     1
102
RTVSPropertyOp20
 70
     1
102
RTVSPropertyOp21
 70
     1
102
RTVSPropertyOp22
 70
     1
102
RTVSPropertyOp23
 70
     1
102
RTVSPropertyOp24
 70
     1
102
RTVSPropertyOp25
 70
     1
102
RTVSPropertyOp26
 70
     1
102
RTVSPropertyOp27
 70
     1
  0
XRECORD
  5
23F
102
{ACAD_REACTORS
330
23E
102
}
330
23E
100
AcDbXrecord
280
     1
102
RTVSPropertyOp0
 70
     1
102
RTVSPropertyOp1
 70
     1
102
RTVSPropertyOp2
 70
     1
102
RTVSPropertyOp3
 70
     1
102
RTVSPropertyOp4
 70
     1
102
RTVSPropertyOp5
 70
     1
102
RTVSPropertyOp6
 70
     1
102
RTVSPropertyOp7
 70
     1
102
RTVSPropertyOp8
 70
     1
102
RTVSPropertyOp9
 70
     1
102
RTVSPropertyOp10
 70
     1
102
RTVSPropertyOp11
 70
     1
102
RTVSPropertyOp12
 70
     1
102
RTVSPropertyOp13
 70
     1
102
RTVSPropertyOp14
 70
     1
102
RTVSPropertyOp15
 70
     1
102
RTVSPropertyOp16
 70
     1
102
RTVSPropertyOp17
 70
     1
102
RTVSPropertyOp18
 70
     1
102
RTVSPropertyOp19
 70
     1
102
RTVSPropertyOp20
 70
     1
102
RTVSPropertyOp21
 70
     1
102
RTVSPropertyOp22
 70
     1
102
RTVSPropertyOp23
 70
     1
102
RTVSPropertyOp24
 70
     1
102
RTVSPropertyOp25
 70
     1
102
RTVSPropertyOp26
 70
     1
102
RTVSPropertyOp27
 70
     1
  0
XRECORD
  5
253
102
{ACAD_REACTORS
330
252
102
}
330
252
100
AcDbXrecord
280
     1
102
RTVSPropertyOp0
 70
     1
102
RTVSPropertyOp1
 70
     1
102
RTVSPropertyOp2
 70
     1
102
RTVSPropertyOp3
 70
     1
102
RTVSPropertyOp4
 70
     1
102
RTVSPropertyOp5
 70
     1
102
RTVSPropertyOp6
 70
     1
102
RTVSPropertyOp7
 70
     1
102
RTVSPropertyOp8
 70
     1
102
RTVSPropertyOp9
 70
     1
102
RTVSPropertyOp10
 70
     1
102
RTVSPropertyOp11
 70
     1
102
RTVSPropertyOp12
 70
     1
102
RTVSPropertyOp13
 70
     1
102
RTVSPropertyOp14
 70
     1
102
RTVSPropertyOp15
 70
     1
102
RTVSPropertyOp16
 70
     1
102
RTVSPropertyOp17
 70
     1
102
RTVSPropertyOp18
 70
     1
102
RTVSPropertyOp19
 70
     1
102
RTVSPropertyOp20
 70
     1
102
RTVSPropertyOp21
 70
     1
102
RTVSPropertyOp22
 70
     1
102
RTVSPropertyOp23
 70
     1
102
RTVSPropertyOp24
 70
     1
102
RTVSPropertyOp25
 70
     1
102
RTVSPropertyOp26
 70
     1
102
RTVSPropertyOp27
 70
     1
  0
XRECORD
  5
249
102
{ACAD_REACTORS
330
248
102
}
330
248
100
AcDbXrecord
280
     1
102
RTVSPropertyOp0
 70
     1
102
RTVSPropertyOp1
 70
     1
102
RTVSPropertyOp2
 70
     1
102
RTVSPropertyOp3
 70
     1
102
RTVSPropertyOp4
 70
     1
102
RTVSPropertyOp5
 70
     1
102
RTVSPropertyOp6
 70
     1
102
RTVSPropertyOp7
 70
     1
102
RTVSPropertyOp8
 70
     1
102
RTVSPropertyOp9
 70
     1
102
RTVSPropertyOp10
 70
     1
102
RTVSPropertyOp11
 70
     1
102
RTVSPropertyOp12
 70
     1
102
RTVSPropertyOp13
 70
     1
102
RTVSPropertyOp14
 70
     1
102
RTVSPropertyOp15
 70
     1
102
RTVSPropertyOp16
 70
     1
102
RTVSPropertyOp17
 70
     1
102
RTVSPropertyOp18
 70
     1
102
RTVSPropertyOp19
 70
     1
102
RTVSPropertyOp20
 70
     1
102
RTVSPropertyOp21
 70
     1
102
RTVSPropertyOp22
 70
     1
102
RTVSPropertyOp23
 70
     1
102
RTVSPropertyOp24
 70
     1
102
RTVSPropertyOp25
 70
     1
102
RTVSPropertyOp26
 70
     1
102
RTVSPropertyOp27
 70
     1
  0
XRECORD
  5
251
102
{ACAD_REACTORS
330
250
102
}
330
250
100
AcDbXrecord
280
     1
102
RTVSPropertyOp0
 70
     1
102
RTVSPropertyOp1
 70
     1
102
RTVSPropertyOp2
 70
     1
102
RTVSPropertyOp3
 70
     1
102
RTVSPropertyOp4
 70
     1
102
RTVSPropertyOp5
 70
     1
102
RTVSPropertyOp6
 70
     1
102
RTVSPropertyOp7
 70
     1
102
RTVSPropertyOp8
 70
     1
102
RTVSPropertyOp9
 70
     1
102
RTVSPropertyOp10
 70
     1
102
RTVSPropertyOp11
 70
     1
102
RTVSPropertyOp12
 70
     1
102
RTVSPropertyOp13
 70
     1
102
RTVSPropertyOp14
 70
     1
102
RTVSPropertyOp15
 70
     1
102
RTVSPropertyOp16
 70
     1
102
RTVSPropertyOp17
 70
     1
102
RTVSPropertyOp18
 70
     1
102
RTVSPropertyOp19
 70
     1
102
RTVSPropertyOp20
 70
     1
102
RTVSPropertyOp21
 70
     1
102
RTVSPropertyOp22
 70
     1
102
RTVSPropertyOp23
 70
     1
102
RTVSPropertyOp24
 70
     1
102
RTVSPropertyOp25
 70
     1
102
RTVSPropertyOp26
 70
     1
102
RTVSPropertyOp27
 70
     1
  0
ENDSEC
  0
EOF
