  0
SECTION
  2
HEADER
  9
$ACADVER
  1
AC1009
  9
$DWGCODEPAGE
  3
ansi_932
  9
$INSBASE
 10
0.0
 20
0.0
 30
0.0
  9
$EXTMIN
 10
43.31565927973276
 20
29.95689004465839
 30
0.0
  9
$EXTMAX
 10
934.6008325962264
 20
1098.139189381748
 30
0.0
  9
$LIMMIN
 10
0.0
 20
0.0
  9
$LIMMAX
 10
420.0
 20
297.0
  9
$ORTHOMODE
 70
     0
  9
$REGENMODE
 70
     1
  9
$FILLMODE
 70
     1
  9
$QTEXTMODE
 70
     0
  9
$MIRRTEXT
 70
     1
  9
$DRAGMODE
 70
     2
  9
$LTSCALE
 40
1.0
  9
$OSMODE
 70
   511
  9
$ATTMODE
 70
     1
  9
$TEXTSIZE
 40
2.5
  9
$TRACEWID
 40
1.0
  9
$TEXTSTYLE
  7
STANDARD
  9
$CLAYER
  8
VIEW
  9
$CELTYPE
  6
BYLAYER
  9
$CECOLOR
 62
   256
  9
$DIMSCALE
 40
1.0
  9
$DIMASZ
 40
3.0
  9
$DIMEXO
 40
0.625
  9
$DIMDLI
 40
3.75
  9
$DIMRND
 40
0.0
  9
$DIMDLE
 40
0.0
  9
$DIMEXE
 40
1.25
  9
$DIMTP
 40
0.0
  9
$DIMTM
 40
0.0
  9
$DIMTXT
 40
1.336918010447422
  9
$DIMCEN
 40
2.5
  9
$DIMTSZ
 40
0.0
  9
$DIMTOL
 70
     0
  9
$DIMLIM
 70
     0
  9
$DIMTIH
 70
     0
  9
$DIMTOH
 70
     0
  9
$DIMSE1
 70
     0
  9
$DIMSE2
 70
     0
  9
$DIMTAD
 70
     1
  9
$DIMZIN
 70
     8
  9
$DIMBLK
  1

  9
$DIMASO
 70
     1
  9
$DIMSHO
 70
     1
  9
$DIMPOST
  1

  9
$DIMAPOST
  1

  9
$DIMALT
 70
     0
  9
$DIMALTD
 70
     3
  9
$DIMALTF
 40
0.03937007874016
  9
$DIMLFAC
 40
1.0
  9
$DIMTOFL
 70
     1
  9
$DIMTVP
 40
0.0
  9
$DIMTIX
 70
     0
  9
$DIMSOXD
 70
     0
  9
$DIMSAH
 70
     0
  9
$DIMBLK1
  1

  9
$DIMBLK2
  1

  9
$DIMSTYLE
  2
ISO-25
  9
$DIMCLRD
 70
     0
  9
$DIMCLRE
 70
     0
  9
$DIMCLRT
 70
     0
  9
$DIMTFAC
 40
1.0
  9
$DIMGAP
 40
0.625
  9
$LUNITS
 70
     2
  9
$LUPREC
 70
     4
  9
$SKETCHINC
 40
1.0
  9
$FILLETRAD
 40
10.0
  9
$AUNITS
 70
     0
  9
$AUPREC
 70
     0
  9
$MENU
  1
.
  9
$ELEVATION
 40
0.0
  9
$PELEVATION
 40
0.0
  9
$THICKNESS
 40
0.0
  9
$LIMCHECK
 70
     0
  9
$CHAMFERA
 40
10.0
  9
$CHAMFERB
 40
10.0
  9
$SKPOLY
 70
     0
  9
$TDCREATE
 40
2457825.874961238
  9
$TDUPDATE
 40
2457825.885159479
  9
$TDINDWG
 40
0.008808287
  9
$TDUSRTIMER
 40
2457825.50611625
  9
$USRTIMER
 70
     1
  9
$ANGBASE
 50
0.0
  9
$ANGDIR
 70
     0
  9
$PDMODE
 70
     0
  9
$PDSIZE
 40
0.0
  9
$PLINEWID
 40
0.0
  9
$COORDS
 70
     1
  9
$SPLFRAME
 70
     0
  9
$SPLINETYPE
 70
     6
  9
$SPLINESEGS
 70
     8
  9
$ATTDIA
 70
     0
  9
$ATTREQ
 70
     1
  9
$HANDLING
 70
     1
  9
$HANDSEED
  5
3A0
  9
$SURFTAB1
 70
     6
  9
$SURFTAB2
 70
     6
  9
$SURFTYPE
 70
     6
  9
$SURFU
 70
     6
  9
$SURFV
 70
     6
  9
$UCSNAME
  2

  9
$UCSORG
 10
0.0
 20
0.0
 30
0.0
  9
$UCSXDIR
 10
1.0
 20
0.0
 30
0.0
  9
$UCSYDIR
 10
0.0
 20
1.0
 30
0.0
  9
$PUCSNAME
  2

  9
$PUCSORG
 10
0.0
 20
0.0
 30
0.0
  9
$PUCSXDIR
 10
1.0
 20
0.0
 30
0.0
  9
$PUCSYDIR
 10
0.0
 20
1.0
 30
0.0
  9
$USERI1
 70
     0
  9
$USERI2
 70
     0
  9
$USERI3
 70
     0
  9
$USERI4
 70
     0
  9
$USERI5
 70
     0
  9
$USERR1
 40
0.0
  9
$USERR2
 40
0.0
  9
$USERR3
 40
0.0
  9
$USERR4
 40
0.0
  9
$USERR5
 40
0.0
  9
$WORLDVIEW
 70
     1
  9
$SHADEDGE
 70
     3
  9
$SHADEDIF
 70
    70
  9
$TILEMODE
 70
     1
  9
$MAXACTVP
 70
    64
  9
$PLIMCHECK
 70
     0
  9
$PEXTMIN
 10
1.000000000000000E+20
 20
1.000000000000000E+20
 30
1.000000000000000E+20
  9
$PEXTMAX
 10
-1.000000000000000E+20
 20
-1.000000000000000E+20
 30
-1.000000000000000E+20
  9
$PLIMMIN
 10
0.0
 20
0.0
  9
$PLIMMAX
 10
0.0
 20
0.0
  9
$UNITMODE
 70
     0
  9
$VISRETAIN
 70
     1
  9
$PLINEGEN
 70
     0
  9
$PSLTSCALE
 70
     1
  0
ENDSEC
  0
SECTION
  2
TABLES
  0
TABLE
  2
VPORT
 70
     1
  0
VPORT
  2
*ACTIVE
 70
     0
 10
0.0
 20
0.0
 11
1.0
 21
1.0
 12
702.3379686959686
 22
651.4148667102504
 13
0.0
 23
0.0
 14
10.0
 24
10.0
 15
10.0
 25
10.0
 16
0.0
 26
0.0
 36
1.0
 17
0.0
 27
0.0
 37
0.0
 40
733.8844239926335
 41
1.949350649350649
 42
50.0
 43
0.0
 44
0.0
 50
0.0
 51
0.0
 71
    16
 72
   100
 73
     1
 74
     3
 75
     0
 76
     0
 77
     0
 78
     0
  0
ENDTAB
  0
TABLE
  2
LTYPE
 70
     1
  0
LTYPE
  2
CONTINUOUS
 70
     0
  3
Solid line
 72
    65
 73
     0
 40
0.0
  0
ENDTAB
  0
TABLE
  2
LAYER
 70
     5
  0
LAYER
  2
0
 70
     0
 62
     7
  6
CONTINUOUS
  0
LAYER
  2
VIEW
 70
     0
 62
     2
  6
CONTINUOUS
  0
LAYER
  2
EDGE
 70
     0
 62
     3
  6
CONTINUOUS
  0
LAYER
  2
DEFPOINTS
 70
     0
 62
     7
  6
CONTINUOUS
  0
LAYER
  2
COMMENT
 70
     0
 62
     6
  6
CONTINUOUS
  0
ENDTAB
  0
TABLE
  2
STYLE
 70
     1
  0
STYLE
  2
STANDARD
 70
     0
 40
0.0
 41
1.0
 50
0.0
 71
     0
 42
2.5
  3
txt
  4

  0
ENDTAB
  0
TABLE
  2
VIEW
 70
     0
  0
ENDTAB
  0
TABLE
  2
UCS
 70
     0
  0
ENDTAB
  0
TABLE
  2
APPID
 70
     3
  0
APPID
  2
ACAD
 70
     0
  0
APPID
  2
ACAECLAYERSTANDARD
 70
     0
  0
APPID
  2
ACAD_DSTYLE_DIMRADIAL_EXTE
 70
     0
  0
ENDTAB
  0
TABLE
  2
DIMSTYLE
 70
     1
  0
DIMSTYLE
  2
ISO-25
 70
     0
  3

  4

  5

  6

  7

 40
1.0
 41
2.5
 42
0.625
 43
3.75
 44
1.25
 45
0.0
 46
0.0
 47
0.0
 48
0.0
140
2.5
141
2.5
142
0.0
143
0.03937007874016
144
1.0
145
0.0
146
1.0
147
0.625
 71
     0
 72
     0
 73
     0
 74
     0
 75
     0
 76
     0
 77
     1
 78
     8
170
     0
171
     3
172
     1
173
     0
174
     0
175
     0
176
     0
177
     0
178
     0
  0
ENDTAB
  0
ENDSEC
  0
SECTION
  2
BLOCKS
  0
BLOCK
  8
0
  2
$MODEL_SPACE
 70
     0
 10
0.0
 20
0.0
 30
0.0
  3
$MODEL_SPACE
  1

  0
ENDBLK
  5
21
  8
0
  0
BLOCK
 67
     1
  8
0
  2
$PAPER_SPACE
 70
     0
 10
0.0
 20
0.0
 30
0.0
  3
$PAPER_SPACE
  1

  0
ENDBLK
  5
1D
 67
     1
  8
0
  0
BLOCK
  8
0
  2
*D0
 70
     1
 10
0.0
 20
0.0
 30
0.0
  3
*D0
  1

  0
LINE
  5
2EF
  8
COMMENT
 62
     0
 10
377.7735349650158
 20
293.2803245364939
 30
0.0
 11
385.1987080370667
 21
280.0360814360038
 31
0.0
  0
LINE
  5
2F0
  8
COMMENT
 62
     0
 10
373.3723161612067
 20
301.1307559285256
 30
0.0
 11
371.9052432266037
 21
303.7475663925361
 31
0.0
  0
TEXT
  5
2F1
  8
COMMENT
  6
CONTINUOUS
 62
     0
 10
384.3485943396317
 20
282.8304799436389
 30
0.0
 40
1.336918010447422
  1
\U+22053
 50
299.276472557855
  0
LINE
  5
2F2
  8
COMMENT
 62
     0
 10
374.8393890958097
 20
298.513945464515
 30
0.0
 11
376.3064620304128
 21
295.8971350005045
 31
0.0
  0
SOLID
  5
2F3
  8
COMMENT
 62
     0
 10
372.9361810838716
 20
300.8862437727584
 30
0.0
 11
373.8084512385418
 21
301.3752680842927
 31
0.0
 12
374.8393890958097
 22
298.513945464515
 32
0.0
 13
374.8393890958097
 23
298.513945464515
 33
0.0
  0
SOLID
  5
2F4
  8
COMMENT
 62
     0
 10
378.2096700423509
 20
293.5248366922611
 30
0.0
 11
377.3373998876807
 21
293.0358123807268
 31
0.0
 12
376.3064620304128
 22
295.8971350005045
 32
0.0
 13
376.3064620304128
 23
295.8971350005045
 33
0.0
  0
POINT
  5
2F5
  8
DEFPOINTS
 62
     0
 10
376.3064620304128
 20
295.8971350005045
 30
0.0
  0
POINT
  5
2F6
  8
DEFPOINTS
 62
     0
 10
374.8393890958097
 20
298.513945464515
 30
0.0
  0
ENDBLK
  5
2EE
  8
0
  0
BLOCK
  8
0
  2
*X1
 70
     1
 10
0.0
 20
0.0
 30
0.0
  3
*X1
  1

  0
TEXT
  5
2F9
  8
COMMENT
  6
CONTINUOUS
 10
44.16565927973277
 20
262.0119836076106
 30
0.0
 40
10.0
  1
É{ÉìÉfç|î¬ t2.3
  0
TEXT
  5
2FA
  8
COMMENT
  6
CONTINUOUS
 10
43.31565927973277
 20
226.5286502742773
 30
0.0
 40
10.0
  1
ã»Ç∞îºåaÅF 1.15 Ç∆ÇµÇƒìWäJê}çÏê¨
  0
ENDBLK
  5
2FC
  8
0
  0
ENDSEC
  0
SECTION
  2
ENTITIES
  0
LINE
  5
40
  8
VIEW
 10
780.4081744093025
 20
955.8017456054688
 30
0.0
 11
782.2582054093025
 21
955.8017456054688
 31
0.0
  0
LINE
  5
41
  8
VIEW
 10
783.4082054093024
 20
680.8017456054688
 30
0.0
 11
783.4082054093024
 21
675.8017456054688
 31
0.0
  0
LINE
  5
42
  8
VIEW
 10
783.4082054093026
 20
675.8017456054688
 30
0.0
 11
782.2582054093025
 21
675.8017456054688
 31
0.0
  0
LINE
  5
45
  8
VIEW
 10
362.1582054093025
 20
952.3517456054688
 30
0.0
 11
362.1582054093025
 21
950.0517456054688
 31
0.0
  0
LINE
  5
46
  8
VIEW
 10
689.2581744093025
 20
953.5017456054685
 30
0.0
 11
694.2581744093025
 21
953.5017456054685
 31
0.0
  0
LINE
  5
47
  8
VIEW
 10
782.2581744093025
 20
678.101745605469
 30
0.0
 11
359.1582364093026
 21
678.101745605469
 31
0.0
  0
ARC
  5
48
  8
VIEW
 10
786.8582054093024
 20
952.3517456054688
 30
0.0
 40
1.149999999999864
 50
90.00000000001133
 51
180.0
  0
LINE
  5
49
  8
VIEW
 10
774.2581744093025
 20
955.8017456054686
 30
0.0
 11
694.2581744093025
 21
955.8017456054686
 31
0.0
  0
LINE
  5
4A
  8
VIEW
 10
359.1582054093025
 20
675.8017456054688
 30
0.0
 11
359.1582054093025
 21
679.2517456054688
 31
0.0
  0
LINE
  5
4C
  8
VIEW
 10
774.2581744093025
 20
953.5017456054685
 30
0.0
 11
779.2581744093025
 21
953.5017456054685
 31
0.0
  0
LINE
  5
4E
  8
VIEW
 10
359.1582054093025
 20
675.8017456054688
 30
0.0
 11
358.0082054093025
 21
675.8017456054688
 31
0.0
  0
LINE
  5
4F
  8
VIEW
 10
355.7082054093026
 20
952.3517456054689
 30
0.0
 11
355.7082054093026
 21
680.8017456054688
 31
0.0
  0
LINE
  5
50
  8
VIEW
 10
694.2581744093025
 20
955.8017456054686
 30
0.0
 11
689.2581744093025
 21
955.8017456054686
 31
0.0
  0
LINE
  5
51
  8
VIEW
 10
329.2082054093026
 20
953.5017456054688
 30
0.0
 11
332.2082054093027
 21
953.5017456054688
 31
0.0
  0
LINE
  5
52
  8
VIEW
 10
782.2582054093025
 20
679.2517456054688
 30
0.0
 11
782.2582054093025
 21
675.8017456054688
 31
0.0
  0
ARC
  5
55
  8
VIEW
 10
786.8582054093024
 20
952.3517456054688
 30
0.0
 40
3.450000000000045
 50
90.00000000000378
 51
180.0
  0
LINE
  5
56
  8
VIEW
 10
684.2581744093025
 20
953.5017456054687
 30
0.0
 11
689.2581744093025
 21
953.5017456054687
 31
0.0
  0
LINE
  5
57
  8
VIEW
 10
332.2082054093027
 20
955.8017456054688
 30
0.0
 11
329.2082054093026
 21
955.8017456054688
 31
0.0
  0
LINE
  5
58
  8
VIEW
 10
689.2581744093025
 20
955.8017456054686
 30
0.0
 11
689.2581744093025
 21
953.5017456054685
 31
0.0
  0
ARC
  5
59
  8
VIEW
 10
354.5582054093026
 20
952.3517456054689
 30
0.0
 40
1.149999999999977
 50
0.0
 51
90.0
  0
LINE
  5
5A
  8
VIEW
 10
782.2581744093025
 20
678.101745605469
 30
0.0
 11
782.2581744093025
 21
675.8017456054689
 31
0.0
  0
LINE
  5
5B
  8
VIEW
 10
694.2581744093025
 20
953.5017456054685
 30
0.0
 11
774.2581744093025
 21
953.5017456054685
 31
0.0
  0
LINE
  5
5C
  8
VIEW
 10
359.1582054093025
 20
955.8017456054688
 30
0.0
 11
361.0082054093024
 21
955.8017456054688
 31
0.0
  0
LINE
  5
5E
  8
VIEW
 10
355.7082054093025
 20
955.604436798927
 30
0.0
 11
355.7082054093025
 21
955.8017456054689
 31
0.0
  0
LINE
  5
5F
  8
VIEW
 10
809.2082054093023
 20
955.8017456054686
 30
0.0
 11
786.8582054093024
 21
955.8017456054688
 31
0.0
  0
LINE
  5
60
  8
VIEW
 10
785.7082054093025
 20
955.8017456054688
 30
0.0
 11
783.4082054093026
 21
955.8017456054688
 31
0.0
  0
LINE
  5
63
  8
VIEW
 10
786.8582054093024
 20
953.5017456054687
 30
0.0
 11
809.2082054093023
 21
953.5017456054686
 31
0.0
  0
ARC
  5
64
  8
VIEW
 10
354.5582054093026
 20
952.3517456054689
 30
0.0
 40
3.450000000000045
 50
0.0
 51
90.0
  0
LINE
  5
65
  8
VIEW
 10
361.0082054093024
 20
950.0517456054688
 30
0.0
 11
361.0082054093024
 21
955.8017456054688
 31
0.0
  0
LINE
  5
66
  8
VIEW
 10
362.1582054093025
 20
953.5017456054687
 30
0.0
 11
367.1582054093025
 21
953.5017456054687
 31
0.0
  0
LINE
  5
67
  8
VIEW
 10
782.2581744093025
 20
678.101745605469
 30
0.0
 11
782.2581744093025
 21
679.2517456054688
 31
0.0
  0
LINE
  5
68
  8
VIEW
 10
332.2082054093027
 20
953.5017456054687
 30
0.0
 11
354.5582054093026
 21
953.5017456054688
 31
0.0
  0
LINE
  5
69
  8
VIEW
 10
809.2082054093023
 20
953.5017456054686
 30
0.0
 11
812.2082054093023
 21
953.5017456054686
 31
0.0
  0
LINE
  5
6A
  8
VIEW
 10
362.1582054093025
 20
950.0517456054688
 30
0.0
 11
361.0082054093024
 21
950.0517456054688
 31
0.0
  0
LINE
  5
6B
  8
VIEW
 10
812.2082054093023
 20
955.8017456054687
 30
0.0
 11
809.2082054093023
 21
955.8017456054687
 31
0.0
  0
LINE
  5
6C
  8
VIEW
 10
358.0082054093027
 20
675.8017456054688
 30
0.0
 11
358.0082054093027
 21
680.8017456054688
 31
0.0
  0
LINE
  5
6D
  8
VIEW
 10
785.7082054093023
 20
680.8017456054688
 30
0.0
 11
785.7082054093023
 21
952.3517456054688
 31
0.0
  0
LINE
  5
6E
  8
VIEW
 10
779.2581744093025
 20
955.8017456054686
 30
0.0
 11
774.2581744093025
 21
955.8017456054686
 31
0.0
  0
LINE
  5
6F
  8
VIEW
 10
359.1582364093026
 20
679.2517456054688
 30
0.0
 11
359.1582364093026
 21
678.101745605469
 31
0.0
  0
LINE
  5
71
  8
VIEW
 10
354.5582054093026
 20
955.8017456054688
 30
0.0
 11
332.2082054093027
 21
955.8017456054688
 31
0.0
  0
LINE
  5
72
  8
VIEW
 10
358.0082054093024
 20
955.8017456054689
 30
0.0
 11
355.7082054093025
 21
955.8017456054689
 31
0.0
  0
LINE
  5
73
  8
VIEW
 10
367.1582054093025
 20
953.5017456054687
 30
0.0
 11
684.2581744093025
 21
953.5017456054687
 31
0.0
  0
LINE
  5
75
  8
VIEW
 10
780.4081744093025
 20
955.8017456054688
 30
0.0
 11
780.4081744093025
 21
950.0517456054688
 31
0.0
  0
LINE
  5
76
  8
VIEW
 10
812.2082054093023
 20
953.5017456054686
 30
0.0
 11
812.2082054093023
 21
955.8017456054686
 31
0.0
  0
LINE
  5
77
  8
VIEW
 10
779.2581744093025
 20
953.5017456054685
 30
0.0
 11
779.2581744093025
 21
955.8017456054686
 31
0.0
  0
LINE
  5
78
  8
VIEW
 10
359.1582364093026
 20
678.101745605469
 30
0.0
 11
359.1582364093026
 21
675.8017456054689
 31
0.0
  0
LINE
  5
79
  8
VIEW
 10
780.4081744093025
 20
950.0517456054688
 30
0.0
 11
779.2581744093025
 21
950.0517456054688
 31
0.0
  0
LINE
  5
7A
  8
VIEW
 10
367.1582054093025
 20
955.8017456054688
 30
0.0
 11
362.1582054093025
 21
955.8017456054688
 31
0.0
  0
LINE
  5
7C
  8
VIEW
 10
782.2582054093025
 20
679.2517456054688
 30
0.0
 11
782.2581744093025
 21
679.2517456054688
 31
0.0
  0
LINE
  5
7D
  8
VIEW
 10
779.2581744093025
 20
950.0517456054688
 30
0.0
 11
779.2581744093025
 21
952.3517456054688
 31
0.0
  0
LINE
  5
7E
  8
VIEW
 10
689.2581744093025
 20
955.8017456054687
 30
0.0
 11
684.2581744093025
 21
955.8017456054688
 31
0.0
  0
LINE
  5
80
  8
VIEW
 10
783.4082054093026
 20
952.3517456054688
 30
0.0
 11
783.4082054093026
 21
955.8017456054688
 31
0.0
  0
LINE
  5
81
  8
VIEW
 10
783.4082054093024
 20
952.3517456054688
 30
0.0
 11
783.4082054093024
 21
680.8017456054688
 31
0.0
  0
LINE
  5
82
  8
VIEW
 10
785.7082054093025
 20
955.8017456054688
 30
0.0
 11
785.7082054093025
 21
955.6044367989269
 31
0.0
  0
LINE
  5
83
  8
VIEW
 10
358.0082054093024
 20
955.8017456054689
 30
0.0
 11
359.1582054093025
 21
955.8017456054689
 31
0.0
  0
LINE
  5
84
  8
VIEW
 10
355.7082054093026
 20
680.8017456054688
 30
0.0
 11
355.7082054093026
 21
675.8017456054688
 31
0.0
  0
LINE
  5
85
  8
VIEW
 10
355.7082054093026
 20
675.8017456054688
 30
0.0
 11
358.0082054093027
 21
675.8017456054688
 31
0.0
  0
LINE
  5
86
  8
VIEW
 10
785.7082054093025
 20
675.8017456054688
 30
0.0
 11
785.7082054093025
 21
680.8017456054688
 31
0.0
  0
LINE
  5
88
  8
VIEW
 10
358.0082054093024
 20
955.8017456054689
 30
0.0
 11
358.0082054093024
 21
952.3517456054689
 31
0.0
  0
LINE
  5
89
  8
VIEW
 10
684.2581744093025
 20
955.8017456054688
 30
0.0
 11
367.1582054093025
 21
955.8017456054688
 31
0.0
  0
LINE
  5
8C
  8
VIEW
 10
782.2582054093025
 20
955.8017456054688
 30
0.0
 11
783.4082054093026
 21
955.8017456054688
 31
0.0
  0
LINE
  5
8E
  8
VIEW
 10
359.1582364093024
 20
679.2517456054688
 30
0.0
 11
359.1582054093025
 21
679.2517456054688
 31
0.0
  0
LINE
  5
8F
  8
VIEW
 10
362.1582054093025
 20
952.3517456054688
 30
0.0
 11
362.1582054093025
 21
953.5017456054687
 31
0.0
  0
LINE
  5
90
  8
VIEW
 10
783.4082054093024
 20
675.8017456054688
 30
0.0
 11
785.7082054093023
 21
675.8017456054688
 31
0.0
  0
LINE
  5
92
  8
VIEW
 10
359.1582364093026
 20
675.8017456054689
 30
0.0
 11
782.2581744093025
 21
675.8017456054689
 31
0.0
  0
LINE
  5
95
  8
VIEW
 10
362.1582054093025
 20
955.8017456054688
 30
0.0
 11
362.1582054093025
 21
953.5017456054687
 31
0.0
  0
LINE
  5
96
  8
VIEW
 10
358.0082054093027
 20
680.8017456054688
 30
0.0
 11
358.0082054093027
 21
952.3517456054689
 31
0.0
  0
LINE
  5
97
  8
VIEW
 10
779.2581744093025
 20
953.5017456054687
 30
0.0
 11
779.2581744093025
 21
952.3517456054688
 31
0.0
  0
LINE
  5
98
  8
VIEW
 10
329.2082054093026
 20
955.8017456054688
 30
0.0
 11
329.2082054093026
 21
953.5017456054687
 31
0.0
  0
LINE
  5
9B
  8
EDGE
 10
785.7082054093023
 20
680.8017456054688
 30
0.0
 11
783.4082054093024
 21
680.8017456054688
 31
0.0
  0
LINE
  5
9C
  8
EDGE
 10
809.2082054093023
 20
955.8017456054686
 30
0.0
 11
809.2082054093023
 21
953.5017456054686
 31
0.0
  0
LINE
  5
9D
  8
EDGE
 10
774.2581744093025
 20
955.8017456054686
 30
0.0
 11
774.2581744093025
 21
953.5017456054685
 31
0.0
  0
LINE
  5
9E
  8
EDGE
 10
359.1582054093025
 20
679.2517456054688
 30
0.0
 11
359.1582054093025
 21
955.8017456054688
 31
0.0
  0
LINE
  5
9F
  8
EDGE
 10
782.2581744093025
 20
679.2517456054688
 30
0.0
 11
359.1582364093024
 21
679.2517456054688
 31
0.0
  0
LINE
  5
A0
  8
EDGE
 10
684.2581744093025
 20
955.8017456054688
 30
0.0
 11
684.2581744093025
 21
953.5017456054687
 31
0.0
  0
LINE
  5
A1
  8
EDGE
 10
782.2582054093025
 20
955.8017456054688
 30
0.0
 11
782.2582054093025
 21
679.2517456054688
 31
0.0
  0
LINE
  5
A2
  8
EDGE
 10
362.1582054093025
 20
952.3517456054688
 30
0.0
 11
779.2581744093025
 21
952.3517456054688
 31
0.0
  0
LINE
  5
A3
  8
EDGE
 10
358.0082054093027
 20
680.8017456054688
 30
0.0
 11
355.7082054093026
 21
680.8017456054688
 31
0.0
  0
LINE
  5
A4
  8
EDGE
 10
367.1582054093025
 20
953.5017456054687
 30
0.0
 11
367.1582054093025
 21
955.8017456054688
 31
0.0
  0
LINE
  5
A5
  8
EDGE
 10
694.2581744093025
 20
953.5017456054685
 30
0.0
 11
694.2581744093025
 21
955.8017456054686
 31
0.0
  0
LINE
  5
A6
  8
EDGE
 10
332.2082054093027
 20
953.5017456054687
 30
0.0
 11
332.2082054093027
 21
955.8017456054688
 31
0.0
  0
LINE
  5
A7
  8
VIEW
 10
783.4082054093024
 20
1072.488514475674
 30
0.0
 11
783.4082054093024
 21
1067.488514475674
 31
0.0
  0
ARC
  5
A8
  8
VIEW
 10
782.2582054093025
 20
1029.638514475674
 30
0.0
 40
1.150000000000091
 50
270.0
 51
0.0
  0
ARC
  5
A9
  8
VIEW
 10
698.4581744093025
 20
1054.638514475674
 30
0.0
 40
1.999999999999886
 50
180.0
 51
0.0
  0
LINE
  5
AA
  8
VIEW
 10
783.4082054093024
 20
1067.488514475674
 30
0.0
 11
783.4082054093026
 21
1029.638514475674
 31
0.0
  0
ARC
  5
AB
  8
VIEW
 10
805.7082054093028
 20
1067.138514475674
 30
0.0
 40
3.5
 50
270.0
 51
90.0
  0
ARC
  5
AC
  8
VIEW
 10
694.2581744093025
 20
1093.139189381748
 30
0.0
 40
5.0
 50
90.0
 51
180.0
  0
LINE
  5
AD
  8
VIEW
 10
785.7082054093025
 20
1072.488514475674
 30
0.0
 11
786.8582054093022
 21
1072.488514475674
 31
0.0
  0
ARC
  5
AE
  8
VIEW
 10
774.2581744093025
 20
1093.139189381748
 30
0.0
 40
5.0
 50
0.0
 51
90.0
  0
ARC
  5
AF
  8
VIEW
 10
698.4581744093025
 20
1059.638850994888
 30
0.0
 40
2.000000028311295
 50
359.9903594347412
 51
179.9903594347477
  0
LINE
  5
B0
  8
VIEW
 10
797.7082054093028
 20
1038.638545475674
 30
0.0
 11
805.7082054093028
 21
1038.638545475674
 31
0.0
  0
LINE
  5
B1
  8
VIEW
 10
335.7082046305478
 20
1054.638514475674
 30
0.0
 11
343.7082054093028
 21
1054.638514475674
 31
0.0
  0
ARC
  5
B2
  8
VIEW
 10
359.1582054093025
 20
1029.638514475674
 30
0.0
 40
1.149999999999977
 50
180.0
 51
270.0
  0
LINE
  5
B3
  8
VIEW
 10
359.1582054093025
 20
1028.488514475674
 30
0.0
 11
359.1582054093025
 21
1026.188514475674
 31
0.0
  0
LINE
  5
B4
  8
VIEW
 10
359.1582364093024
 20
1026.188514475674
 30
0.0
 11
782.2581744093025
 21
1026.188514475674
 31
0.0
  0
ARC
  5
B5
  8
VIEW
 10
332.2082054093026
 20
1069.488514475674
 30
0.0
 40
3.0
 50
89.99999999999892
 51
180.0
  0
LINE
  5
B6
  8
VIEW
 10
805.7082054093028
 20
1063.638514475674
 30
0.0
 11
797.7082046305479
 21
1063.638514475674
 31
0.0
  0
ARC
  5
B7
  8
VIEW
 10
769.2581744093025
 20
1088.139189381748
 30
0.0
 40
1.999999999999886
 50
359.9999996138047
 51
179.9999998930112
  0
LINE
  5
B8
  8
VIEW
 10
689.2581744093025
 20
1041.139189381748
 30
0.0
 11
689.2581744093025
 21
1093.139189381748
 31
0.0
  0
ARC
  5
B9
  8
VIEW
 10
684.2581744093025
 20
1041.139189381748
 30
0.0
 40
5.0
 50
270.0
 51
0.0
  0
LINE
  5
BA
  8
VIEW
 10
343.7082054093028
 20
1063.638514475674
 30
0.0
 11
335.7082046305478
 21
1063.638514475674
 31
0.0
  0
LINE
  5
BB
  8
VIEW
 10
785.7082054093025
 20
1029.638514475674
 30
0.0
 11
785.7082054093023
 21
1067.488514475674
 31
0.0
  0
ARC
  5
BC
  8
VIEW
 10
809.2082054093025
 20
1032.638545475674
 30
0.0
 40
3.0
 50
270.0
 51
0.0
  0
ARC
  5
BD
  8
VIEW
 10
335.7082046305478
 20
1067.138514475674
 30
0.0
 40
3.5
 50
90.0
 51
270.0
  0
LINE
  5
BE
  8
VIEW
 10
354.5582054093026
 20
1072.488514475674
 30
0.0
 11
355.7082054093026
 21
1072.488514475674
 31
0.0
  0
ARC
  5
BF
  8
VIEW
 10
359.1582054093025
 20
1029.638514475674
 30
0.0
 40
3.450000000000045
 50
180.0
 51
270.0
  0
LINE
  5
C0
  8
VIEW
 10
782.2581744093025
 20
1034.638514475674
 30
0.0
 11
782.2581744093025
 21
1029.638514475674
 31
0.0
  0
LINE
  5
C1
  8
VIEW
 10
694.2581744093025
 20
1098.139189381748
 30
0.0
 11
774.2581744093025
 21
1098.139189381748
 31
0.0
  0
LINE
  5
C2
  8
VIEW
 10
785.7082054093023
 20
1072.488514475674
 30
0.0
 11
783.4082054093024
 21
1072.488514475674
 31
0.0
  0
LINE
  5
C3
  8
VIEW
 10
329.2082054093025
 20
1032.638545475674
 30
0.0
 11
329.2082054093026
 21
1069.488514475674
 31
0.0
  0
LINE
  5
C4
  8
VIEW
 10
797.7082046305479
 20
1054.638514475674
 30
0.0
 11
805.7082054093028
 21
1054.638514475674
 31
0.0
  0
ARC
  5
C5
  8
VIEW
 10
697.2581744093025
 20
1090.139189381748
 30
0.0
 40
3.0
 50
90.0
 51
180.0
  0
LINE
  5
C6
  8
VIEW
 10
354.5582054093024
 20
1029.638545475674
 30
0.0
 11
332.2082054093025
 21
1029.638545475674
 31
0.0
  0
ARC
  5
C7
  8
VIEW
 10
343.7082054093028
 20
1051.138514475674
 30
0.0
 40
3.5
 50
270.0
 51
90.0
  0
ARC
  5
C8
  8
VIEW
 10
335.7082046305478
 20
1035.138514475674
 30
0.0
 40
3.499999999999773
 50
90.0
 51
270.0
  0
LINE
  5
C9
  8
VIEW
 10
779.2581744093025
 20
1093.139189381748
 30
0.0
 11
779.2581744093025
 21
1034.638514475674
 31
0.0
  0
ARC
  5
CA
  8
VIEW
 10
797.7082046305477
 20
1035.138545475674
 30
0.0
 40
3.500000000000087
 50
89.99998725160614
 51
270.0000127483939
  0
LINE
  5
CB
  8
VIEW
 10
786.8582054093024
 20
1072.488514475674
 30
0.0
 11
809.2082054093023
 21
1072.488514475674
 31
0.0
  0
LINE
  5
CC
  8
VIEW
 10
805.7082054093028
 20
1031.638545475674
 30
0.0
 11
797.7082054093028
 21
1031.638545475674
 31
0.0
  0
ARC
  5
CD
  8
VIEW
 10
367.1582054093025
 20
1031.139189381748
 30
0.0
 40
5.0
 50
90.0
 51
135.5838245578798
  0
LINE
  5
CE
  8
VIEW
 10
782.2581744093025
 20
1026.188514475674
 30
0.0
 11
782.2581744093025
 21
1029.638514475674
 31
0.0
  0
LINE
  5
CF
  8
VIEW
 10
332.2082054093027
 20
1072.488514475674
 30
0.0
 11
354.5582054093026
 21
1072.488514475674
 31
0.0
  0
LINE
  5
D0
  8
VIEW
 10
767.2581744093025
 20
1038.638512204404
 30
0.0
 11
767.2581744093025
 21
1043.639185242832
 31
0.0
  0
LINE
  5
D1
  8
VIEW
 10
698.4581744093025
 20
1062.638850994888
 30
0.0
 11
697.2581744093025
 21
1062.638850994888
 31
0.0
  0
ARC
  5
D2
  8
VIEW
 10
769.2581744093025
 20
1038.638514460439
 30
0.0
 40
2.000000000000022
 50
180.0000646306559
 51
0.0000004364425325
  0
ARC
  5
D3
  8
VIEW
 10
761.2581744093025
 20
1037.638514475674
 30
0.0
 40
3.0
 50
270.0
 51
0.0
  0
ARC
  5
D4
  8
VIEW
 10
769.2581744093025
 20
1043.639189381748
 30
0.0
 40
2.000000000004169
 50
359.9999464958831
 51
180.0001185712153
  0
ARC
  5
D5
  8
VIEW
 10
809.2082054093023
 20
1069.488514475674
 30
0.0
 40
3.0
 50
0.0
 51
90.0
  0
LINE
  5
D6
  8
VIEW
 10
358.0082054093027
 20
1067.488514475674
 30
0.0
 11
358.0082054093027
 21
1072.488514475674
 31
0.0
  0
LINE
  5
D7
  8
VIEW
 10
805.7082054093028
 20
1047.638514475674
 30
0.0
 11
797.7082046305479
 21
1047.638514475674
 31
0.0
  0
LINE
  5
D8
  8
VIEW
 10
694.2581744093025
 20
1065.638850994888
 30
0.0
 11
694.2581744093025
 21
1090.139189381748
 31
0.0
  0
ARC
  5
D9
  8
VIEW
 10
697.2581744093025
 20
1065.638850994888
 30
0.0
 40
3.0
 50
180.0
 51
270.0
  0
LINE
  5
DA
  8
VIEW
 10
767.2581744093027
 20
1083.139189382887
 30
0.0
 11
767.2581744093027
 21
1088.139189385483
 31
0.0
  0
LINE
  5
DB
  8
VIEW
 10
359.1582054093025
 20
1026.188514475674
 30
0.0
 11
359.1582364093024
 21
1026.188514475674
 31
0.0
  0
LINE
  5
DC
  8
VIEW
 10
335.7082046305478
 20
1070.638514475674
 30
0.0
 11
343.7082054093028
 21
1070.638514475674
 31
0.0
  0
ARC
  5
DD
  8
VIEW
 10
343.7082054093028
 20
1067.138514475674
 30
0.0
 40
3.499999999999773
 50
270.0
 51
90.0
  0
LINE
  5
DE
  8
VIEW
 10
335.7082046305478
 20
1038.638514475674
 30
0.0
 11
343.7082054093028
 21
1038.638514475674
 31
0.0
  0
LINE
  5
DF
  8
VIEW
 10
797.7082046305479
 20
1070.638514475674
 30
0.0
 11
805.7082054093028
 21
1070.638514475674
 31
0.0
  0
LINE
  5
E0
  8
VIEW
 10
367.1582054093025
 20
1036.139189381748
 30
0.0
 11
684.2581744093025
 21
1036.139189381748
 31
0.0
  0
LINE
  5
E1
  8
VIEW
 10
771.2581744093025
 20
1043.639187514102
 30
0.0
 11
771.2581744093025
 21
1038.638514475674
 31
0.0
  0
ARC
  5
E2
  8
VIEW
 10
805.7082054093028
 20
1051.138514475674
 30
0.0
 40
3.500000000000227
 50
270.0
 51
90.0
  0
ARC
  5
E3
  8
VIEW
 10
805.7082054093028
 20
1035.138545475674
 30
0.0
 40
3.5
 50
270.0
 51
90.0
  0
LINE
  5
E4
  8
VIEW
 10
771.2581744093025
 20
1088.139189368267
 30
0.0
 11
771.2581744093025
 21
1083.139189365671
 31
0.0
  0
LINE
  5
E5
  8
VIEW
 10
358.0082054093024
 20
1029.638514475674
 30
0.0
 11
358.0082054093027
 21
1067.488514475674
 31
0.0
  0
ARC
  5
E6
  8
VIEW
 10
769.2581744093025
 20
1083.139189381748
 30
0.0
 40
1.999999999999886
 50
179.9999999673855
 51
359.9999995394305
  0
LINE
  5
E7
  8
VIEW
 10
697.2581744093025
 20
1093.139189381748
 30
0.0
 11
761.2581744093025
 21
1093.139189381748
 31
0.0
  0
LINE
  5
E8
  8
VIEW
 10
359.1582364093026
 20
1029.638514475674
 30
0.0
 11
359.1582364093026
 21
1026.188514475674
 31
0.0
  0
LINE
  5
E9
  8
VIEW
 10
782.2581744093025
 20
1026.188514475674
 30
0.0
 11
782.2582054093025
 21
1026.188514475674
 31
0.0
  0
LINE
  5
EA
  8
VIEW
 10
701.4581744093025
 20
1037.638514475674
 30
0.0
 11
701.4581744093025
 21
1059.638850994888
 31
0.0
  0
LINE
  5
EB
  8
VIEW
 10
343.7082054093028
 20
1047.638514475674
 30
0.0
 11
335.7082046305478
 21
1047.638514475674
 31
0.0
  0
ARC
  5
EC
  8
VIEW
 10
335.7082046305478
 20
1051.138514475674
 30
0.0
 40
3.5
 50
90.0
 51
270.0
  0
LINE
  5
ED
  8
VIEW
 10
812.2082054093023
 20
1069.488514475674
 30
0.0
 11
812.2082054093025
 21
1032.638545475674
 31
0.0
  0
LINE
  5
EE
  8
VIEW
 10
782.2582054093025
 20
1028.488514475674
 30
0.0
 11
782.2581744093025
 21
1028.488514475674
 31
0.0
  0
LINE
  5
EF
  8
VIEW
 10
358.0082054093027
 20
1072.488514475674
 30
0.0
 11
355.7082054093026
 21
1072.488514475674
 31
0.0
  0
LINE
  5
F0
  8
VIEW
 10
354.5582054093024
 20
1029.638545475674
 30
0.0
 11
355.7082054093025
 21
1029.638545475674
 31
0.0
  0
LINE
  5
F1
  8
VIEW
 10
809.2082054093025
 20
1029.638545475674
 30
0.0
 11
786.8582054093026
 21
1029.638545475674
 31
0.0
  0
LINE
  5
F2
  8
VIEW
 10
785.7082054093025
 20
1029.638545475674
 30
0.0
 11
786.8582054093026
 21
1029.638545475674
 31
0.0
  0
LINE
  5
F3
  8
VIEW
 10
764.2581744093025
 20
1090.139189381748
 30
0.0
 11
764.2581744093025
 21
1037.638514475674
 31
0.0
  0
LINE
  5
F4
  8
VIEW
 10
355.7082054093026
 20
1072.488514475674
 30
0.0
 11
355.7082054093026
 21
1067.488514475674
 31
0.0
  0
LINE
  5
F5
  8
VIEW
 10
785.7082054093025
 20
1067.488514475674
 30
0.0
 11
785.7082054093025
 21
1072.488514475674
 31
0.0
  0
ARC
  5
F6
  8
VIEW
 10
797.7082046305479
 20
1051.138514475674
 30
0.0
 40
3.5
 50
90.0
 51
270.0
  0
ARC
  5
F7
  8
VIEW
 10
343.7082054093028
 20
1035.138514475674
 30
0.0
 40
3.499999999999773
 50
270.0
 51
90.0
  0
ARC
  5
F8
  8
VIEW
 10
704.4581744093025
 20
1037.638514475674
 30
0.0
 40
3.0
 50
180.0
 51
270.0
  0
LINE
  5
F9
  8
VIEW
 10
359.1582364093024
 20
1028.488514475674
 30
0.0
 11
359.1582054093025
 21
1028.488514475674
 31
0.0
  0
ARC
  5
FA
  8
VIEW
 10
782.2582054093025
 20
1029.638514475674
 30
0.0
 40
3.450000000000045
 50
270.0
 51
359.9999999999962
  0
ARC
  5
FB
  8
VIEW
 10
698.4581744093025
 20
1059.638850994888
 30
0.0
 40
3.0
 50
0.0
 51
90.0
  0
LINE
  5
FC
  8
VIEW
 10
359.1582364093026
 20
1029.638514475674
 30
0.0
 11
359.1582364093026
 21
1034.638514475674
 31
0.0
  0
LINE
  5
FD
  8
VIEW
 10
359.1582364093026
 20
1034.638514475674
 30
0.0
 11
782.2581744093025
 21
1034.638514475674
 31
0.0
  0
LINE
  5
FE
  8
VIEW
 10
782.2582054093025
 20
1026.188514475674
 30
0.0
 11
782.2582054093025
 21
1028.488514475674
 31
0.0
  0
LINE
  5
FF
  8
VIEW
 10
700.4581744093025
 20
1059.638514475674
 30
0.0
 11
700.4581744093025
 21
1054.638514475674
 31
0.0
  0
LINE
  5
100
  8
VIEW
 10
343.7082054093028
 20
1031.638514475674
 30
0.0
 11
335.7082046305478
 21
1031.638514475674
 31
0.0
  0
LINE
  5
101
  8
VIEW
 10
696.4581744093025
 20
1054.638514475674
 30
0.0
 11
696.4581744093025
 21
1059.639187514102
 31
0.0
  0
LINE
  5
102
  8
VIEW
 10
355.7082054093026
 20
1067.488514475674
 30
0.0
 11
355.7082054093025
 21
1029.638514475674
 31
0.0
  0
ARC
  5
103
  8
VIEW
 10
332.2082054093025
 20
1032.638545475674
 30
0.0
 40
3.0
 50
180.0
 51
270.0
  0
ARC
  5
104
  8
VIEW
 10
797.7082046305479
 20
1067.138514475674
 30
0.0
 40
3.500000000000227
 50
90.0
 51
270.0
  0
ARC
  5
105
  8
VIEW
 10
761.2581744093025
 20
1090.139189381748
 30
0.0
 40
3.000000000000114
 50
0.0
 51
90.0
  0
LINE
  5
106
  8
EDGE
 10
786.8582054093026
 20
1029.638545475674
 30
0.0
 11
786.8582054093022
 21
1072.488514475674
 31
0.0
  0
LINE
  5
107
  8
EDGE
 10
782.2581744093025
 20
1029.638514475674
 30
0.0
 11
359.1582364093026
 21
1029.638514475674
 31
0.0
  0
LINE
  5
108
  8
EDGE
 10
355.7082054093026
 20
1067.488514475674
 30
0.0
 11
358.0082054093027
 21
1067.488514475674
 31
0.0
  0
LINE
  5
109
  8
EDGE
 10
354.5582054093026
 20
1072.488514475674
 30
0.0
 11
354.5582054093024
 21
1029.638545475674
 31
0.0
  0
LINE
  5
10A
  8
EDGE
 10
783.4082054093024
 20
1067.488514475674
 30
0.0
 11
785.7082054093023
 21
1067.488514475674
 31
0.0
  0
LINE
  5
10B
  8
VIEW
 10
780.4081744093025
 20
590.4523180438575
 30
0.0
 11
782.2582054093025
 21
590.4523180438575
 31
0.0
  0
LINE
  5
10C
  8
VIEW
 10
358.0082054093024
 20
589.3022870438575
 30
0.0
 11
354.5582054093022
 21
589.3022870438575
 31
0.0
  0
ARC
  5
10D
  8
VIEW
 10
343.7082054093028
 20
567.8023180438576
 30
0.0
 40
3.5
 50
270.0
 51
90.0
  0
ARC
  5
10E
  8
VIEW
 10
809.2082054093025
 20
586.3022870438574
 30
0.0
 40
3.0
 50
0.0
 51
90.0
  0
ARC
  5
10F
  8
VIEW
 10
797.7082046305479
 20
551.8023180438576
 30
0.0
 40
3.5
 50
90.0
 51
270.0
  0
ARC
  5
110
  8
VIEW
 10
335.7082046305478
 20
551.8023180438576
 30
0.0
 40
3.5
 50
90.0
 51
270.0
  0
ARC
  5
111
  8
VIEW
 10
769.2581744093025
 20
575.3016431377832
 30
0.0
 40
2.000000000004282
 50
179.9998814287879
 51
0.0000535041136228
  0
LINE
  5
112
  8
VIEW
 10
782.2581744093025
 20
584.3023180438574
 30
0.0
 11
779.2581744093025
 21
584.3023180438574
 31
0.0
  0
LINE
  5
113
  8
VIEW
 10
363.5868297797976
 20
584.3023180438574
 30
0.0
 11
359.1582364093026
 21
584.3023180438574
 31
0.0
  0
LINE
  5
114
  8
VIEW
 10
774.2581744093025
 20
520.8016431377832
 30
0.0
 11
694.2581744093025
 21
520.8016431377832
 31
0.0
  0
LINE
  5
115
  8
VIEW
 10
783.4082054093026
 20
589.3022870438575
 30
0.0
 11
783.4082054093024
 21
546.4523180438575
 31
0.0
  0
LINE
  5
116
  8
VIEW
 10
780.4081744093025
 20
592.7523180438575
 30
0.0
 11
780.4081744093025
 21
590.4523180438575
 31
0.0
  0
LINE
  5
117
  8
VIEW
 10
696.4581744093025
 20
559.3016450054291
 30
0.0
 11
696.4581744093025
 21
564.3023180438574
 31
0.0
  0
LINE
  5
118
  8
VIEW
 10
771.2581744093025
 20
580.3023180438574
 30
0.0
 11
771.2581744093025
 21
575.3016450054291
 31
0.0
  0
LINE
  5
119
  8
VIEW
 10
771.2581744093025
 20
535.8016431538601
 30
0.0
 11
771.2581744093025
 21
530.801643151264
 31
0.0
  0
ARC
  5
11A
  8
VIEW
 10
694.2581744093025
 20
525.8016431377832
 30
0.0
 40
5.0
 50
180.0
 51
270.0
  0
LINE
  5
11B
  8
VIEW
 10
761.2581744093025
 20
525.8016431377832
 30
0.0
 11
697.2581744093025
 21
525.8016431377832
 31
0.0
  0
LINE
  5
11C
  8
VIEW
 10
797.7082046305479
 20
555.3023180438576
 30
0.0
 11
805.7082054093028
 21
555.3023180438576
 31
0.0
  0
LINE
  5
11D
  8
VIEW
 10
335.7082046305478
 20
555.3023180438576
 30
0.0
 11
343.7082054093028
 21
555.3023180438576
 31
0.0
  0
LINE
  5
11E
  8
VIEW
 10
343.7082054093028
 20
548.3023180438576
 30
0.0
 11
335.7082046305478
 21
548.3023180438576
 31
0.0
  0
LINE
  5
11F
  8
VIEW
 10
335.7082046305478
 20
587.3023180438576
 30
0.0
 11
343.7082054093028
 21
587.3023180438576
 31
0.0
  0
LINE
  5
120
  8
VIEW
 10
797.7082046305479
 20
571.3023180438576
 30
0.0
 11
805.7082054093028
 21
571.3023180438576
 31
0.0
  0
LINE
  5
121
  8
VIEW
 10
361.0082054093024
 20
590.4523180438575
 30
0.0
 11
361.0082054093024
 21
592.7523180438575
 31
0.0
  0
LINE
  5
122
  8
VIEW
 10
786.8582054093022
 20
546.4523180438575
 30
0.0
 11
783.4082054093024
 21
546.4523180438575
 31
0.0
  0
LINE
  5
123
  8
VIEW
 10
355.7082054093025
 20
589.3023180438576
 30
0.0
 11
355.7082054093025
 21
589.3022870438575
 31
0.0
  0
ARC
  5
124
  8
VIEW
 10
782.2582054093025
 20
589.3023180438574
 30
0.0
 40
3.450000000000045
 50
0.0
 51
90.0
  0
ARC
  5
125
  8
VIEW
 10
359.1582054093025
 20
589.3023180438574
 30
0.0
 40
3.450000000000045
 50
90.0
 51
179.9999999999981
  0
ARC
  5
126
  8
VIEW
 10
698.4581744093025
 20
559.3019815246432
 30
0.0
 40
3.0
 50
270.0
 51
0.0
  0
ARC
  5
127
  8
VIEW
 10
332.2082054093026
 20
549.4523180438574
 30
0.0
 40
3.0
 50
180.0
 51
270.0000000000011
  0
ARC
  5
128
  8
VIEW
 10
769.2581744093025
 20
530.8016431377832
 30
0.0
 40
1.999999999999886
 50
180.0000001069888
 51
0.0000003861952645
  0
ARC
  5
129
  8
VIEW
 10
343.7082054093028
 20
551.8023180438576
 30
0.0
 40
3.5
 50
270.0
 51
90.0
  0
LINE
  5
12A
  8
VIEW
 10
343.7082054093028
 20
580.3023180438576
 30
0.0
 11
335.7082046305478
 21
580.3023180438576
 31
0.0
  0
LINE
  5
12B
  8
VIEW
 10
805.7082054093028
 20
580.3022870438575
 30
0.0
 11
797.7082054093028
 21
580.3022870438575
 31
0.0
  0
LINE
  5
12C
  8
VIEW
 10
359.1582054093025
 20
590.4523180438575
 30
0.0
 11
361.0082054093024
 21
590.4523180438575
 31
0.0
  0
LINE
  5
12D
  8
VIEW
 10
779.2581744093025
 20
589.3023180438574
 30
0.0
 11
779.2581744093025
 21
525.8016431377832
 31
0.0
  0
ARC
  5
12E
  8
VIEW
 10
704.4581744093025
 20
581.3023180438574
 30
0.0
 40
3.0
 50
90.0
 51
180.0
  0
LINE
  5
12F
  8
VIEW
 10
358.0082054093027
 20
546.4523180438575
 30
0.0
 11
358.0082054093024
 21
589.3022870438575
 31
0.0
  0
LINE
  5
130
  8
VIEW
 10
809.2082054093023
 20
546.4523180438575
 30
0.0
 11
786.8582054093024
 21
546.4523180438575
 31
0.0
  0
LINE
  5
131
  8
VIEW
 10
786.8582054093026
 20
589.3022870438575
 30
0.0
 11
809.2082054093025
 21
589.3022870438574
 31
0.0
  0
LINE
  5
132
  8
VIEW
 10
785.7082054093025
 20
589.3023180438574
 30
0.0
 11
783.4082054093026
 21
589.3023180438574
 31
0.0
  0
ARC
  5
133
  8
VIEW
 10
332.2082054093025
 20
586.3022870438574
 30
0.0
 40
3.0
 50
90.0
 51
180.0
  0
LINE
  5
134
  8
VIEW
 10
797.7082054093028
 20
587.3022870438575
 30
0.0
 11
805.7082054093028
 21
587.3022870438575
 31
0.0
  0
ARC
  5
135
  8
VIEW
 10
698.4581744093025
 20
559.3019815246432
 30
0.0
 40
2.000000028311295
 50
180.0096405652556
 51
0.0096405652588249
  0
LINE
  5
136
  8
VIEW
 10
783.4082054093026
 20
589.3023180438574
 30
0.0
 11
783.4082054093026
 21
589.3022870438575
 31
0.0
  0
ARC
  5
137
  8
VIEW
 10
805.7082054093028
 20
551.8023180438576
 30
0.0
 40
3.5
 50
270.0
 51
90.0
  0
LINE
  5
138
  8
VIEW
 10
358.0082054093027
 20
546.4523180438575
 30
0.0
 11
354.5582054093026
 21
546.4523180438574
 31
0.0
  0
ARC
  5
139
  8
VIEW
 10
697.2581744093025
 20
528.8016431377832
 30
0.0
 40
3.0
 50
180.0
 51
270.0
  0
LINE
  5
13A
  8
VIEW
 10
361.0082054093024
 20
592.7523180438575
 30
0.0
 11
359.1582054093025
 21
592.7523180438575
 31
0.0
  0
ARC
  5
13B
  8
VIEW
 10
697.2581744093025
 20
553.3019815246432
 30
0.0
 40
3.0
 50
90.0
 51
180.0
  0
LINE
  5
13C
  8
VIEW
 10
782.2581744093025
 20
589.3023180438576
 30
0.0
 11
782.2581744093025
 21
590.4523180438574
 31
0.0
  0
ARC
  5
13D
  8
VIEW
 10
805.7082054093028
 20
567.8023180438576
 30
0.0
 40
3.5
 50
270.0
 51
90.0
  0
LINE
  5
13E
  8
VIEW
 10
700.4581744093025
 20
564.3023180438574
 30
0.0
 11
700.4581744093025
 21
559.3023180438574
 31
0.0
  0
LINE
  5
13F
  8
VIEW
 10
805.7082054093028
 20
548.3023180438576
 30
0.0
 11
797.7082046305479
 21
548.3023180438576
 31
0.0
  0
LINE
  5
140
  8
VIEW
 10
362.1582054093025
 20
590.4523180438575
 30
0.0
 11
361.0082054093024
 21
590.4523180438575
 31
0.0
  0
LINE
  5
141
  8
VIEW
 10
782.2581744093025
 20
589.3023180438576
 30
0.0
 11
782.2581744093025
 21
584.3023180438574
 31
0.0
  0
ARC
  5
142
  8
VIEW
 10
809.2082054093023
 20
549.4523180438574
 30
0.0
 40
3.0
 50
270.0
 51
0.0
  0
LINE
  5
143
  8
VIEW
 10
701.4581744093025
 20
559.3019815246432
 30
0.0
 11
701.4581744093025
 21
581.3023180438574
 31
0.0
  0
ARC
  5
144
  8
VIEW
 10
774.2581744093025
 20
525.8016431377832
 30
0.0
 40
5.0
 50
270.0
 51
0.0
  0
LINE
  5
145
  8
VIEW
 10
359.1582364093026
 20
590.4523180438574
 30
0.0
 11
359.1582364093026
 21
589.3023180438574
 31
0.0
  0
ARC
  5
146
  8
VIEW
 10
335.7082046305478
 20
567.8023180438576
 30
0.0
 40
3.5
 50
90.0
 51
270.0
  0
LINE
  5
147
  8
VIEW
 10
354.5582054093026
 20
546.4523180438575
 30
0.0
 11
332.2082054093027
 21
546.4523180438575
 31
0.0
  0
ARC
  5
148
  8
VIEW
 10
769.2581744093025
 20
580.302318059092
 30
0.0
 40
1.999999999999886
 50
359.9999995635607
 51
179.9999353693408
  0
LINE
  5
149
  8
VIEW
 10
358.0082054093024
 20
589.3023180438576
 30
0.0
 11
355.7082054093025
 21
589.3023180438576
 31
0.0
  0
LINE
  5
14A
  8
VIEW
 10
805.7082054093028
 20
564.3023180438576
 30
0.0
 11
797.7082046305479
 21
564.3023180438576
 31
0.0
  0
LINE
  5
14B
  8
VIEW
 10
785.7082054093025
 20
589.3022870438575
 30
0.0
 11
785.7082054093025
 21
589.3023180438574
 31
0.0
  0
LINE
  5
14C
  8
VIEW
 10
779.2581744093025
 20
592.7523180438575
 30
0.0
 11
362.1582054093025
 21
592.7523180438575
 31
0.0
  0
LINE
  5
14D
  8
VIEW
 10
780.4081744093025
 20
590.4523180438575
 30
0.0
 11
779.2581744093025
 21
590.4523180438575
 31
0.0
  0
ARC
  5
14E
  8
VIEW
 10
761.2581744093025
 20
581.3023180438574
 30
0.0
 40
3.000000000000114
 50
359.9999999999978
 51
90.0
  0
ARC
  5
14F
  8
VIEW
 10
367.1582054093025
 20
587.8016431377832
 30
0.0
 40
5.0
 50
180.0
 51
270.0
  0
ARC
  5
150
  8
VIEW
 10
343.7082054093028
 20
583.8023180438576
 30
0.0
 40
3.5
 50
270.0
 51
90.0
  0
ARC
  5
151
  8
VIEW
 10
761.2581744093025
 20
528.8016431377832
 30
0.0
 40
3.0
 50
270.0
 51
0.0
  0
LINE
  5
152
  8
VIEW
 10
786.8582054093026
 20
589.3022870438575
 30
0.0
 11
783.4082054093026
 21
589.3022870438575
 31
0.0
  0
LINE
  5
153
  8
VIEW
 10
329.2082054093026
 20
549.4523180438574
 30
0.0
 11
329.2082054093025
 21
586.3022870438574
 31
0.0
  0
ARC
  5
154
  8
VIEW
 10
684.2581744093025
 20
577.8016431377832
 30
0.0
 40
5.0
 50
0.0
 51
90.0
  0
LINE
  5
155
  8
VIEW
 10
335.7082046305478
 20
571.3023180438576
 30
0.0
 11
343.7082054093028
 21
571.3023180438576
 31
0.0
  0
LINE
  5
156
  8
VIEW
 10
767.2581744093025
 20
575.3016472766993
 30
0.0
 11
767.2581744093025
 21
580.3023203151276
 31
0.0
  0
LINE
  5
157
  8
VIEW
 10
362.1582054093025
 20
587.8016431377832
 30
0.0
 11
362.1582054093025
 21
589.3023180438574
 31
0.0
  0
ARC
  5
158
  8
VIEW
 10
769.2581744093025
 20
535.8016431377832
 30
0.0
 40
1.999999999999886
 50
0.0000004605695588
 51
180.0000000326145
  0
LINE
  5
159
  8
VIEW
 10
689.2581744093025
 20
525.8016431377832
 30
0.0
 11
689.2581744093025
 21
577.8016431377832
 31
0.0
  0
LINE
  5
15A
  8
VIEW
 10
782.2582054093025
 20
592.7523180438575
 30
0.0
 11
780.4081744093025
 21
592.7523180438575
 31
0.0
  0
LINE
  5
15B
  8
VIEW
 10
694.2581744093025
 20
528.8016431377832
 30
0.0
 11
694.2581744093025
 21
553.3019815246432
 31
0.0
  0
ARC
  5
15C
  8
VIEW
 10
335.7082046305478
 20
583.8023180438576
 30
0.0
 40
3.5
 50
90.0
 51
270.0
  0
ARC
  5
15D
  8
VIEW
 10
359.1582054093025
 20
589.3023180438574
 30
0.0
 40
1.150000000000091
 50
90.0
 51
179.9999999999943
  0
ARC
  5
15E
  8
VIEW
 10
797.7082046305477
 20
583.8022870438575
 30
0.0
 40
3.500000000000087
 50
89.99998725160614
 51
270.0000127483939
  0
ARC
  5
15F
  8
VIEW
 10
698.4581744093025
 20
564.3023180438574
 30
0.0
 40
2.0
 50
0.0
 51
180.0
  0
ARC
  5
160
  8
VIEW
 10
797.7082046305479
 20
567.8023180438576
 30
0.0
 40
3.5
 50
90.0
 51
270.0
  0
LINE
  5
161
  8
VIEW
 10
362.1582054093025
 20
592.7523180438575
 30
0.0
 11
362.1582054093025
 21
589.3023180438574
 31
0.0
  0
LINE
  5
162
  8
VIEW
 10
779.2581744093025
 20
589.3023180438574
 30
0.0
 11
779.2581744093025
 21
592.7523180438575
 31
0.0
  0
LINE
  5
163
  8
VIEW
 10
343.7082054093028
 20
564.3023180438576
 30
0.0
 11
335.7082046305478
 21
564.3023180438576
 31
0.0
  0
LINE
  5
164
  8
VIEW
 10
767.2581744093027
 20
530.8016431340486
 30
0.0
 11
767.2581744093027
 21
535.8016431366448
 31
0.0
  0
LINE
  5
165
  8
VIEW
 10
332.2082054093025
 20
589.3022870438574
 30
0.0
 11
354.5582054093024
 21
589.3022870438575
 31
0.0
  0
LINE
  5
166
  8
VIEW
 10
779.2581744093025
 20
592.7523180438575
 30
0.0
 11
780.4081744093025
 21
592.7523180438575
 31
0.0
  0
LINE
  5
167
  8
VIEW
 10
684.2581744093025
 20
582.8016431377832
 30
0.0
 11
367.1582054093025
 21
582.8016431377832
 31
0.0
  0
ARC
  5
168
  8
VIEW
 10
782.2582054093025
 20
589.3023180438574
 30
0.0
 40
1.150000000000091
 50
0.0
 51
90.0
  0
LINE
  5
169
  8
VIEW
 10
812.2082054093025
 20
586.3022870438574
 30
0.0
 11
812.2082054093023
 21
549.4523180438574
 31
0.0
  0
LINE
  5
16A
  8
VIEW
 10
704.4581744093025
 20
584.3023180438574
 30
0.0
 11
761.2581744093025
 21
584.3023180438574
 31
0.0
  0
LINE
  5
16B
  8
VIEW
 10
361.0082054093024
 20
592.7523180438575
 30
0.0
 11
362.1582054093025
 21
592.7523180438575
 31
0.0
  0
ARC
  5
16C
  8
VIEW
 10
805.7082054093028
 20
583.8022870438575
 30
0.0
 40
3.500000000000114
 50
270.0
 51
90.0
  0
LINE
  5
16D
  8
VIEW
 10
697.2581744093025
 20
556.3019815246432
 30
0.0
 11
698.4581744093025
 21
556.3019815246432
 31
0.0
  0
LINE
  5
16E
  8
VIEW
 10
764.2581744093025
 20
581.3023180438573
 30
0.0
 11
764.2581744093025
 21
528.8016431377832
 31
0.0
  0
LINE
  5
16F
  8
VIEW
 10
358.0082054093024
 20
589.3022870438575
 30
0.0
 11
358.0082054093024
 21
589.3023180438576
 31
0.0
  0
LINE
  5
170
  8
VIEW
 10
359.1582364093026
 20
584.3023180438574
 30
0.0
 11
359.1582364093026
 21
589.3023180438574
 31
0.0
  0
LINE
  5
171
  8
EDGE
 10
786.8582054093022
 20
546.4523180438574
 30
0.0
 11
786.8582054093026
 21
589.3022870438574
 31
0.0
  0
LINE
  5
172
  8
EDGE
 10
359.1582364093026
 20
589.3023180438574
 30
0.0
 11
362.1582054093025
 21
589.3023180438574
 31
0.0
  0
LINE
  5
173
  8
EDGE
 10
779.2581744093025
 20
589.3023180438576
 30
0.0
 11
782.2581744093025
 21
589.3023180438576
 31
0.0
  0
LINE
  5
174
  8
EDGE
 10
362.1582054093025
 20
589.3023180438574
 30
0.0
 11
779.2581744093027
 21
589.3023180438574
 31
0.0
  0
LINE
  5
175
  8
EDGE
 10
354.5582054093022
 20
589.3022870438575
 30
0.0
 11
354.5582054093026
 21
546.4523180438575
 31
0.0
  0
CIRCLE
  5
176
  8
VIEW
 10
881.1001576901522
 20
832.3517456054689
 30
0.0
 40
2.0
  0
LINE
  5
177
  8
VIEW
 10
929.6008325962264
 20
953.5017456054685
 30
0.0
 11
934.6008325962264
 21
953.5017456054685
 31
0.0
  0
CIRCLE
  5
178
  8
VIEW
 10
881.1001576901522
 20
912.3517456054689
 30
0.0
 40
2.0
  0
CIRCLE
  5
179
  8
VIEW
 10
881.1001576901522
 20
812.3517456054689
 30
0.0
 40
2.0
  0
LINE
  5
17A
  8
VIEW
 10
862.6501576901521
 20
955.8017456054688
 30
0.0
 11
862.6501576901521
 21
679.2517456054688
 31
0.0
  0
LINE
  5
17B
  8
VIEW
 10
908.9501576901521
 20
952.3517456054689
 30
0.0
 11
908.9501576901521
 21
680.8017456054688
 31
0.0
  0
LINE
  5
17C
  8
VIEW
 10
934.6008325962264
 20
955.8017456054686
 30
0.0
 11
929.6008325962264
 21
955.8017456054686
 31
0.0
  0
LINE
  5
17D
  8
VIEW
 10
905.9501576901523
 20
953.5017456054688
 30
0.0
 11
908.9501576901523
 21
953.5017456054688
 31
0.0
  0
LINE
  5
17E
  8
VIEW
 10
862.6501576901521
 20
679.2517456054688
 30
0.0
 11
862.6501576901521
 21
675.8017456054688
 31
0.0
  0
LINE
  5
17F
  8
VIEW
 10
866.1001576901522
 20
953.5017456054687
 30
0.0
 11
866.1001886901522
 21
953.5017456054687
 31
0.0
  0
LINE
  5
180
  8
VIEW
 10
908.9501576901521
 20
953.5017456054686
 30
0.0
 11
929.6008325962264
 21
953.5017456054685
 31
0.0
  0
LINE
  5
181
  8
VIEW
 10
866.1001576901522
 20
952.3517456054689
 30
0.0
 11
866.100188690152
 21
952.3517456054689
 31
0.0
  0
LINE
  5
182
  8
VIEW
 10
862.6501576901521
 20
955.8017456054689
 30
0.0
 11
866.100157690152
 21
955.8017456054689
 31
0.0
  0
LINE
  5
183
  8
VIEW
 10
908.9501576901523
 20
955.8017456054688
 30
0.0
 11
905.9501576901523
 21
955.8017456054688
 31
0.0
  0
LINE
  5
184
  8
VIEW
 10
908.9501576901521
 20
953.5017456054688
 30
0.0
 11
908.9501576901521
 21
952.3517456054689
 31
0.0
  0
LINE
  5
185
  8
VIEW
 10
866.1001576901522
 20
675.8017456054688
 30
0.0
 11
862.6501576901521
 21
675.8017456054688
 31
0.0
  0
CIRCLE
  5
186
  8
VIEW
 10
881.1001576901522
 20
872.3517456054689
 30
0.0
 40
2.0
  0
LINE
  5
187
  8
VIEW
 10
869.1001886901522
 20
953.5017456054687
 30
0.0
 11
905.9501576901523
 21
953.5017456054687
 31
0.0
  0
LINE
  5
188
  8
VIEW
 10
866.1001886901522
 20
955.8017456054688
 30
0.0
 11
866.1001886901522
 21
953.5017456054687
 31
0.0
  0
LINE
  5
189
  8
VIEW
 10
866.100157690152
 20
952.3517456054689
 30
0.0
 11
866.100157690152
 21
955.8017456054689
 31
0.0
  0
LINE
  5
18A
  8
VIEW
 10
869.1001886901522
 20
955.8017456054688
 30
0.0
 11
866.1001886901522
 21
955.8017456054688
 31
0.0
  0
LINE
  5
18B
  8
VIEW
 10
905.9501576901523
 20
955.8017456054688
 30
0.0
 11
869.1001886901522
 21
955.8017456054688
 31
0.0
  0
LINE
  5
18C
  8
VIEW
 10
866.100188690152
 20
953.5017456054688
 30
0.0
 11
866.100188690152
 21
952.3517456054689
 31
0.0
  0
LINE
  5
18D
  8
VIEW
 10
866.1001886901522
 20
955.8017456054688
 30
0.0
 11
866.1001576901522
 21
955.8017456054688
 31
0.0
  0
CIRCLE
  5
18E
  8
VIEW
 10
881.1001576901522
 20
852.3517456054689
 30
0.0
 40
2.0
  0
LINE
  5
18F
  8
VIEW
 10
929.6008325962264
 20
955.8017456054686
 30
0.0
 11
908.9501576901521
 21
955.8017456054686
 31
0.0
  0
ARC
  5
190
  8
VIEW
 10
903.9501576901521
 20
680.8017456054688
 30
0.0
 40
5.0
 50
270.0
 51
0.0
  0
CIRCLE
  5
191
  8
VIEW
 10
881.1001576901522
 20
892.3517456054689
 30
0.0
 40
2.0
  0
LINE
  5
192
  8
VIEW
 10
934.6008325962264
 20
953.5017456054685
 30
0.0
 11
934.6008325962264
 21
955.8017456054686
 31
0.0
  0
LINE
  5
193
  8
VIEW
 10
908.9501576901523
 20
953.5017456054687
 30
0.0
 11
908.9501576901523
 21
955.8017456054688
 31
0.0
  0
LINE
  5
194
  8
VIEW
 10
903.9501576901521
 20
675.8017456054688
 30
0.0
 11
866.1001576901522
 21
675.8017456054688
 31
0.0
  0
LINE
  5
195
  8
VIEW
 10
866.1001886901522
 20
953.5017456054688
 30
0.0
 11
869.1001886901522
 21
953.5017456054688
 31
0.0
  0
LINE
  5
196
  8
EDGE
 10
929.6008325962264
 20
955.8017456054686
 30
0.0
 11
929.6008325962264
 21
953.5017456054685
 31
0.0
  0
LINE
  5
197
  8
EDGE
 10
869.1001886901522
 20
953.5017456054687
 30
0.0
 11
869.1001886901522
 21
955.8017456054688
 31
0.0
  0
LINE
  5
198
  8
EDGE
 10
866.100188690152
 20
952.3517456054689
 30
0.0
 11
908.9501576901521
 21
952.3517456054689
 31
0.0
  0
LINE
  5
199
  8
EDGE
 10
866.1001576901522
 20
675.8017456054688
 30
0.0
 11
866.100157690152
 21
952.3517456054689
 31
0.0
  0
LINE
  5
19A
  8
EDGE
 10
905.9501576901523
 20
955.8017456054688
 30
0.0
 11
905.9501576901523
 21
953.5017456054687
 31
0.0
  0
LINE
  5
19B
  8
VIEW
 10
251.7449178071637
 20
955.8017456054687
 30
0.0
 11
248.7449178071637
 21
955.8017456054687
 31
0.0
  0
LINE
  5
19C
  8
VIEW
 10
208.8949488071638
 20
952.3517456054688
 30
0.0
 11
208.8949488071638
 21
953.5017456054686
 31
0.0
  0
LINE
  5
19D
  8
VIEW
 10
183.2442739010896
 20
953.5017456054685
 30
0.0
 11
188.2442739010896
 21
953.5017456054685
 31
0.0
  0
LINE
  5
19E
  8
VIEW
 10
251.7449178071637
 20
953.5017456054686
 30
0.0
 11
251.7449178071637
 21
955.8017456054686
 31
0.0
  0
LINE
  5
19F
  8
VIEW
 10
251.7449488071638
 20
955.8017456054688
 30
0.0
 11
255.1949488071638
 21
955.8017456054688
 31
0.0
  0
LINE
  5
1A0
  8
VIEW
 10
251.7449488071639
 20
675.8017456054688
 30
0.0
 11
213.8949488071638
 21
675.8017456054688
 31
0.0
  0
LINE
  5
1A1
  8
VIEW
 10
248.7449178071637
 20
953.5017456054686
 30
0.0
 11
251.7449178071637
 21
953.5017456054686
 31
0.0
  0
LINE
  5
1A2
  8
VIEW
 10
251.7449488071638
 20
955.8017456054688
 30
0.0
 11
251.7449178071638
 21
955.8017456054688
 31
0.0
  0
LINE
  5
1A3
  8
VIEW
 10
208.8949488071638
 20
955.8017456054686
 30
0.0
 11
188.2442739010896
 21
955.8017456054686
 31
0.0
  0
CIRCLE
  5
1A4
  8
VIEW
 10
236.7449488071624
 20
892.3517456054689
 30
0.0
 40
2.0
  0
LINE
  5
1A5
  8
VIEW
 10
208.8949488071638
 20
955.8017456054686
 30
0.0
 11
208.8949488071638
 21
953.5017456054686
 31
0.0
  0
CIRCLE
  5
1A6
  8
VIEW
 10
236.7449488071624
 20
852.3517456054689
 30
0.0
 40
2.0
  0
LINE
  5
1A7
  8
VIEW
 10
188.2442739010896
 20
953.5017456054685
 30
0.0
 11
208.8949488071638
 21
953.5017456054686
 31
0.0
  0
LINE
  5
1A8
  8
VIEW
 10
251.7449178071638
 20
953.5017456054687
 30
0.0
 11
251.7449488071638
 21
953.5017456054687
 31
0.0
  0
CIRCLE
  5
1A9
  8
VIEW
 10
236.7449488071624
 20
872.3517456054689
 30
0.0
 40
2.0
  0
CIRCLE
  5
1AA
  8
VIEW
 10
236.7449488071624
 20
812.3517456054689
 30
0.0
 40
2.0
  0
LINE
  5
1AB
  8
VIEW
 10
208.8949488071638
 20
953.5017456054686
 30
0.0
 11
211.8949488071638
 21
953.5017456054686
 31
0.0
  0
LINE
  5
1AC
  8
VIEW
 10
211.8949488071638
 20
955.8017456054687
 30
0.0
 11
208.8949488071638
 21
955.8017456054687
 31
0.0
  0
CIRCLE
  5
1AD
  8
VIEW
 10
236.7449488071624
 20
912.3517456054689
 30
0.0
 40
2.0
  0
LINE
  5
1AE
  8
VIEW
 10
183.2442739010896
 20
955.8017456054686
 30
0.0
 11
183.2442739010896
 21
953.5017456054685
 31
0.0
  0
LINE
  5
1AF
  8
VIEW
 10
208.8949488071638
 20
680.8017456054688
 30
0.0
 11
208.8949488071638
 21
952.3517456054688
 31
0.0
  0
LINE
  5
1B0
  8
VIEW
 10
188.2442739010896
 20
955.8017456054686
 30
0.0
 11
183.2442739010896
 21
955.8017456054686
 31
0.0
  0
LINE
  5
1B1
  8
VIEW
 10
251.7449178071638
 20
952.3517456054688
 30
0.0
 11
251.7449488071638
 21
952.3517456054688
 31
0.0
  0
LINE
  5
1B2
  8
VIEW
 10
211.8949488071638
 20
953.5017456054686
 30
0.0
 11
248.7449178071637
 21
953.5017456054685
 31
0.0
  0
LINE
  5
1B3
  8
VIEW
 10
255.1949488071638
 20
675.8017456054688
 30
0.0
 11
255.1949488071638
 21
679.2517456054688
 31
0.0
  0
LINE
  5
1B4
  8
VIEW
 10
251.7449178071638
 20
952.3517456054688
 30
0.0
 11
251.7449178071638
 21
953.5017456054686
 31
0.0
  0
LINE
  5
1B5
  8
VIEW
 10
251.7449488071638
 20
955.8017456054688
 30
0.0
 11
251.7449488071638
 21
952.3517456054688
 31
0.0
  0
ARC
  5
1B6
  8
VIEW
 10
213.8949488071638
 20
680.8017456054688
 30
0.0
 40
5.0
 50
180.0
 51
270.0
  0
LINE
  5
1B7
  8
VIEW
 10
255.1949488071638
 20
675.8017456054688
 30
0.0
 11
251.744948807164
 21
675.8017456054688
 31
0.0
  0
LINE
  5
1B8
  8
VIEW
 10
248.7449178071637
 20
955.8017456054686
 30
0.0
 11
211.8949488071638
 21
955.8017456054686
 31
0.0
  0
CIRCLE
  5
1B9
  8
VIEW
 10
236.7449488071624
 20
832.3517456054689
 30
0.0
 40
2.0
  0
LINE
  5
1BA
  8
VIEW
 10
255.1949488071638
 20
679.2517456054688
 30
0.0
 11
255.1949488071638
 21
955.8017456054688
 31
0.0
  0
LINE
  5
1BB
  8
EDGE
 10
208.8949488071638
 20
952.3517456054688
 30
0.0
 11
251.7449178071638
 21
952.3517456054688
 31
0.0
  0
LINE
  5
1BC
  8
EDGE
 10
248.7449178071637
 20
955.8017456054686
 30
0.0
 11
248.7449178071637
 21
953.5017456054685
 31
0.0
  0
LINE
  5
1BD
  8
EDGE
 10
211.8949488071638
 20
953.5017456054686
 30
0.0
 11
211.8949488071638
 21
955.8017456054686
 31
0.0
  0
LINE
  5
1BE
  8
EDGE
 10
188.2442739010896
 20
953.5017456054685
 30
0.0
 11
188.2442739010896
 21
955.8017456054686
 31
0.0
  0
LINE
  5
1BF
  8
EDGE
 10
251.7449488071638
 20
952.3517456054688
 30
0.0
 11
251.744948807164
 21
675.8017456054688
 31
0.0
  0
ARC
  5
1C0
  8
VIEW
 10
790.8216067509627
 20
336.4041904203612
 30
0.0
 40
3.0
 50
90.0
 51
180.0
  0
LINE
  5
1C1
  8
VIEW
 10
315.8742753752596
 20
39.50554023250987
 30
0.0
 11
315.8742753752596
 21
311.0555402325099
 31
0.0
  0
LINE
  5
1C3
  8
VIEW
 10
763.8228945631113
 20
319.0541904203613
 30
0.0
 11
707.0228945631113
 21
319.0541904203613
 31
0.0
  0
LINE
  5
1C4
  8
VIEW
 10
358.7242443752597
 20
311.0555402325099
 30
0.0
 11
358.7242753752597
 21
311.0555402325099
 31
0.0
  0
LINE
  5
1C5
  8
VIEW
 10
691.8228945631113
 20
325.5548653264355
 30
0.0
 11
691.8228945631113
 21
377.5548653264355
 31
0.0
  0
LINE
  5
1C6
  8
VIEW
 10
782.9728945631111
 20
314.5055402325098
 30
0.0
 11
784.8229255631111
 21
314.5055402325098
 31
0.0
  0
LINE
  5
1C9
  8
VIEW
 10
796.8216067509627
 20
332.9041904203613
 30
0.0
 11
796.8216067509627
 21
324.9041904203614
 31
0.0
  0
ARC
  5
1CA
  8
VIEW
 10
793.3216067509625
 20
332.9041904203613
 30
0.0
 40
3.5
 50
0.0000000000009305
 51
180.0
  0
ARC
  5
1CB
  8
VIEW
 10
353.2242753752599
 20
332.904191199116
 30
0.0
 40
3.5
 50
0.0
 51
179.9999999999991
  0
ARC
  5
1CC
  8
VIEW
 10
337.2242753752598
 20
324.9041904203611
 30
0.0
 40
3.5
 50
180.0
 51
0.0
  0
CIRCLE
  5
1CD
  8
VIEW
 10
802.821575750964
 20
211.0555402325099
 30
0.0
 40
2.000000000000114
  0
ARC
  5
1CE
  8
VIEW
 10
809.3215757509624
 20
324.9041896416065
 30
0.0
 40
3.5
 50
180.0
 51
0.0000000000009305
  0
LINE
  5
1CF
  8
VIEW
 10
773.8228945631113
 20
372.5548653129547
 30
0.0
 11
773.8228945631113
 21
367.5548653103586
 31
0.0
  0
ARC
  5
1D0
  8
VIEW
 10
776.8228945631113
 20
377.5548653264355
 30
0.0
 40
5.0
 50
0.0
 51
90.0
  0
CIRCLE
  5
1D1
  8
VIEW
 10
343.7242753752595
 20
231.0555402325099
 30
0.0
 40
2.0
  0
LINE
  5
1D2
  8
VIEW
 10
769.8228945631113
 20
367.5548653275739
 30
0.0
 11
769.8228945631113
 21
372.5548653301701
 31
0.0
  0
ARC
  5
1D3
  8
VIEW
 10
699.8228945631113
 20
350.0545269395755
 30
0.0
 40
3.0
 50
180.0
 51
270.0
  0
LINE
  5
1D4
  8
VIEW
 10
787.8216067509627
 20
314.0541904203611
 30
0.0
 11
787.8216067509627
 21
336.4041904203611
 31
0.0
  0
LINE
  5
1D5
  8
VIEW
 10
784.8229255631111
 20
314.5055402325098
 30
0.0
 11
787.8215757509627
 21
314.5055402325098
 31
0.0
  0
LINE
  5
1D6
  8
VIEW
 10
701.0228945631113
 20
347.0545269395755
 30
0.0
 11
699.8228945631113
 21
347.0545269395755
 31
0.0
  0
LINE
  5
1D7
  8
VIEW
 10
787.8215757509624
 20
34.50554023250979
 30
0.0
 11
784.8229255631111
 21
34.50554023250987
 31
0.0
  0
LINE
  5
1D8
  8
VIEW
 10
766.8228945631113
 20
374.5548653264355
 30
0.0
 11
766.8228945631113
 21
322.0541904203613
 31
0.0
  0
LINE
  5
1D9
  8
VIEW
 10
784.822894563111
 20
34.95689004465854
 30
0.0
 11
784.822894563111
 21
29.95689004465842
 31
0.0
  0
ARC
  5
1DB
  8
VIEW
 10
771.8228945631113
 20
372.5548653264355
 30
0.0
 40
2.0
 50
359.9999996138047
 51
179.9999998930129
  0
LINE
  5
1DC
  8
VIEW
 10
703.0228945631113
 20
344.0541904203612
 30
0.0
 11
703.0228945631113
 21
339.0541904203612
 31
0.0
  0
LINE
  5
1DD
  8
VIEW
 10
364.7229255631111
 20
308.7555402325098
 30
0.0
 11
363.572925563111
 21
308.7555402325098
 31
0.0
  0
LINE
  5
1DF
  8
VIEW
 10
828.8215757509624
 20
332.9041904203616
 30
0.0
 11
828.8215757509624
 21
324.9041896416066
 31
0.0
  0
LINE
  5
1E0
  8
VIEW
 10
784.822894563111
 20
29.95689004465845
 30
0.0
 11
361.7229565631112
 21
29.95689004465842
 31
0.0
  0
LINE
  5
1E1
  8
VIEW
 10
787.8215757509627
 20
314.5055402325098
 30
0.0
 11
787.8215757509627
 21
311.0555402325098
 31
0.0
  0
LINE
  5
1E2
  8
VIEW
 10
699.8228945631113
 20
377.5548653264355
 30
0.0
 11
763.8228945631113
 21
377.5548653264355
 31
0.0
  0
LINE
  5
1E3
  8
VIEW
 10
358.7242753752597
 20
34.50554023250987
 30
0.0
 11
320.8742753752596
 21
34.50554023250987
 31
0.0
  0
LINE
  5
1E4
  8
VIEW
 10
830.6715757509626
 20
314.054190420361
 30
0.0
 11
830.6715757509626
 21
311.0555402325098
 31
0.0
  0
ARC
  5
1E5
  8
VIEW
 10
701.0228945631113
 20
344.0545269395755
 30
0.0
 40
3.0
 50
0.0
 51
90.0
  0
ARC
  5
1E7
  8
VIEW
 10
825.3215757509627
 20
332.9041904203616
 30
0.0
 40
3.5
 50
0.0000000000009305
 51
180.0
  0
LINE
  5
1E8
  8
VIEW
 10
773.8228945631113
 20
328.0548634587896
 30
0.0
 11
773.8228945631113
 21
323.0541904203613
 31
0.0
  0
CIRCLE
  5
1E9
  8
VIEW
 10
343.7242753752595
 20
211.0555402325099
 30
0.0
 40
2.0
  0
LINE
  5
1EA
  8
VIEW
 10
361.7229565631112
 20
34.95689004465842
 30
0.0
 11
361.7229565631112
 21
37.95554023250992
 31
0.0
  0
LINE
  5
1EC
  8
VIEW
 10
340.7242753752598
 20
332.9041911991161
 30
0.0
 11
340.7242753752598
 21
324.9041904203611
 31
0.0
  0
LINE
  5
1ED
  8
VIEW
 10
317.7242753752598
 20
324.9041904203613
 30
0.0
 11
317.7242753752598
 21
332.9041911991162
 31
0.0
  0
LINE
  5
1EE
  8
VIEW
 10
363.572925563111
 20
308.7555402325098
 30
0.0
 11
363.572925563111
 21
314.5055402325098
 31
0.0
  0
LINE
  5
1EF
  8
VIEW
 10
704.0228945631113
 20
322.0541904203613
 30
0.0
 11
704.0228945631113
 21
344.0545269395755
 31
0.0
  0
LINE
  5
1F0
  8
VIEW
 10
361.7229255631111
 20
37.95554023250992
 30
0.0
 11
361.7229255631111
 21
34.50554023250987
 31
0.0
  0
ARC
  5
1F1
  8
VIEW
 10
763.8228945631113
 20
374.5548653264355
 30
0.0
 40
3.0
 50
0.0
 51
90.0
  0
LINE
  5
1F4
  8
VIEW
 10
358.7242753752597
 20
314.5055402325099
 30
0.0
 11
361.7229255631111
 21
314.5055402325098
 31
0.0
  0
CIRCLE
  5
1F6
  8
VIEW
 10
802.821575750964
 20
271.0555402325099
 30
0.0
 40
2.000000000000114
  0
LINE
  5
1F7
  8
VIEW
 10
315.8742753752596
 20
314.0541904203615
 30
0.0
 11
315.8742753752597
 21
336.4041904203614
 31
0.0
  0
ARC
  5
1F9
  8
VIEW
 10
337.2242753752598
 20
332.9041911991161
 30
0.0
 40
3.5
 50
0.0
 51
180.0
  0
ARC
  5
1FA
  8
VIEW
 10
771.8228945631113
 20
367.5548653264355
 30
0.0
 40
1.999999999999886
 50
179.9999999673871
 51
359.9999995394305
  0
LINE
  5
1FB
  8
VIEW
 10
830.6715757509626
 20
336.4041904203612
 30
0.0
 11
830.6715757509626
 21
314.0541904203612
 31
0.0
  0
LINE
  5
1FD
  8
VIEW
 10
696.8228945631113
 20
382.5548653264355
 30
0.0
 11
776.8228945631113
 21
382.5548653264355
 31
0.0
  0
ARC
  5
1FE
  8
VIEW
 10
696.8228945631113
 20
377.5548653264354
 30
0.0
 40
5.0
 50
90.0
 51
180.0
  0
LINE
  5
1FF
  8
VIEW
 10
358.7242443752597
 20
314.0541904203613
 30
0.0
 11
358.7242443752597
 21
311.0555402325099
 31
0.0
  0
LINE
  5
200
  8
VIEW
 10
356.7242753752598
 20
332.904191199116
 30
0.0
 11
356.7242753752598
 21
324.904190420361
 31
0.0
  0
LINE
  5
202
  8
VIEW
 10
699.0228945631113
 20
339.0541904203612
 30
0.0
 11
699.0228945631113
 21
344.0548634587896
 31
0.0
  0
LINE
  5
203
  8
VIEW
 10
364.7229255631109
 20
311.0555402325098
 30
0.0
 11
364.7229255631109
 21
314.0541904203612
 31
0.0
  0
ARC
  5
204
  8
VIEW
 10
825.3215757509627
 20
324.9041896416066
 30
0.0
 40
3.500000000000114
 50
180.0
 51
0.0000000000009305
  0
LINE
  5
205
  8
VIEW
 10
782.9728945631111
 20
314.5055402325098
 30
0.0
 11
782.9728945631111
 21
308.7555402325098
 31
0.0
  0
LINE
  5
206
  8
VIEW
 10
349.7242753752598
 20
324.9041904203611
 30
0.0
 11
349.7242753752599
 21
332.904191199116
 31
0.0
  0
ARC
  5
207
  8
VIEW
 10
701.0228945631113
 20
339.0541904203612
 30
0.0
 40
2.0
 50
180.0
 51
0.0
  0
LINE
  5
208
  8
VIEW
 10
369.7229255631109
 20
320.5548653264354
 30
0.0
 11
686.8228945631113
 21
320.5548653264355
 31
0.0
  0
LINE
  5
209
  8
VIEW
 10
364.7229255631109
 20
314.0541904203612
 30
0.0
 11
364.7229255631109
 21
315.5548653264354
 31
0.0
  0
LINE
  5
20A
  8
VIEW
 10
361.7229255631111
 20
34.50554023250987
 30
0.0
 11
358.7242753752595
 21
34.50554023250984
 31
0.0
  0
ARC
  5
20B
  8
VIEW
 10
771.8228945631113
 20
328.0548653264355
 30
0.0
 40
2.000000000004282
 50
359.9999464958847
 51
180.0001185712137
  0
LINE
  5
20C
  8
VIEW
 10
782.9728945631111
 20
308.7555402325098
 30
0.0
 11
781.822894563111
 21
308.7555402325098
 31
0.0
  0
LINE
  5
20D
  8
VIEW
 10
825.6715757509626
 20
34.50554023250979
 30
0.0
 11
787.8215757509624
 21
34.50554023250979
 31
0.0
  0
ARC
  5
20E
  8
VIEW
 10
827.6715757509628
 20
336.4041904203612
 30
0.0
 40
2.999999999999886
 50
0.0000000000010856
 51
90.0
  0
LINE
  5
20F
  8
VIEW
 10
361.7229565631112
 20
37.95554023250992
 30
0.0
 11
361.7229255631111
 21
37.95554023250992
 31
0.0
  0
LINE
  5
210
  8
VIEW
 10
318.8742753752597
 20
339.4041904203614
 30
0.0
 11
355.7242443752597
 21
339.4041904203613
 31
0.0
  0
LINE
  5
211
  8
VIEW
 10
361.7229255631111
 20
314.5055402325098
 30
0.0
 11
363.572925563111
 21
314.5055402325098
 31
0.0
  0
LINE
  5
212
  8
VIEW
 10
830.6715757509626
 20
311.0555402325098
 30
0.0
 11
830.6715757509626
 21
39.50554023250987
 31
0.0
  0
LINE
  5
213
  8
VIEW
 10
315.8742753752596
 20
311.0555402325099
 30
0.0
 11
315.8742753752596
 21
314.0541904203614
 31
0.0
  0
CIRCLE
  5
215
  8
VIEW
 10
802.821575750964
 20
171.0555402325099
 30
0.0
 40
2.000000000000114
  0
CIRCLE
  5
216
  8
VIEW
 10
802.821575750964
 20
231.0555402325099
 30
0.0
 40
2.000000000000114
  0
LINE
  5
217
  8
VIEW
 10
358.7242753752597
 20
311.0555402325099
 30
0.0
 11
358.7242753752597
 21
314.5055402325099
 31
0.0
  0
CIRCLE
  5
218
  8
VIEW
 10
343.7242753752595
 20
271.0555402325099
 30
0.0
 40
2.0
  0
ARC
  5
219
  8
VIEW
 10
809.3215757509624
 20
332.9041904203615
 30
0.0
 40
3.500000000000114
 50
0.0000000000009305
 51
180.0
  0
ARC
  5
21B
  8
VIEW
 10
369.7229255631109
 20
315.5548653264354
 30
0.0
 40
5.0
 50
90.0
 51
180.0
  0
ARC
  5
21C
  8
VIEW
 10
771.8228945631113
 20
323.0541904051266
 30
0.0
 40
1.999999999999908
 50
180.0000646306575
 51
0.0000004364409041
  0
LINE
  5
21D
  8
VIEW
 10
781.822894563111
 20
308.7555402325098
 30
0.0
 11
781.822894563111
 21
311.0555402325098
 31
0.0
  0
CIRCLE
  5
21E
  8
VIEW
 10
343.7242753752595
 20
171.0555402325099
 30
0.0
 40
2.0
  0
LINE
  5
21F
  8
VIEW
 10
324.7242753752598
 20
332.9041911991162
 30
0.0
 11
324.7242753752598
 21
324.9041904203613
 31
0.0
  0
LINE
  5
220
  8
VIEW
 10
333.7242753752598
 20
324.9041904203612
 30
0.0
 11
333.7242753752598
 21
332.9041911991161
 31
0.0
  0
LINE
  5
222
  8
VIEW
 10
364.7229255631111
 20
311.0555402325098
 30
0.0
 11
364.7229255631111
 21
308.7555402325098
 31
0.0
  0
LINE
  5
223
  8
VIEW
 10
821.8215757509624
 20
324.9041896416066
 30
0.0
 11
821.8215757509624
 21
332.9041904203616
 31
0.0
  0
LINE
  5
224
  8
VIEW
 10
784.8229255631111
 20
34.50554023250987
 30
0.0
 11
784.8229255631111
 21
37.95554023250992
 31
0.0
  0
CIRCLE
  5
226
  8
VIEW
 10
802.821575750964
 20
251.0555402325099
 30
0.0
 40
2.000000000000114
  0
ARC
  5
227
  8
VIEW
 10
699.8228945631113
 20
374.5548653264355
 30
0.0
 40
3.0
 50
90.0
 51
180.0
  0
LINE
  5
228
  8
VIEW
 10
361.7229565631112
 20
29.95689004465839
 30
0.0
 11
361.7229565631112
 21
34.95689004465845
 31
0.0
  0
LINE
  5
229
  8
VIEW
 10
787.8216067509627
 20
311.0555402325097
 30
0.0
 11
787.8216067509627
 21
314.0541904203612
 31
0.0
  0
CIRCLE
  5
22A
  8
VIEW
 10
802.821575750964
 20
191.0555402325099
 30
0.0
 40
2.000000000000114
  0
ARC
  5
22B
  8
VIEW
 10
355.7242443752597
 20
336.4041904203613
 30
0.0
 40
3.0
 50
0.0
 51
90.0
  0
ARC
  5
22C
  8
VIEW
 10
321.2242753752598
 20
324.9041904203613
 30
0.0
 40
3.5
 50
180.0
 51
0.0
  0
ARC
  5
22D
  8
VIEW
 10
320.8742753752596
 20
39.50554023250987
 30
0.0
 40
5.0
 50
180.0
 51
270.0
  0
LINE
  5
22E
  8
VIEW
 10
784.8229255631111
 20
37.95554023250992
 30
0.0
 11
784.822894563111
 21
37.95554023250992
 31
0.0
  0
LINE
  5
22F
  8
VIEW
 10
805.8215757509624
 20
324.9041896416065
 30
0.0
 11
805.8215757509624
 21
332.9041904203615
 31
0.0
  0
LINE
  5
230
  8
VIEW
 10
781.8228945631113
 20
377.5548653264355
 30
0.0
 11
781.8228945631113
 21
314.0541904203612
 31
0.0
  0
ARC
  5
231
  8
VIEW
 10
763.8228945631113
 20
322.0541904203613
 30
0.0
 40
3.0
 50
270.0
 51
0.0
  0
ARC
  5
232
  8
VIEW
 10
318.8742753752597
 20
336.4041904203614
 30
0.0
 40
3.000000000000057
 50
90.0
 51
180.0
  0
LINE
  5
234
  8
VIEW
 10
358.7242443752597
 20
336.4041904203613
 30
0.0
 11
358.7242443752596
 21
314.0541904203614
 31
0.0
  0
ARC
  5
235
  8
VIEW
 10
707.0228945631113
 20
322.0541904203613
 30
0.0
 40
3.0
 50
180.0
 51
270.0
  0
LINE
  5
236
  8
VIEW
 10
812.8215757509624
 20
332.9041904203616
 30
0.0
 11
812.8215757509624
 21
324.9041896416066
 31
0.0
  0
LINE
  5
237
  8
VIEW
 10
789.8216067509627
 20
324.9041904203613
 30
0.0
 11
789.8216067509625
 21
332.9041904203613
 31
0.0
  0
LINE
  5
239
  8
VIEW
 10
784.822894563111
 20
37.95554023250992
 30
0.0
 11
784.822894563111
 21
34.95689004465854
 31
0.0
  0
LINE
  5
23B
  8
VIEW
 10
787.8215757509627
 20
311.0555402325098
 30
0.0
 11
787.8216067509627
 21
311.0555402325098
 31
0.0
  0
ARC
  5
23C
  8
VIEW
 10
701.0228945631113
 20
344.0545269395755
 30
0.0
 40
2.000000028311295
 50
359.9903594347412
 51
179.9903594347444
  0
CIRCLE
  5
23D
  8
VIEW
 10
343.7242753752595
 20
191.0555402325099
 30
0.0
 40
2.0
  0
ARC
  5
23E
  8
VIEW
 10
353.2242753752598
 20
324.904190420361
 30
0.0
 40
3.5
 50
179.9999999999991
 51
0.0
  0
ARC
  5
23F
  8
VIEW
 10
793.3216067509627
 20
324.9041896416064
 30
0.0
 40
3.500000000000087
 50
179.9999872516071
 51
0.0000127483929389
  0
ARC
  5
240
  8
VIEW
 10
686.8228945631113
 20
325.5548653264355
 30
0.0
 40
5.0
 50
270.0
 51
0.0
  0
LINE
  5
241
  8
VIEW
 10
790.8216067509627
 20
339.4041904203611
 30
0.0
 11
827.6715757509628
 21
339.4041904203611
 31
0.0
  0
ARC
  5
242
  8
VIEW
 10
825.6715757509626
 20
39.50554023250987
 30
0.0
 40
5.0
 50
270.0
 51
0.0
  0
LINE
  5
243
  8
VIEW
 10
781.8228945631113
 20
314.0541904203612
 30
0.0
 11
781.8228945631113
 21
311.0555402325098
 31
0.0
  0
CIRCLE
  5
245
  8
VIEW
 10
343.7242753752595
 20
251.0555402325099
 30
0.0
 40
2.0
  0
LINE
  5
246
  8
VIEW
 10
769.8228945631113
 20
323.0541881490911
 30
0.0
 11
769.8228945631113
 21
328.0548611875194
 31
0.0
  0
ARC
  5
247
  8
VIEW
 10
321.2242753752598
 20
332.9041911991162
 30
0.0
 40
3.5
 50
0.0
 51
180.0
  0
LINE
  5
248
  8
VIEW
 10
696.8228945631113
 20
350.0545269395755
 30
0.0
 11
696.8228945631113
 21
374.5548653264356
 31
0.0
  0
LINE
  5
249
  8
EDGE
 10
315.8742753752596
 20
311.0555402325099
 30
0.0
 11
358.7242443752597
 21
311.0555402325099
 31
0.0
  0
LINE
  5
24A
  8
EDGE
 10
358.7242753752595
 20
34.50554023250984
 30
0.0
 11
358.7242753752597
 21
311.0555402325099
 31
0.0
  0
LINE
  5
24B
  8
EDGE
 10
315.8742753752596
 20
314.0541904203614
 30
0.0
 11
358.7242443752597
 21
314.0541904203613
 31
0.0
  0
LINE
  5
24C
  8
EDGE
 10
787.8216067509627
 20
314.0541904203612
 30
0.0
 11
830.6715757509626
 21
314.054190420361
 31
0.0
  0
LINE
  5
24D
  8
EDGE
 10
361.7229255631111
 20
37.95554023250992
 30
0.0
 11
361.7229255631111
 21
314.5055402325098
 31
0.0
  0
LINE
  5
24E
  8
EDGE
 10
364.7229255631111
 20
311.0555402325098
 30
0.0
 11
781.822894563111
 21
311.0555402325098
 31
0.0
  0
LINE
  5
24F
  8
EDGE
 10
784.822894563111
 20
37.95554023250992
 30
0.0
 11
361.7229565631112
 21
37.95554023250992
 31
0.0
  0
LINE
  5
250
  8
EDGE
 10
364.7229255631109
 20
314.0541904203612
 30
0.0
 11
781.8228945631113
 21
314.0541904203612
 31
0.0
  0
LINE
  5
251
  8
EDGE
 10
787.8215757509627
 20
311.0555402325098
 30
0.0
 11
787.8215757509627
 21
34.50554023250979
 31
0.0
  0
LINE
  5
252
  8
EDGE
 10
784.822894563111
 20
34.95689004465854
 30
0.0
 11
361.7229565631112
 21
34.95689004465842
 31
0.0
  0
LINE
  5
253
  8
EDGE
 10
784.8229255631111
 20
314.5055402325098
 30
0.0
 11
784.8229255631111
 21
37.95554023250992
 31
0.0
  0
LINE
  5
254
  8
EDGE
 10
787.8216067509627
 20
311.0555402325098
 30
0.0
 11
830.6715757509626
 21
311.0555402325098
 31
0.0
  0
TEXT
  5
2B9
  8
COMMENT
  6
CONTINUOUS
 10
47.35905491991537
 20
311.8263970692735
 30
0.0
 40
10.0
  1
ìWäJê} (éQçl)
  0
TEXT
  5
2E2
  8
COMMENT
  6
CONTINUOUS
 10
44.45566003631479
 20
140.3903964481129
 30
0.0
 40
10.0
  1
ñ{ê}íÜÅAÉ≥2.5 åäÇÕÇ∑Ç◊ÇƒM3É^ÉbÉv
  0
INSERT
  5
2F7
  8
COMMENT
  2
*X1
 10
0.0
 20
0.0
 30
0.0
  0
CIRCLE
  5
376
  8
VIEW
 10
375.5729255631113
 20
297.2055402325097
 30
0.0
 40
1.25
  0
CIRCLE
  5
377
  8
VIEW
 10
403.5729255631113
 20
292.2055402325097
 30
0.0
 40
1.25
  0
CIRCLE
  5
378
  8
VIEW
 10
425.5729255631113
 20
297.2055402325097
 30
0.0
 40
1.25
  0
CIRCLE
  5
379
  8
VIEW
 10
482.3129255631113
 20
292.2055402325097
 30
0.0
 40
1.25
  0
CIRCLE
  5
37A
  8
VIEW
 10
528.0329255631111
 20
292.2055402325098
 30
0.0
 40
1.25
  0
CIRCLE
  5
37B
  8
VIEW
 10
685.5129255631111
 20
269.3455402325098
 30
0.0
 40
1.25
  0
CIRCLE
  5
37C
  8
VIEW
 10
375.5729255631113
 20
117.2055402325097
 30
0.0
 40
1.25
  0
CIRCLE
  5
37D
  8
VIEW
 10
403.5729255631113
 20
137.2655402325098
 30
0.0
 40
1.25
  0
CIRCLE
  5
37E
  8
VIEW
 10
425.5729255631113
 20
117.2055402325098
 30
0.0
 40
1.25
  0
CIRCLE
  5
37F
  8
VIEW
 10
461.9929255631112
 20
137.2655402325098
 30
0.0
 40
1.25
  0
CIRCLE
  5
380
  8
VIEW
 10
482.3129255631113
 20
137.2655402325098
 30
0.0
 40
1.25
  0
CIRCLE
  5
381
  8
VIEW
 10
528.0329255631113
 20
137.2655402325098
 30
0.0
 40
1.25
  0
CIRCLE
  5
382
  8
VIEW
 10
685.5129255631111
 20
137.2655402325098
 30
0.0
 40
1.25
  0
CIRCLE
  5
383
  8
VIEW
 10
685.5129255631111
 20
64.87554023250982
 30
0.0
 40
1.25
  0
CIRCLE
  5
384
  8
VIEW
 10
735.5729255631113
 20
42.20554023250992
 30
0.0
 40
1.25
  0
CIRCLE
  5
385
  8
VIEW
 10
655.5729255631113
 20
42.20554023250992
 30
0.0
 40
1.25
  0
CIRCLE
  5
386
  8
VIEW
 10
575.5729255631113
 20
42.20554023250978
 30
0.0
 40
1.25
  0
CIRCLE
  5
387
  8
VIEW
 10
495.5729255631113
 20
42.20554023250978
 30
0.0
 40
1.25
  0
CIRCLE
  5
388
  8
VIEW
 10
415.5729255631113
 20
42.20554023250978
 30
0.0
 40
1.25
  0
CIRCLE
  5
389
  8
VIEW
 10
403.5729255631113
 20
64.87554023250976
 30
0.0
 40
1.25
  0
CIRCLE
  5
38A
  8
VIEW
 10
528.0329255631111
 20
64.87554023250976
 30
0.0
 40
1.25
  0
CIRCLE
  5
38B
  8
VIEW
 10
373.0082054093027
 20
938.5017456054686
 30
0.0
 40
1.25
  0
CIRCLE
  5
38C
  8
VIEW
 10
401.0082054093027
 20
933.5017456054686
 30
0.0
 40
1.25
  0
CIRCLE
  5
38D
  8
VIEW
 10
423.0082054093027
 20
938.5017456054686
 30
0.0
 40
1.25
  0
CIRCLE
  5
38E
  8
VIEW
 10
479.7482054093027
 20
933.5017456054686
 30
0.0
 40
1.25
  0
CIRCLE
  5
38F
  8
VIEW
 10
525.4682054093025
 20
933.5017456054688
 30
0.0
 40
1.25
  0
CIRCLE
  5
390
  8
VIEW
 10
682.9482054093025
 20
910.6417456054687
 30
0.0
 40
1.25
  0
CIRCLE
  5
391
  8
VIEW
 10
373.0082054093027
 20
758.5017456054686
 30
0.0
 40
1.25
  0
CIRCLE
  5
392
  8
VIEW
 10
401.0082054093027
 20
778.5617456054688
 30
0.0
 40
1.25
  0
CIRCLE
  5
393
  8
VIEW
 10
423.0082054093027
 20
758.5017456054688
 30
0.0
 40
1.25
  0
CIRCLE
  5
394
  8
VIEW
 10
459.4282054093026
 20
778.5617456054688
 30
0.0
 40
1.25
  0
CIRCLE
  5
395
  8
VIEW
 10
479.7482054093027
 20
778.5617456054688
 30
0.0
 40
1.25
  0
CIRCLE
  5
396
  8
VIEW
 10
525.4682054093028
 20
778.5617456054688
 30
0.0
 40
1.25
  0
CIRCLE
  5
397
  8
VIEW
 10
682.9482054093025
 20
778.5617456054688
 30
0.0
 40
1.25
  0
CIRCLE
  5
398
  8
VIEW
 10
682.9482054093025
 20
706.1717456054688
 30
0.0
 40
1.25
  0
CIRCLE
  5
399
  8
VIEW
 10
733.0082054093027
 20
683.5017456054688
 30
0.0
 40
1.25
  0
CIRCLE
  5
39A
  8
VIEW
 10
653.0082054093027
 20
683.5017456054688
 30
0.0
 40
1.25
  0
CIRCLE
  5
39B
  8
VIEW
 10
573.0082054093027
 20
683.5017456054687
 30
0.0
 40
1.25
  0
CIRCLE
  5
39C
  8
VIEW
 10
493.0082054093027
 20
683.5017456054687
 30
0.0
 40
1.25
  0
CIRCLE
  5
39D
  8
VIEW
 10
413.0082054093027
 20
683.5017456054687
 30
0.0
 40
1.25
  0
CIRCLE
  5
39E
  8
VIEW
 10
401.0082054093027
 20
706.1717456054687
 30
0.0
 40
1.25
  0
CIRCLE
  5
39F
  8
VIEW
 10
525.4682054093025
 20
706.1717456054687
 30
0.0
 40
1.25
  0
ENDSEC
  0
EOF
